G04 #@! TF.GenerationSoftware,KiCad,Pcbnew,9.0.7*
G04 #@! TF.CreationDate,2026-04-04T13:25:15+02:00*
G04 #@! TF.ProjectId,Prime_Maxel-v3,5072696d-655f-44d6-9178-656c2d76332e,rev?*
G04 #@! TF.SameCoordinates,Original*
G04 #@! TF.FileFunction,Copper,L4,Bot*
G04 #@! TF.FilePolarity,Positive*
%FSLAX46Y46*%
G04 Gerber Fmt 4.6, Leading zero omitted, Abs format (unit mm)*
G04 Created by KiCad (PCBNEW 9.0.7) date 2026-04-04 13:25:15*
%MOMM*%
%LPD*%
G01*
G04 APERTURE LIST*
G04 #@! TA.AperFunction,ComponentPad*
%ADD10R,1.700000X1.700000*%
G04 #@! TD*
G04 #@! TA.AperFunction,ComponentPad*
%ADD11O,1.700000X1.700000*%
G04 #@! TD*
G04 #@! TA.AperFunction,ComponentPad*
%ADD12O,3.800000X1.900000*%
G04 #@! TD*
G04 #@! TA.AperFunction,ComponentPad*
%ADD13O,1.900000X3.800000*%
G04 #@! TD*
G04 #@! TA.AperFunction,ComponentPad*
%ADD14C,2.000000*%
G04 #@! TD*
G04 #@! TA.AperFunction,ViaPad*
%ADD15C,0.600000*%
G04 #@! TD*
G04 #@! TA.AperFunction,Conductor*
%ADD16C,0.250000*%
G04 #@! TD*
G04 #@! TA.AperFunction,Conductor*
%ADD17C,0.270000*%
G04 #@! TD*
G04 #@! TA.AperFunction,Conductor*
%ADD18C,0.229000*%
G04 #@! TD*
G04 APERTURE END LIST*
D10*
X-27370000Y15123000D03*
D11*
X-27370000Y17663000D03*
X-29910000Y15123000D03*
X-29910000Y17663000D03*
X-32450000Y15123000D03*
X-32450000Y17663000D03*
X-34990000Y15123000D03*
X-34990000Y17663000D03*
X-37530000Y15123000D03*
X-37530000Y17663000D03*
X-40070000Y15123000D03*
X-40070000Y17663000D03*
X-42610000Y15123000D03*
X-42610000Y17663000D03*
X-45150000Y15123000D03*
X-45150000Y17663000D03*
X-47690000Y15123000D03*
X-47690000Y17663000D03*
X-50230000Y15123000D03*
X-50230000Y17663000D03*
X-52770000Y15123000D03*
X-52770000Y17663000D03*
X-55310000Y15123000D03*
X-55310000Y17663000D03*
X-57850000Y15123000D03*
X-57850000Y17663000D03*
X-60390000Y15123000D03*
X-60390000Y17663000D03*
X-62930000Y15123000D03*
X-62930000Y17663000D03*
X-65470000Y15123000D03*
X-65470000Y17663000D03*
X-68010000Y15123000D03*
X-68010000Y17663000D03*
X-70550000Y15123000D03*
X-70550000Y17663000D03*
D10*
X-22290000Y-50917000D03*
D11*
X-22290000Y-48377000D03*
X-22290000Y-45837000D03*
X-22290000Y-43297000D03*
X-22290000Y-40757000D03*
X-22290000Y-38217000D03*
X-22290000Y-35677000D03*
X-22290000Y-33137000D03*
D10*
X-22290000Y-28057000D03*
D11*
X-22290000Y-25517000D03*
X-22290000Y-22977000D03*
X-22290000Y-20437000D03*
X-22290000Y-17897000D03*
X-22290000Y-15357000D03*
X-22290000Y-12817000D03*
X-22290000Y-10277000D03*
D10*
X-22290000Y-5197000D03*
D11*
X-22290000Y-2657000D03*
X-22290000Y-117000D03*
X-22290000Y2423000D03*
X-22290000Y4963000D03*
X-22290000Y7503000D03*
X-22290000Y10043000D03*
X-22290000Y12583000D03*
D10*
X-70550000Y-60061000D03*
D11*
X-70550000Y-57521000D03*
X-70550000Y-54981000D03*
X-70550000Y-52441000D03*
X-70550000Y-49901000D03*
X-70550000Y-47361000D03*
X-70550000Y-44821000D03*
X-70550000Y-42281000D03*
X-70550000Y-39741000D03*
X-70550000Y-37201000D03*
D10*
X-70550000Y-33137000D03*
D11*
X-70550000Y-30597000D03*
X-70550000Y-28057000D03*
X-70550000Y-25517000D03*
X-70550000Y-22977000D03*
X-70550000Y-20437000D03*
X-70550000Y-17897000D03*
X-70550000Y-15357000D03*
D10*
X-70550000Y-10277000D03*
D11*
X-70550000Y-7737000D03*
X-70550000Y-5197000D03*
X-70550000Y-2657000D03*
X-70550000Y-117000D03*
X-70550000Y2423000D03*
X-70550000Y4963000D03*
X-70550000Y7503000D03*
D12*
X-8230000Y-61900000D03*
X-8230000Y-67830000D03*
D13*
X-3500000Y-65500000D03*
D14*
X74875000Y-2425000D03*
X-3350000Y-15125000D03*
D15*
X40900000Y25300000D03*
X54800000Y41200000D03*
X18927027Y26072973D03*
X52870000Y-300000D03*
X73500000Y-27100000D03*
X59199415Y-35300000D03*
X80900000Y4400000D03*
X88000000Y-32200000D03*
X22100000Y22900000D03*
X7553529Y6373498D03*
X11900000Y-15200000D03*
X7300000Y-24100000D03*
X42800000Y-36200000D03*
X10400000Y-44800000D03*
X-4400000Y-19500000D03*
X72430000Y18850000D03*
X104300000Y-19500000D03*
X30900000Y37600000D03*
X38626502Y37446471D03*
X104200000Y9600000D03*
X-4300000Y9500000D03*
X18927027Y-36072973D03*
X77351061Y32601063D03*
X22100000Y-32900000D03*
X45500000Y-51400000D03*
X39800000Y-43100000D03*
X77890000Y22870000D03*
X38626502Y-47446471D03*
X92446471Y6373498D03*
X3800000Y-600000D03*
X18600000Y2500000D03*
X96900000Y-9600000D03*
X22900000Y-43000000D03*
X19400000Y-14300000D03*
X64500000Y49300000D03*
X81101061Y26101063D03*
X89500000Y-44500000D03*
X64400000Y-59400000D03*
X77900000Y-32900000D03*
X92300000Y14100000D03*
X7000000Y-64500000D03*
X35400000Y-59600000D03*
X7553529Y-16373498D03*
X26600000Y17100000D03*
X11900000Y5200000D03*
X10300000Y34700000D03*
X92446471Y-16373498D03*
X61300000Y37500000D03*
X88100000Y-15200000D03*
X60200000Y-43100000D03*
X60200000Y33100000D03*
X35500000Y49100000D03*
X12000000Y22400000D03*
X69600000Y-47500000D03*
X81072973Y-36072973D03*
X28000000Y-28500000D03*
X57400000Y26000000D03*
X61373498Y-47446471D03*
X89160000Y34210000D03*
X39900000Y33200000D03*
X81000000Y-12300000D03*
X88100000Y5200000D03*
X58100000Y36100000D03*
X56100000Y36700000D03*
X85400000Y5500000D03*
X14600000Y-15500000D03*
X36800000Y44300000D03*
X23100000Y20500000D03*
X10100000Y-3500000D03*
X20800000Y24700000D03*
X68300000Y-39900000D03*
X24500000Y-31900000D03*
X14000000Y31000000D03*
X47700000Y-44600000D03*
X75650000Y22050000D03*
X63200000Y-54400000D03*
X71900000Y27900000D03*
X13900000Y3700000D03*
X99300000Y8300000D03*
X78900000Y-35100000D03*
X16200000Y16500000D03*
X90200000Y-16300000D03*
X38800000Y-45200000D03*
X99300000Y-18300000D03*
X-15000000Y22700000D03*
X60300000Y-45500000D03*
X9600000Y-15300000D03*
X-16000000Y-33100000D03*
X600000Y-18200000D03*
X700000Y8200000D03*
X29000000Y-38200000D03*
X20200000Y-34200000D03*
X85100000Y12800000D03*
X61300000Y35200000D03*
X1600000Y-64500000D03*
X58600000Y30900000D03*
X54610000Y-7740000D03*
X14507378Y-22800000D03*
X13900000Y-41200000D03*
X76800000Y-30400000D03*
X41500000Y-40900000D03*
X85800000Y-13600000D03*
X60500000Y-40200000D03*
X79840000Y24090000D03*
X31900000Y30600000D03*
X83400000Y-26500000D03*
X89700000Y-6900000D03*
X9800000Y6200000D03*
X63200000Y44400000D03*
X47130000Y-9650000D03*
X86000000Y-41000000D03*
X39500000Y30400000D03*
X90400000Y5400000D03*
X36800000Y-54300000D03*
X85980000Y30990000D03*
X52100000Y34300000D03*
X39700000Y35500000D03*
X78751061Y25551063D03*
X76351061Y27951063D03*
X89600000Y8700000D03*
X89200000Y10300000D03*
X91300000Y-13000000D03*
X91700000Y-11400000D03*
X83000000Y-31200000D03*
X81600000Y-32600000D03*
X63400000Y-44600000D03*
X65400000Y-44100000D03*
X41900000Y-46100000D03*
X43700000Y-46600000D03*
X22600000Y-36500000D03*
X23800000Y-37700000D03*
X10200000Y-18300000D03*
X10600000Y-20300000D03*
X9000000Y3400000D03*
X8400000Y1300000D03*
X17100000Y21400000D03*
X18300000Y22700000D03*
X34500000Y34400000D03*
X36500000Y35000000D03*
X-700000Y-35800000D03*
X42600000Y-8800000D03*
X1600000Y-34400000D03*
X22900000Y-21200000D03*
X2300000Y-35300000D03*
X26300000Y-20300000D03*
X23600000Y-22300000D03*
X0Y-36800000D03*
X34800000Y-43400000D03*
X80710000Y24030000D03*
X24800000Y27100000D03*
X65200000Y32900000D03*
X55900000Y-45900000D03*
X21000000Y25700000D03*
X19400000Y-34000000D03*
X82450000Y20550000D03*
X-6066936Y21466936D03*
X62200000Y35400000D03*
X9000000Y-14700000D03*
X17900000Y-30400000D03*
X87900000Y-20200000D03*
X9500000Y-10800000D03*
X91100000Y4800000D03*
X90500000Y800000D03*
X79000000Y-35900000D03*
X90400000Y-17100000D03*
X44500000Y35500000D03*
X59800000Y-46200000D03*
X37900000Y-45400000D03*
X9600000Y7100000D03*
X40300000Y36100000D03*
X75300000Y-37300000D03*
X12300000Y10200000D03*
X68896129Y19603871D03*
X54900000Y25700000D03*
X54823529Y-900000D03*
X43600000Y-2500000D03*
X20700000Y-15900000D03*
X19200000Y800000D03*
X22900000Y-14400000D03*
X24700000Y15100000D03*
X38400000Y24200000D03*
X42600000Y800000D03*
X38800000Y21100000D03*
X56970000Y-3710000D03*
X81000000Y-10500000D03*
X80000000Y5600000D03*
X81200000Y-9500000D03*
X56790000Y-2820000D03*
X79800000Y6500000D03*
X77490000Y-8600000D03*
X56820000Y-4690000D03*
X61680000Y-30480000D03*
X62500000Y-34000000D03*
X74300000Y-24700000D03*
X25500000Y15800000D03*
X44400000Y1000000D03*
X39300000Y24600000D03*
X55800000Y25500000D03*
X69500000Y19000000D03*
X55690000Y22410000D03*
X55670000Y-1160000D03*
X19200000Y-100000D03*
X44100000Y-3500000D03*
X20900000Y-16700000D03*
X46200000Y-33000000D03*
X32700000Y-26800000D03*
X45000000Y-36400000D03*
X30100000Y-29300000D03*
X30800000Y-29900000D03*
X46100000Y-36600000D03*
X56400000Y-10700000D03*
X56250000Y-5340000D03*
X73700000Y-25400000D03*
X61500000Y-34400000D03*
X62000000Y39900000D03*
X63600000Y38500000D03*
X57900000Y31800000D03*
X56700000Y34500000D03*
X75190000Y22770000D03*
X75200000Y25570000D03*
X82800000Y27800000D03*
X83700000Y26000000D03*
X86900000Y8700000D03*
X85900000Y6800000D03*
X94800000Y7100000D03*
X94500000Y5000000D03*
X87000000Y-12600000D03*
X89100000Y-11600000D03*
X95000000Y-16900000D03*
X93600000Y-18700000D03*
X78400000Y-30200000D03*
X80600000Y-30400000D03*
X83000000Y-37700000D03*
X81100000Y-38800000D03*
X62100000Y-49800000D03*
X60000000Y-49600000D03*
X64000000Y-42000000D03*
X62000000Y-40900000D03*
X36400000Y-48500000D03*
X38000000Y-49800000D03*
X43300000Y-44300000D03*
X42300000Y-41900000D03*
X16600000Y-35800000D03*
X17200000Y-37800000D03*
X24700000Y-35600000D03*
X24900000Y-33500000D03*
X14100000Y-17000000D03*
X13000000Y-19000000D03*
X5100000Y-17100000D03*
X5400000Y-15000000D03*
X5200000Y7000000D03*
X6700000Y8500000D03*
X12900000Y2700000D03*
X11200000Y1600000D03*
X21800000Y20300000D03*
X19300000Y20400000D03*
X19100000Y28500000D03*
X17100000Y27800000D03*
X35900000Y32300000D03*
X38300000Y30900000D03*
X39900000Y40000000D03*
X37900000Y39900000D03*
D16*
X58100000Y36100000D02*
X56100000Y36700000D01*
D17*
X78751061Y25551063D02*
X76351061Y27951063D01*
D16*
X89600000Y8700000D02*
X89200000Y10300000D01*
X91300000Y-13000000D02*
X91700000Y-11400000D01*
X81600000Y-32600000D02*
X83000000Y-31200000D01*
X63400000Y-44600000D02*
X65400000Y-44100000D01*
X41900000Y-46100000D02*
X43700000Y-46600000D01*
X22600000Y-36500000D02*
X23800000Y-37700000D01*
X10200000Y-18300000D02*
X10600000Y-20300000D01*
X9000000Y3400000D02*
X8400000Y1300000D01*
X18300000Y22700000D02*
X17100000Y21400000D01*
X36500000Y35000000D02*
X34500000Y34400000D01*
X1600000Y-34400000D02*
X-700000Y-35800000D01*
X42600000Y-8800000D02*
X22900000Y-21200000D01*
X26300000Y-20300000D02*
X23600000Y-22300000D01*
X2300000Y-35300000D02*
X0Y-36800000D01*
X90500000Y800000D02*
X111794807Y-10040000D01*
X80710000Y24030000D02*
X82450000Y20550000D01*
X17900000Y-30400000D02*
X-6079756Y-31439756D01*
X62200000Y35400000D02*
X65200000Y32900000D01*
X65200000Y32900000D02*
X85459123Y45859123D01*
X75300000Y-37300000D02*
X76683967Y-60963967D01*
X40300000Y36100000D02*
X44500000Y35500000D01*
X34800000Y-43400000D02*
X14700180Y-55969820D01*
X24800000Y27100000D02*
X23614633Y51105367D01*
X87900000Y-20200000D02*
X101035212Y-40205212D01*
X12300000Y10200000D02*
X-904274Y30394274D01*
X9600000Y7100000D02*
X12300000Y10200000D01*
X90500000Y800000D02*
X91100000Y4800000D01*
X82450000Y20550000D02*
X106114959Y21364959D01*
X9500000Y-10800000D02*
X-11794808Y40000D01*
X17900000Y-30400000D02*
X19400000Y-34000000D01*
X55900000Y-45900000D02*
X59800000Y-46200000D01*
X55900000Y-45900000D02*
X45170000Y-66811576D01*
X21000000Y25700000D02*
X24800000Y27100000D01*
D18*
X9000000Y-14700000D02*
X9500000Y-10800000D01*
D16*
X87900000Y-20200000D02*
X90400000Y-17100000D01*
X44500000Y35500000D02*
X55030000Y56795622D01*
X34800000Y-43400000D02*
X37900000Y-45400000D01*
X75300000Y-37300000D02*
X79000000Y-35900000D01*
X38726402Y55966433D02*
G75*
G02*
X97073909Y35349065I11273598J-60966433D01*
G01*
X61498008Y-65924509D02*
G75*
G02*
X29185093Y-63401538I-11498008J60924509D01*
G01*
X2926091Y-45349065D02*
G75*
G02*
X-11988006Y-3780564I47073909J40349065D01*
G01*
X29185093Y-63401538D02*
G75*
G02*
X2926091Y-45349065I20814907J58401538D01*
G01*
X19700399Y49091905D02*
G75*
G02*
X38726402Y55966433I30299601J-54091905D01*
G01*
X110931235Y6462312D02*
G75*
G02*
X108476579Y-25603147I-60931235J-11462312D01*
G01*
X-3102694Y27001623D02*
G75*
G02*
X19700399Y49091905I53102694J-32001623D01*
G01*
X108476579Y-25603147D02*
G75*
G02*
X90175955Y-52221739I-58476579J20603147D01*
G01*
X-11988007Y-3780564D02*
G75*
G02*
X-3102694Y27001623I61988007J-1219436D01*
G01*
X97073909Y35349065D02*
G75*
G02*
X110931235Y6462312I-47073909J-40349065D01*
G01*
X90175955Y-52221739D02*
G75*
G02*
X61498008Y-65924509I-40175955J47221739D01*
G01*
D18*
X54900000Y25700000D02*
X54823529Y-900000D01*
D16*
X68896129Y19603871D02*
X54823529Y-900000D01*
X43600000Y-2500000D02*
X19200000Y800000D01*
X20700000Y-15900000D02*
X22900000Y-14400000D01*
X42600000Y800000D02*
X24700000Y15100000D01*
X38800000Y21100000D02*
X38400000Y24200000D01*
X56970000Y-3710000D02*
X80000000Y5600000D01*
X56970000Y-3710000D02*
X81000000Y-10500000D01*
X81200000Y-9500000D02*
X77490000Y-8600000D01*
X56790000Y-2820000D02*
X79800000Y6500000D01*
X74300000Y-24700000D02*
X56820000Y-4690000D01*
X62500000Y-34000000D02*
X61680000Y-30480000D01*
X39300000Y24600000D02*
X44400000Y1000000D01*
X25500000Y15800000D02*
X44400000Y1000000D01*
X69500000Y19000000D02*
X55670000Y-1160000D01*
D18*
X55800000Y25500000D02*
X55690000Y22410000D01*
D16*
X20900000Y-16700000D02*
X44100000Y-3500000D01*
X19200000Y-100000D02*
X44100000Y-3500000D01*
X30100000Y-29300000D02*
X32700000Y-26800000D01*
X45000000Y-36400000D02*
X46200000Y-33000000D01*
X46100000Y-36600000D02*
X56400000Y-10700000D01*
X56400000Y-10700000D02*
X30800000Y-29900000D01*
X56250000Y-5340000D02*
X73700000Y-25400000D01*
X61500000Y-34400000D02*
X56250000Y-5340000D01*
X63600000Y38500000D02*
X62000000Y39900000D01*
X57900000Y31800000D02*
X56700000Y34500000D01*
D18*
X75200000Y25570000D02*
X75200000Y22780000D01*
X75200000Y22780000D02*
X75190000Y22770000D01*
D16*
X82800000Y27800000D02*
X83700000Y26000000D01*
X85900000Y6800000D02*
X86900000Y8700000D01*
X94500000Y5000000D02*
X94800000Y7100000D01*
X87000000Y-12600000D02*
X89100000Y-11600000D01*
X93600000Y-18700000D02*
X95000000Y-16900000D01*
X78400000Y-30200000D02*
X80600000Y-30400000D01*
X81100000Y-38800000D02*
X83000000Y-37700000D01*
X60000000Y-49600000D02*
X62100000Y-49800000D01*
X62000000Y-40900000D02*
X64000000Y-42000000D01*
X36400000Y-48500000D02*
X38000000Y-49800000D01*
X42300000Y-41900000D02*
X43300000Y-44300000D01*
X16600000Y-35800000D02*
X17200000Y-37800000D01*
X24900000Y-33500000D02*
X24700000Y-35600000D01*
X14100000Y-17000000D02*
X13000000Y-19000000D01*
X5400000Y-15000000D02*
X5100000Y-17100000D01*
X6700000Y8500000D02*
X5200000Y7000000D01*
X12900000Y2700000D02*
X11200000Y1600000D01*
X21800000Y20300000D02*
X19300000Y20400000D01*
X19100000Y28500000D02*
X17100000Y27800000D01*
X38300000Y30900000D02*
X35900000Y32300000D01*
X37900000Y39900000D02*
X39900000Y40000000D01*
M02*
