G04 #@! TF.GenerationSoftware,KiCad,Pcbnew,9.0.7*
G04 #@! TF.CreationDate,2026-04-04T13:25:15+02:00*
G04 #@! TF.ProjectId,Prime_Maxel-v3,5072696d-655f-44d6-9178-656c2d76332e,rev?*
G04 #@! TF.SameCoordinates,Original*
G04 #@! TF.FileFunction,Soldermask,Bot*
G04 #@! TF.FilePolarity,Negative*
%FSLAX46Y46*%
G04 Gerber Fmt 4.6, Leading zero omitted, Abs format (unit mm)*
G04 Created by KiCad (PCBNEW 9.0.7) date 2026-04-04 13:25:15*
%MOMM*%
%LPD*%
G01*
G04 APERTURE LIST*
G04 APERTURE END LIST*
G36*
X50118894Y-70355086D02*
G01*
X50129458Y-70355086D01*
X50181477Y-70363325D01*
X50321877Y-70381809D01*
X50356138Y-70390989D01*
X50385185Y-70395590D01*
X50441045Y-70413740D01*
X50530338Y-70437666D01*
X50587309Y-70461264D01*
X50631428Y-70475599D01*
X50672755Y-70496656D01*
X50729733Y-70520257D01*
X50809803Y-70566485D01*
X50862123Y-70593144D01*
X50885909Y-70610425D01*
X50916624Y-70628159D01*
X51028975Y-70714369D01*
X51071589Y-70745330D01*
X51079058Y-70752799D01*
X51087848Y-70759544D01*
X51240455Y-70912151D01*
X51247199Y-70920940D01*
X51254670Y-70928411D01*
X51285634Y-70971030D01*
X51371840Y-71083375D01*
X51389572Y-71114087D01*
X51406856Y-71137877D01*
X51433517Y-71190203D01*
X51479742Y-71270266D01*
X51503340Y-71327237D01*
X51524401Y-71368572D01*
X51538738Y-71412696D01*
X51562333Y-71469661D01*
X51586255Y-71558941D01*
X51604410Y-71614815D01*
X51609011Y-71643867D01*
X51618190Y-71678122D01*
X51636673Y-71818514D01*
X51644914Y-71870542D01*
X51644914Y-71881105D01*
X51646360Y-71892089D01*
X51646360Y-72107910D01*
X51644914Y-72118893D01*
X51644914Y-72129458D01*
X51636672Y-72181490D01*
X51618190Y-72321877D01*
X51609011Y-72356129D01*
X51604410Y-72385185D01*
X51586254Y-72441063D01*
X51562333Y-72530338D01*
X51538739Y-72587298D01*
X51524401Y-72631428D01*
X51503337Y-72672766D01*
X51479742Y-72729733D01*
X51433521Y-72809788D01*
X51406856Y-72862123D01*
X51389569Y-72885916D01*
X51371840Y-72916624D01*
X51285648Y-73028950D01*
X51254670Y-73071589D01*
X51247195Y-73079063D01*
X51240455Y-73087848D01*
X51087848Y-73240455D01*
X51079063Y-73247195D01*
X51071589Y-73254670D01*
X51028950Y-73285648D01*
X50916624Y-73371840D01*
X50885916Y-73389569D01*
X50862123Y-73406856D01*
X50809788Y-73433521D01*
X50729733Y-73479742D01*
X50672766Y-73503337D01*
X50631428Y-73524401D01*
X50587298Y-73538739D01*
X50530338Y-73562333D01*
X50441063Y-73586254D01*
X50385185Y-73604410D01*
X50356129Y-73609011D01*
X50321877Y-73618190D01*
X50181490Y-73636672D01*
X50129458Y-73644914D01*
X50118893Y-73644914D01*
X50107910Y-73646360D01*
X49892090Y-73646360D01*
X49881107Y-73644914D01*
X49870542Y-73644914D01*
X49818511Y-73636672D01*
X49678122Y-73618190D01*
X49643867Y-73609011D01*
X49614815Y-73604410D01*
X49558941Y-73586255D01*
X49469661Y-73562333D01*
X49412696Y-73538738D01*
X49368572Y-73524401D01*
X49327237Y-73503340D01*
X49270266Y-73479742D01*
X49190203Y-73433517D01*
X49137877Y-73406856D01*
X49114087Y-73389572D01*
X49083375Y-73371840D01*
X48971030Y-73285634D01*
X48928411Y-73254670D01*
X48920940Y-73247199D01*
X48912151Y-73240455D01*
X48759544Y-73087848D01*
X48752799Y-73079058D01*
X48745330Y-73071589D01*
X48714369Y-73028975D01*
X48628159Y-72916624D01*
X48610425Y-72885909D01*
X48593144Y-72862123D01*
X48566485Y-72809803D01*
X48520257Y-72729733D01*
X48496656Y-72672755D01*
X48475599Y-72631428D01*
X48461264Y-72587309D01*
X48437666Y-72530338D01*
X48413740Y-72441045D01*
X48395590Y-72385185D01*
X48390989Y-72356138D01*
X48381809Y-72321877D01*
X48363325Y-72181477D01*
X48355086Y-72129458D01*
X48355086Y-72118893D01*
X48353640Y-72107910D01*
X48353640Y-71892089D01*
X48355086Y-71881105D01*
X48355086Y-71870542D01*
X48363324Y-71818527D01*
X48381809Y-71678122D01*
X48390989Y-71643858D01*
X48395590Y-71614815D01*
X48413738Y-71558959D01*
X48437666Y-71469661D01*
X48461265Y-71412685D01*
X48475599Y-71368572D01*
X48496654Y-71327248D01*
X48520257Y-71270266D01*
X48566489Y-71190188D01*
X48593144Y-71137877D01*
X48610423Y-71114094D01*
X48628159Y-71083375D01*
X48714383Y-70971005D01*
X48745330Y-70928411D01*
X48752796Y-70920944D01*
X48759544Y-70912151D01*
X48912151Y-70759544D01*
X48920944Y-70752796D01*
X48928411Y-70745330D01*
X48971005Y-70714383D01*
X49083375Y-70628159D01*
X49114094Y-70610423D01*
X49137877Y-70593144D01*
X49190188Y-70566489D01*
X49270266Y-70520257D01*
X49327248Y-70496654D01*
X49368572Y-70475599D01*
X49412685Y-70461265D01*
X49469661Y-70437666D01*
X49558959Y-70413738D01*
X49614815Y-70395590D01*
X49643858Y-70390989D01*
X49678122Y-70381809D01*
X49818524Y-70363324D01*
X49870542Y-70355086D01*
X49881106Y-70355086D01*
X49892090Y-70353640D01*
X50107910Y-70353640D01*
X50118894Y-70355086D01*
G37*
G36*
X-7276129Y-66778190D02*
G01*
X-7198447Y-66781242D01*
X-7191448Y-66782350D01*
X-7176886Y-66783066D01*
X-7137637Y-66790873D01*
X-7034456Y-66807215D01*
X-7001269Y-66817998D01*
X-6974621Y-66823299D01*
X-6937015Y-66838876D01*
X-6877478Y-66858221D01*
X-6821704Y-66886639D01*
X-6784091Y-66902219D01*
X-6761496Y-66917316D01*
X-6730411Y-66933155D01*
X-6645918Y-66994543D01*
X-6612618Y-67016793D01*
X-6605511Y-67023900D01*
X-6596884Y-67030168D01*
X-6480169Y-67146883D01*
X-6473902Y-67155509D01*
X-6466793Y-67162618D01*
X-6444541Y-67195922D01*
X-6383156Y-67280410D01*
X-6367319Y-67311492D01*
X-6352219Y-67334091D01*
X-6336638Y-67371708D01*
X-6308222Y-67427477D01*
X-6288880Y-67487006D01*
X-6273299Y-67524621D01*
X-6267998Y-67551273D01*
X-6257216Y-67584455D01*
X-6240876Y-67687627D01*
X-6233066Y-67726886D01*
X-6233066Y-67736931D01*
X-6231397Y-67747469D01*
X-6231397Y-67912530D01*
X-6233066Y-67923067D01*
X-6233066Y-67933114D01*
X-6240876Y-67972376D01*
X-6257216Y-68075544D01*
X-6267997Y-68108723D01*
X-6273299Y-68135379D01*
X-6288881Y-68172997D01*
X-6308222Y-68232522D01*
X-6336636Y-68288286D01*
X-6352219Y-68325909D01*
X-6367321Y-68348510D01*
X-6383156Y-68379589D01*
X-6444532Y-68464065D01*
X-6466793Y-68497382D01*
X-6473905Y-68504493D01*
X-6480169Y-68513116D01*
X-6596884Y-68629831D01*
X-6605507Y-68636095D01*
X-6612618Y-68643207D01*
X-6645935Y-68665468D01*
X-6730411Y-68726844D01*
X-6761490Y-68742679D01*
X-6784091Y-68757781D01*
X-6821714Y-68773364D01*
X-6877478Y-68801778D01*
X-6937003Y-68821119D01*
X-6974621Y-68836701D01*
X-7001277Y-68842003D01*
X-7034456Y-68852784D01*
X-7137612Y-68869121D01*
X-7176886Y-68876934D01*
X-7191457Y-68877649D01*
X-7198447Y-68878757D01*
X-7276123Y-68881809D01*
X-7280000Y-68882000D01*
X-7280970Y-68882000D01*
X-9179030Y-68882000D01*
X-9180000Y-68882000D01*
X-9183877Y-68881809D01*
X-9261554Y-68878757D01*
X-9268545Y-68877649D01*
X-9283114Y-68876934D01*
X-9322385Y-68869122D01*
X-9425545Y-68852784D01*
X-9458727Y-68842002D01*
X-9485379Y-68836701D01*
X-9522994Y-68821120D01*
X-9582523Y-68801778D01*
X-9638292Y-68773362D01*
X-9675909Y-68757781D01*
X-9698508Y-68742681D01*
X-9729590Y-68726844D01*
X-9814078Y-68665459D01*
X-9847382Y-68643207D01*
X-9854491Y-68636098D01*
X-9863117Y-68629831D01*
X-9979832Y-68513116D01*
X-9986100Y-68504489D01*
X-9993207Y-68497382D01*
X-10015457Y-68464082D01*
X-10076845Y-68379589D01*
X-10092684Y-68348504D01*
X-10107781Y-68325909D01*
X-10123361Y-68288296D01*
X-10151779Y-68232522D01*
X-10171124Y-68172985D01*
X-10186701Y-68135379D01*
X-10192002Y-68108731D01*
X-10202785Y-68075544D01*
X-10219126Y-67972367D01*
X-10226934Y-67933114D01*
X-10226934Y-67923068D01*
X-10228603Y-67912530D01*
X-10228603Y-67747469D01*
X-10226934Y-67736930D01*
X-10226934Y-67726886D01*
X-10219127Y-67687636D01*
X-10202785Y-67584455D01*
X-10192001Y-67551265D01*
X-10186701Y-67524621D01*
X-10171126Y-67487017D01*
X-10151779Y-67427477D01*
X-10123359Y-67371697D01*
X-10107781Y-67334091D01*
X-10092686Y-67311498D01*
X-10076845Y-67280410D01*
X-10015449Y-67195904D01*
X-9993207Y-67162618D01*
X-9986103Y-67155513D01*
X-9979832Y-67146883D01*
X-9863117Y-67030168D01*
X-9854487Y-67023897D01*
X-9847382Y-67016793D01*
X-9814096Y-66994551D01*
X-9729590Y-66933155D01*
X-9698502Y-66917314D01*
X-9675909Y-66902219D01*
X-9638303Y-66886641D01*
X-9582523Y-66858221D01*
X-9522983Y-66838874D01*
X-9485379Y-66823299D01*
X-9458735Y-66817999D01*
X-9425545Y-66807215D01*
X-9322360Y-66790872D01*
X-9283114Y-66783066D01*
X-9268555Y-66782350D01*
X-9261554Y-66781242D01*
X-9183871Y-66778190D01*
X-9180000Y-66778000D01*
X-7280000Y-66778000D01*
X-7276129Y-66778190D01*
G37*
G36*
X-3406932Y-63503066D02*
G01*
X-3396886Y-63503066D01*
X-3357633Y-63510874D01*
X-3254456Y-63527215D01*
X-3221269Y-63537998D01*
X-3194621Y-63543299D01*
X-3157015Y-63558876D01*
X-3097478Y-63578221D01*
X-3041704Y-63606639D01*
X-3004091Y-63622219D01*
X-2981496Y-63637316D01*
X-2950411Y-63653155D01*
X-2865918Y-63714543D01*
X-2832618Y-63736793D01*
X-2825511Y-63743900D01*
X-2816884Y-63750168D01*
X-2700169Y-63866883D01*
X-2693902Y-63875509D01*
X-2686793Y-63882618D01*
X-2664541Y-63915922D01*
X-2603156Y-64000410D01*
X-2587319Y-64031492D01*
X-2572219Y-64054091D01*
X-2556638Y-64091708D01*
X-2528222Y-64147477D01*
X-2508880Y-64207006D01*
X-2493299Y-64244621D01*
X-2487998Y-64271273D01*
X-2477216Y-64304455D01*
X-2460878Y-64407615D01*
X-2453066Y-64446886D01*
X-2452351Y-64461455D01*
X-2451243Y-64468446D01*
X-2448191Y-64546123D01*
X-2448000Y-64550000D01*
X-2448000Y-66450000D01*
X-2448191Y-66453880D01*
X-2451243Y-66531553D01*
X-2452351Y-66538543D01*
X-2453066Y-66553114D01*
X-2460879Y-66592388D01*
X-2477216Y-66695544D01*
X-2487997Y-66728723D01*
X-2493299Y-66755379D01*
X-2508881Y-66792997D01*
X-2528222Y-66852522D01*
X-2556636Y-66908286D01*
X-2572219Y-66945909D01*
X-2587321Y-66968510D01*
X-2603156Y-66999589D01*
X-2664532Y-67084065D01*
X-2686793Y-67117382D01*
X-2693905Y-67124493D01*
X-2700169Y-67133116D01*
X-2816884Y-67249831D01*
X-2825507Y-67256095D01*
X-2832618Y-67263207D01*
X-2865935Y-67285468D01*
X-2950411Y-67346844D01*
X-2981490Y-67362679D01*
X-3004091Y-67377781D01*
X-3041714Y-67393364D01*
X-3097478Y-67421778D01*
X-3157003Y-67441119D01*
X-3194621Y-67456701D01*
X-3221277Y-67462003D01*
X-3254456Y-67472784D01*
X-3357624Y-67489124D01*
X-3396886Y-67496934D01*
X-3406932Y-67496934D01*
X-3417470Y-67498603D01*
X-3582530Y-67498603D01*
X-3593068Y-67496934D01*
X-3603114Y-67496934D01*
X-3642376Y-67489124D01*
X-3745545Y-67472784D01*
X-3778727Y-67462002D01*
X-3805379Y-67456701D01*
X-3842994Y-67441120D01*
X-3902523Y-67421778D01*
X-3958292Y-67393362D01*
X-3995909Y-67377781D01*
X-4018508Y-67362681D01*
X-4049590Y-67346844D01*
X-4134078Y-67285459D01*
X-4167382Y-67263207D01*
X-4174491Y-67256098D01*
X-4183117Y-67249831D01*
X-4299832Y-67133116D01*
X-4306100Y-67124489D01*
X-4313207Y-67117382D01*
X-4335457Y-67084082D01*
X-4396845Y-66999589D01*
X-4412684Y-66968504D01*
X-4427781Y-66945909D01*
X-4443361Y-66908296D01*
X-4471779Y-66852522D01*
X-4491124Y-66792985D01*
X-4506701Y-66755379D01*
X-4512002Y-66728731D01*
X-4522785Y-66695544D01*
X-4539127Y-66592363D01*
X-4546934Y-66553114D01*
X-4547650Y-66538552D01*
X-4548758Y-66531553D01*
X-4551810Y-66453874D01*
X-4552000Y-66450000D01*
X-4552000Y-64550000D01*
X-4551810Y-64546129D01*
X-4548758Y-64468446D01*
X-4547650Y-64461445D01*
X-4546934Y-64446886D01*
X-4539128Y-64407640D01*
X-4522785Y-64304455D01*
X-4512001Y-64271265D01*
X-4506701Y-64244621D01*
X-4491126Y-64207017D01*
X-4471779Y-64147477D01*
X-4443359Y-64091697D01*
X-4427781Y-64054091D01*
X-4412686Y-64031498D01*
X-4396845Y-64000410D01*
X-4335449Y-63915904D01*
X-4313207Y-63882618D01*
X-4306103Y-63875513D01*
X-4299832Y-63866883D01*
X-4183117Y-63750168D01*
X-4174487Y-63743897D01*
X-4167382Y-63736793D01*
X-4134096Y-63714551D01*
X-4049590Y-63653155D01*
X-4018502Y-63637314D01*
X-3995909Y-63622219D01*
X-3958303Y-63606641D01*
X-3902523Y-63578221D01*
X-3842983Y-63558874D01*
X-3805379Y-63543299D01*
X-3778735Y-63537999D01*
X-3745545Y-63527215D01*
X-3642367Y-63510873D01*
X-3603114Y-63503066D01*
X-3593068Y-63503066D01*
X-3582530Y-63501397D01*
X-3417470Y-63501397D01*
X-3406932Y-63503066D01*
G37*
G36*
X-7276129Y-60848190D02*
G01*
X-7198447Y-60851242D01*
X-7191448Y-60852350D01*
X-7176886Y-60853066D01*
X-7137637Y-60860873D01*
X-7034456Y-60877215D01*
X-7001269Y-60887998D01*
X-6974621Y-60893299D01*
X-6937015Y-60908876D01*
X-6877478Y-60928221D01*
X-6821704Y-60956639D01*
X-6784091Y-60972219D01*
X-6761496Y-60987316D01*
X-6730411Y-61003155D01*
X-6645918Y-61064543D01*
X-6612618Y-61086793D01*
X-6605511Y-61093900D01*
X-6596884Y-61100168D01*
X-6480169Y-61216883D01*
X-6473902Y-61225509D01*
X-6466793Y-61232618D01*
X-6444541Y-61265922D01*
X-6383156Y-61350410D01*
X-6367319Y-61381492D01*
X-6352219Y-61404091D01*
X-6336638Y-61441708D01*
X-6308222Y-61497477D01*
X-6288880Y-61557006D01*
X-6273299Y-61594621D01*
X-6267998Y-61621273D01*
X-6257216Y-61654455D01*
X-6240876Y-61757627D01*
X-6233066Y-61796886D01*
X-6233066Y-61806931D01*
X-6231397Y-61817469D01*
X-6231397Y-61982530D01*
X-6233066Y-61993067D01*
X-6233066Y-62003114D01*
X-6240876Y-62042376D01*
X-6257216Y-62145544D01*
X-6267997Y-62178723D01*
X-6273299Y-62205379D01*
X-6288881Y-62242997D01*
X-6308222Y-62302522D01*
X-6336636Y-62358286D01*
X-6352219Y-62395909D01*
X-6367321Y-62418510D01*
X-6383156Y-62449589D01*
X-6444532Y-62534065D01*
X-6466793Y-62567382D01*
X-6473905Y-62574493D01*
X-6480169Y-62583116D01*
X-6596884Y-62699831D01*
X-6605507Y-62706095D01*
X-6612618Y-62713207D01*
X-6645935Y-62735468D01*
X-6730411Y-62796844D01*
X-6761490Y-62812679D01*
X-6784091Y-62827781D01*
X-6821714Y-62843364D01*
X-6877478Y-62871778D01*
X-6937003Y-62891119D01*
X-6974621Y-62906701D01*
X-7001277Y-62912003D01*
X-7034456Y-62922784D01*
X-7137612Y-62939121D01*
X-7176886Y-62946934D01*
X-7191457Y-62947649D01*
X-7198447Y-62948757D01*
X-7276123Y-62951809D01*
X-7280000Y-62952000D01*
X-7280970Y-62952000D01*
X-9179030Y-62952000D01*
X-9180000Y-62952000D01*
X-9183877Y-62951809D01*
X-9261554Y-62948757D01*
X-9268545Y-62947649D01*
X-9283114Y-62946934D01*
X-9322385Y-62939122D01*
X-9425545Y-62922784D01*
X-9458727Y-62912002D01*
X-9485379Y-62906701D01*
X-9522994Y-62891120D01*
X-9582523Y-62871778D01*
X-9638292Y-62843362D01*
X-9675909Y-62827781D01*
X-9698508Y-62812681D01*
X-9729590Y-62796844D01*
X-9814078Y-62735459D01*
X-9847382Y-62713207D01*
X-9854491Y-62706098D01*
X-9863117Y-62699831D01*
X-9979832Y-62583116D01*
X-9986100Y-62574489D01*
X-9993207Y-62567382D01*
X-10015457Y-62534082D01*
X-10076845Y-62449589D01*
X-10092684Y-62418504D01*
X-10107781Y-62395909D01*
X-10123361Y-62358296D01*
X-10151779Y-62302522D01*
X-10171124Y-62242985D01*
X-10186701Y-62205379D01*
X-10192002Y-62178731D01*
X-10202785Y-62145544D01*
X-10219126Y-62042367D01*
X-10226934Y-62003114D01*
X-10226934Y-61993068D01*
X-10228603Y-61982530D01*
X-10228603Y-61817469D01*
X-10226934Y-61806930D01*
X-10226934Y-61796886D01*
X-10219127Y-61757636D01*
X-10202785Y-61654455D01*
X-10192001Y-61621265D01*
X-10186701Y-61594621D01*
X-10171126Y-61557017D01*
X-10151779Y-61497477D01*
X-10123359Y-61441697D01*
X-10107781Y-61404091D01*
X-10092686Y-61381498D01*
X-10076845Y-61350410D01*
X-10015449Y-61265904D01*
X-9993207Y-61232618D01*
X-9986103Y-61225513D01*
X-9979832Y-61216883D01*
X-9863117Y-61100168D01*
X-9854487Y-61093897D01*
X-9847382Y-61086793D01*
X-9814096Y-61064551D01*
X-9729590Y-61003155D01*
X-9698502Y-60987314D01*
X-9675909Y-60972219D01*
X-9638303Y-60956641D01*
X-9582523Y-60928221D01*
X-9522983Y-60908874D01*
X-9485379Y-60893299D01*
X-9458735Y-60887999D01*
X-9425545Y-60877215D01*
X-9322360Y-60860872D01*
X-9283114Y-60853066D01*
X-9268555Y-60852350D01*
X-9261554Y-60851242D01*
X-9183871Y-60848190D01*
X-9180000Y-60848000D01*
X-7280000Y-60848000D01*
X-7276129Y-60848190D01*
G37*
G36*
X-69680866Y-59164806D02*
G01*
X-69664645Y-59175645D01*
X-69653806Y-59191866D01*
X-69650000Y-59211000D01*
X-69650000Y-60911000D01*
X-69653806Y-60930134D01*
X-69664645Y-60946355D01*
X-69680866Y-60957194D01*
X-69700000Y-60961000D01*
X-71400000Y-60961000D01*
X-71419134Y-60957194D01*
X-71435355Y-60946355D01*
X-71446194Y-60930134D01*
X-71450000Y-60911000D01*
X-71450000Y-59211000D01*
X-71446194Y-59191866D01*
X-71435355Y-59175645D01*
X-71419134Y-59164806D01*
X-71400000Y-59161000D01*
X-69700000Y-59161000D01*
X-69680866Y-59164806D01*
G37*
G36*
X-70288744Y-56659754D02*
G01*
X-70125743Y-56727271D01*
X-69979046Y-56825291D01*
X-69854291Y-56950046D01*
X-69756271Y-57096743D01*
X-69688754Y-57259744D01*
X-69654334Y-57432785D01*
X-69654334Y-57609215D01*
X-69688754Y-57782256D01*
X-69756271Y-57945257D01*
X-69854291Y-58091954D01*
X-69979046Y-58216709D01*
X-70125743Y-58314729D01*
X-70288744Y-58382246D01*
X-70461785Y-58416666D01*
X-70638215Y-58416666D01*
X-70811256Y-58382246D01*
X-70974257Y-58314729D01*
X-71120954Y-58216709D01*
X-71245709Y-58091954D01*
X-71343729Y-57945257D01*
X-71411246Y-57782256D01*
X-71445666Y-57609215D01*
X-71445666Y-57432785D01*
X-71411246Y-57259744D01*
X-71343729Y-57096743D01*
X-71245709Y-56950046D01*
X-71120954Y-56825291D01*
X-70974257Y-56727271D01*
X-70811256Y-56659754D01*
X-70638215Y-56625334D01*
X-70461785Y-56625334D01*
X-70288744Y-56659754D01*
G37*
G36*
X-70288744Y-54119754D02*
G01*
X-70125743Y-54187271D01*
X-69979046Y-54285291D01*
X-69854291Y-54410046D01*
X-69756271Y-54556743D01*
X-69688754Y-54719744D01*
X-69654334Y-54892785D01*
X-69654334Y-55069215D01*
X-69688754Y-55242256D01*
X-69756271Y-55405257D01*
X-69854291Y-55551954D01*
X-69979046Y-55676709D01*
X-70125743Y-55774729D01*
X-70288744Y-55842246D01*
X-70461785Y-55876666D01*
X-70638215Y-55876666D01*
X-70811256Y-55842246D01*
X-70974257Y-55774729D01*
X-71120954Y-55676709D01*
X-71245709Y-55551954D01*
X-71343729Y-55405257D01*
X-71411246Y-55242256D01*
X-71445666Y-55069215D01*
X-71445666Y-54892785D01*
X-71411246Y-54719744D01*
X-71343729Y-54556743D01*
X-71245709Y-54410046D01*
X-71120954Y-54285291D01*
X-70974257Y-54187271D01*
X-70811256Y-54119754D01*
X-70638215Y-54085334D01*
X-70461785Y-54085334D01*
X-70288744Y-54119754D01*
G37*
G36*
X-70288744Y-51579754D02*
G01*
X-70125743Y-51647271D01*
X-69979046Y-51745291D01*
X-69854291Y-51870046D01*
X-69756271Y-52016743D01*
X-69688754Y-52179744D01*
X-69654334Y-52352785D01*
X-69654334Y-52529215D01*
X-69688754Y-52702256D01*
X-69756271Y-52865257D01*
X-69854291Y-53011954D01*
X-69979046Y-53136709D01*
X-70125743Y-53234729D01*
X-70288744Y-53302246D01*
X-70461785Y-53336666D01*
X-70638215Y-53336666D01*
X-70811256Y-53302246D01*
X-70974257Y-53234729D01*
X-71120954Y-53136709D01*
X-71245709Y-53011954D01*
X-71343729Y-52865257D01*
X-71411246Y-52702256D01*
X-71445666Y-52529215D01*
X-71445666Y-52352785D01*
X-71411246Y-52179744D01*
X-71343729Y-52016743D01*
X-71245709Y-51870046D01*
X-71120954Y-51745291D01*
X-70974257Y-51647271D01*
X-70811256Y-51579754D01*
X-70638215Y-51545334D01*
X-70461785Y-51545334D01*
X-70288744Y-51579754D01*
G37*
G36*
X-21420866Y-50020806D02*
G01*
X-21404645Y-50031645D01*
X-21393806Y-50047866D01*
X-21390000Y-50067000D01*
X-21390000Y-51767000D01*
X-21393806Y-51786134D01*
X-21404645Y-51802355D01*
X-21420866Y-51813194D01*
X-21440000Y-51817000D01*
X-23140000Y-51817000D01*
X-23159134Y-51813194D01*
X-23175355Y-51802355D01*
X-23186194Y-51786134D01*
X-23190000Y-51767000D01*
X-23190000Y-50067000D01*
X-23186194Y-50047866D01*
X-23175355Y-50031645D01*
X-23159134Y-50020806D01*
X-23140000Y-50017000D01*
X-21440000Y-50017000D01*
X-21420866Y-50020806D01*
G37*
G36*
X-70288744Y-49039754D02*
G01*
X-70125743Y-49107271D01*
X-69979046Y-49205291D01*
X-69854291Y-49330046D01*
X-69756271Y-49476743D01*
X-69688754Y-49639744D01*
X-69654334Y-49812785D01*
X-69654334Y-49989215D01*
X-69688754Y-50162256D01*
X-69756271Y-50325257D01*
X-69854291Y-50471954D01*
X-69979046Y-50596709D01*
X-70125743Y-50694729D01*
X-70288744Y-50762246D01*
X-70461785Y-50796666D01*
X-70638215Y-50796666D01*
X-70811256Y-50762246D01*
X-70974257Y-50694729D01*
X-71120954Y-50596709D01*
X-71245709Y-50471954D01*
X-71343729Y-50325257D01*
X-71411246Y-50162256D01*
X-71445666Y-49989215D01*
X-71445666Y-49812785D01*
X-71411246Y-49639744D01*
X-71343729Y-49476743D01*
X-71245709Y-49330046D01*
X-71120954Y-49205291D01*
X-70974257Y-49107271D01*
X-70811256Y-49039754D01*
X-70638215Y-49005334D01*
X-70461785Y-49005334D01*
X-70288744Y-49039754D01*
G37*
G36*
X-22028744Y-47515754D02*
G01*
X-21865743Y-47583271D01*
X-21719046Y-47681291D01*
X-21594291Y-47806046D01*
X-21496271Y-47952743D01*
X-21428754Y-48115744D01*
X-21394334Y-48288785D01*
X-21394334Y-48465215D01*
X-21428754Y-48638256D01*
X-21496271Y-48801257D01*
X-21594291Y-48947954D01*
X-21719046Y-49072709D01*
X-21865743Y-49170729D01*
X-22028744Y-49238246D01*
X-22201785Y-49272666D01*
X-22378215Y-49272666D01*
X-22551256Y-49238246D01*
X-22714257Y-49170729D01*
X-22860954Y-49072709D01*
X-22985709Y-48947954D01*
X-23083729Y-48801257D01*
X-23151246Y-48638256D01*
X-23185666Y-48465215D01*
X-23185666Y-48288785D01*
X-23151246Y-48115744D01*
X-23083729Y-47952743D01*
X-22985709Y-47806046D01*
X-22860954Y-47681291D01*
X-22714257Y-47583271D01*
X-22551256Y-47515754D01*
X-22378215Y-47481334D01*
X-22201785Y-47481334D01*
X-22028744Y-47515754D01*
G37*
G36*
X-70288744Y-46499754D02*
G01*
X-70125743Y-46567271D01*
X-69979046Y-46665291D01*
X-69854291Y-46790046D01*
X-69756271Y-46936743D01*
X-69688754Y-47099744D01*
X-69654334Y-47272785D01*
X-69654334Y-47449215D01*
X-69688754Y-47622256D01*
X-69756271Y-47785257D01*
X-69854291Y-47931954D01*
X-69979046Y-48056709D01*
X-70125743Y-48154729D01*
X-70288744Y-48222246D01*
X-70461785Y-48256666D01*
X-70638215Y-48256666D01*
X-70811256Y-48222246D01*
X-70974257Y-48154729D01*
X-71120954Y-48056709D01*
X-71245709Y-47931954D01*
X-71343729Y-47785257D01*
X-71411246Y-47622256D01*
X-71445666Y-47449215D01*
X-71445666Y-47272785D01*
X-71411246Y-47099744D01*
X-71343729Y-46936743D01*
X-71245709Y-46790046D01*
X-71120954Y-46665291D01*
X-70974257Y-46567271D01*
X-70811256Y-46499754D01*
X-70638215Y-46465334D01*
X-70461785Y-46465334D01*
X-70288744Y-46499754D01*
G37*
G36*
X-22028744Y-44975754D02*
G01*
X-21865743Y-45043271D01*
X-21719046Y-45141291D01*
X-21594291Y-45266046D01*
X-21496271Y-45412743D01*
X-21428754Y-45575744D01*
X-21394334Y-45748785D01*
X-21394334Y-45925215D01*
X-21428754Y-46098256D01*
X-21496271Y-46261257D01*
X-21594291Y-46407954D01*
X-21719046Y-46532709D01*
X-21865743Y-46630729D01*
X-22028744Y-46698246D01*
X-22201785Y-46732666D01*
X-22378215Y-46732666D01*
X-22551256Y-46698246D01*
X-22714257Y-46630729D01*
X-22860954Y-46532709D01*
X-22985709Y-46407954D01*
X-23083729Y-46261257D01*
X-23151246Y-46098256D01*
X-23185666Y-45925215D01*
X-23185666Y-45748785D01*
X-23151246Y-45575744D01*
X-23083729Y-45412743D01*
X-22985709Y-45266046D01*
X-22860954Y-45141291D01*
X-22714257Y-45043271D01*
X-22551256Y-44975754D01*
X-22378215Y-44941334D01*
X-22201785Y-44941334D01*
X-22028744Y-44975754D01*
G37*
G36*
X-70288744Y-43959754D02*
G01*
X-70125743Y-44027271D01*
X-69979046Y-44125291D01*
X-69854291Y-44250046D01*
X-69756271Y-44396743D01*
X-69688754Y-44559744D01*
X-69654334Y-44732785D01*
X-69654334Y-44909215D01*
X-69688754Y-45082256D01*
X-69756271Y-45245257D01*
X-69854291Y-45391954D01*
X-69979046Y-45516709D01*
X-70125743Y-45614729D01*
X-70288744Y-45682246D01*
X-70461785Y-45716666D01*
X-70638215Y-45716666D01*
X-70811256Y-45682246D01*
X-70974257Y-45614729D01*
X-71120954Y-45516709D01*
X-71245709Y-45391954D01*
X-71343729Y-45245257D01*
X-71411246Y-45082256D01*
X-71445666Y-44909215D01*
X-71445666Y-44732785D01*
X-71411246Y-44559744D01*
X-71343729Y-44396743D01*
X-71245709Y-44250046D01*
X-71120954Y-44125291D01*
X-70974257Y-44027271D01*
X-70811256Y-43959754D01*
X-70638215Y-43925334D01*
X-70461785Y-43925334D01*
X-70288744Y-43959754D01*
G37*
G36*
X-22028744Y-42435754D02*
G01*
X-21865743Y-42503271D01*
X-21719046Y-42601291D01*
X-21594291Y-42726046D01*
X-21496271Y-42872743D01*
X-21428754Y-43035744D01*
X-21394334Y-43208785D01*
X-21394334Y-43385215D01*
X-21428754Y-43558256D01*
X-21496271Y-43721257D01*
X-21594291Y-43867954D01*
X-21719046Y-43992709D01*
X-21865743Y-44090729D01*
X-22028744Y-44158246D01*
X-22201785Y-44192666D01*
X-22378215Y-44192666D01*
X-22551256Y-44158246D01*
X-22714257Y-44090729D01*
X-22860954Y-43992709D01*
X-22985709Y-43867954D01*
X-23083729Y-43721257D01*
X-23151246Y-43558256D01*
X-23185666Y-43385215D01*
X-23185666Y-43208785D01*
X-23151246Y-43035744D01*
X-23083729Y-42872743D01*
X-22985709Y-42726046D01*
X-22860954Y-42601291D01*
X-22714257Y-42503271D01*
X-22551256Y-42435754D01*
X-22378215Y-42401334D01*
X-22201785Y-42401334D01*
X-22028744Y-42435754D01*
G37*
G36*
X-70288744Y-41419754D02*
G01*
X-70125743Y-41487271D01*
X-69979046Y-41585291D01*
X-69854291Y-41710046D01*
X-69756271Y-41856743D01*
X-69688754Y-42019744D01*
X-69654334Y-42192785D01*
X-69654334Y-42369215D01*
X-69688754Y-42542256D01*
X-69756271Y-42705257D01*
X-69854291Y-42851954D01*
X-69979046Y-42976709D01*
X-70125743Y-43074729D01*
X-70288744Y-43142246D01*
X-70461785Y-43176666D01*
X-70638215Y-43176666D01*
X-70811256Y-43142246D01*
X-70974257Y-43074729D01*
X-71120954Y-42976709D01*
X-71245709Y-42851954D01*
X-71343729Y-42705257D01*
X-71411246Y-42542256D01*
X-71445666Y-42369215D01*
X-71445666Y-42192785D01*
X-71411246Y-42019744D01*
X-71343729Y-41856743D01*
X-71245709Y-41710046D01*
X-71120954Y-41585291D01*
X-70974257Y-41487271D01*
X-70811256Y-41419754D01*
X-70638215Y-41385334D01*
X-70461785Y-41385334D01*
X-70288744Y-41419754D01*
G37*
G36*
X-22028744Y-39895754D02*
G01*
X-21865743Y-39963271D01*
X-21719046Y-40061291D01*
X-21594291Y-40186046D01*
X-21496271Y-40332743D01*
X-21428754Y-40495744D01*
X-21394334Y-40668785D01*
X-21394334Y-40845215D01*
X-21428754Y-41018256D01*
X-21496271Y-41181257D01*
X-21594291Y-41327954D01*
X-21719046Y-41452709D01*
X-21865743Y-41550729D01*
X-22028744Y-41618246D01*
X-22201785Y-41652666D01*
X-22378215Y-41652666D01*
X-22551256Y-41618246D01*
X-22714257Y-41550729D01*
X-22860954Y-41452709D01*
X-22985709Y-41327954D01*
X-23083729Y-41181257D01*
X-23151246Y-41018256D01*
X-23185666Y-40845215D01*
X-23185666Y-40668785D01*
X-23151246Y-40495744D01*
X-23083729Y-40332743D01*
X-22985709Y-40186046D01*
X-22860954Y-40061291D01*
X-22714257Y-39963271D01*
X-22551256Y-39895754D01*
X-22378215Y-39861334D01*
X-22201785Y-39861334D01*
X-22028744Y-39895754D01*
G37*
G36*
X-70288744Y-38879754D02*
G01*
X-70125743Y-38947271D01*
X-69979046Y-39045291D01*
X-69854291Y-39170046D01*
X-69756271Y-39316743D01*
X-69688754Y-39479744D01*
X-69654334Y-39652785D01*
X-69654334Y-39829215D01*
X-69688754Y-40002256D01*
X-69756271Y-40165257D01*
X-69854291Y-40311954D01*
X-69979046Y-40436709D01*
X-70125743Y-40534729D01*
X-70288744Y-40602246D01*
X-70461785Y-40636666D01*
X-70638215Y-40636666D01*
X-70811256Y-40602246D01*
X-70974257Y-40534729D01*
X-71120954Y-40436709D01*
X-71245709Y-40311954D01*
X-71343729Y-40165257D01*
X-71411246Y-40002256D01*
X-71445666Y-39829215D01*
X-71445666Y-39652785D01*
X-71411246Y-39479744D01*
X-71343729Y-39316743D01*
X-71245709Y-39170046D01*
X-71120954Y-39045291D01*
X-70974257Y-38947271D01*
X-70811256Y-38879754D01*
X-70638215Y-38845334D01*
X-70461785Y-38845334D01*
X-70288744Y-38879754D01*
G37*
G36*
X-7904809Y-36855086D02*
G01*
X-7894245Y-36855086D01*
X-7842226Y-36863325D01*
X-7701826Y-36881809D01*
X-7667565Y-36890989D01*
X-7638518Y-36895590D01*
X-7582658Y-36913740D01*
X-7493365Y-36937666D01*
X-7436394Y-36961264D01*
X-7392275Y-36975599D01*
X-7350948Y-36996656D01*
X-7293970Y-37020257D01*
X-7213900Y-37066485D01*
X-7161580Y-37093144D01*
X-7137794Y-37110425D01*
X-7107079Y-37128159D01*
X-6994728Y-37214369D01*
X-6952114Y-37245330D01*
X-6944645Y-37252799D01*
X-6935855Y-37259544D01*
X-6783248Y-37412151D01*
X-6776504Y-37420940D01*
X-6769033Y-37428411D01*
X-6738069Y-37471030D01*
X-6651863Y-37583375D01*
X-6634131Y-37614087D01*
X-6616847Y-37637877D01*
X-6590186Y-37690203D01*
X-6543961Y-37770266D01*
X-6520363Y-37827237D01*
X-6499302Y-37868572D01*
X-6484965Y-37912696D01*
X-6461370Y-37969661D01*
X-6437448Y-38058941D01*
X-6419293Y-38114815D01*
X-6414692Y-38143867D01*
X-6405513Y-38178122D01*
X-6387030Y-38318514D01*
X-6378789Y-38370542D01*
X-6378789Y-38381105D01*
X-6377343Y-38392089D01*
X-6377343Y-38607910D01*
X-6378789Y-38618893D01*
X-6378789Y-38629458D01*
X-6387031Y-38681490D01*
X-6405513Y-38821877D01*
X-6414692Y-38856129D01*
X-6419293Y-38885185D01*
X-6437449Y-38941063D01*
X-6461370Y-39030338D01*
X-6484964Y-39087298D01*
X-6499302Y-39131428D01*
X-6520366Y-39172766D01*
X-6543961Y-39229733D01*
X-6590182Y-39309788D01*
X-6616847Y-39362123D01*
X-6634134Y-39385916D01*
X-6651863Y-39416624D01*
X-6738055Y-39528950D01*
X-6769033Y-39571589D01*
X-6776508Y-39579063D01*
X-6783248Y-39587848D01*
X-6935855Y-39740455D01*
X-6944640Y-39747195D01*
X-6952114Y-39754670D01*
X-6994753Y-39785648D01*
X-7107079Y-39871840D01*
X-7137787Y-39889569D01*
X-7161580Y-39906856D01*
X-7213915Y-39933521D01*
X-7293970Y-39979742D01*
X-7350937Y-40003337D01*
X-7392275Y-40024401D01*
X-7436405Y-40038739D01*
X-7493365Y-40062333D01*
X-7582640Y-40086254D01*
X-7638518Y-40104410D01*
X-7667574Y-40109011D01*
X-7701826Y-40118190D01*
X-7842213Y-40136672D01*
X-7894245Y-40144914D01*
X-7904810Y-40144914D01*
X-7915793Y-40146360D01*
X-8131613Y-40146360D01*
X-8142596Y-40144914D01*
X-8153161Y-40144914D01*
X-8205192Y-40136672D01*
X-8345581Y-40118190D01*
X-8379836Y-40109011D01*
X-8408888Y-40104410D01*
X-8464762Y-40086255D01*
X-8554042Y-40062333D01*
X-8611007Y-40038738D01*
X-8655131Y-40024401D01*
X-8696466Y-40003340D01*
X-8753437Y-39979742D01*
X-8833500Y-39933517D01*
X-8885826Y-39906856D01*
X-8909616Y-39889572D01*
X-8940328Y-39871840D01*
X-9052673Y-39785634D01*
X-9095292Y-39754670D01*
X-9102763Y-39747199D01*
X-9111552Y-39740455D01*
X-9264159Y-39587848D01*
X-9270904Y-39579058D01*
X-9278373Y-39571589D01*
X-9309334Y-39528975D01*
X-9395544Y-39416624D01*
X-9413278Y-39385909D01*
X-9430559Y-39362123D01*
X-9457218Y-39309803D01*
X-9503446Y-39229733D01*
X-9527047Y-39172755D01*
X-9548104Y-39131428D01*
X-9562439Y-39087309D01*
X-9586037Y-39030338D01*
X-9609963Y-38941045D01*
X-9628113Y-38885185D01*
X-9632714Y-38856138D01*
X-9641894Y-38821877D01*
X-9660378Y-38681477D01*
X-9668617Y-38629458D01*
X-9668617Y-38618893D01*
X-9670063Y-38607910D01*
X-9670063Y-38392089D01*
X-9668617Y-38381105D01*
X-9668617Y-38370542D01*
X-9660379Y-38318527D01*
X-9641894Y-38178122D01*
X-9632714Y-38143858D01*
X-9628113Y-38114815D01*
X-9609965Y-38058959D01*
X-9586037Y-37969661D01*
X-9562438Y-37912685D01*
X-9548104Y-37868572D01*
X-9527049Y-37827248D01*
X-9503446Y-37770266D01*
X-9457214Y-37690188D01*
X-9430559Y-37637877D01*
X-9413280Y-37614094D01*
X-9395544Y-37583375D01*
X-9309320Y-37471005D01*
X-9278373Y-37428411D01*
X-9270907Y-37420944D01*
X-9264159Y-37412151D01*
X-9111552Y-37259544D01*
X-9102759Y-37252796D01*
X-9095292Y-37245330D01*
X-9052698Y-37214383D01*
X-8940328Y-37128159D01*
X-8909609Y-37110423D01*
X-8885826Y-37093144D01*
X-8833515Y-37066489D01*
X-8753437Y-37020257D01*
X-8696455Y-36996654D01*
X-8655131Y-36975599D01*
X-8611018Y-36961265D01*
X-8554042Y-36937666D01*
X-8464744Y-36913738D01*
X-8408888Y-36895590D01*
X-8379845Y-36890989D01*
X-8345581Y-36881809D01*
X-8205179Y-36863324D01*
X-8153161Y-36855086D01*
X-8142597Y-36855086D01*
X-8131613Y-36853640D01*
X-7915793Y-36853640D01*
X-7904809Y-36855086D01*
G37*
G36*
X108142596Y-36855086D02*
G01*
X108153160Y-36855086D01*
X108205179Y-36863325D01*
X108345579Y-36881809D01*
X108379840Y-36890989D01*
X108408887Y-36895590D01*
X108464747Y-36913740D01*
X108554040Y-36937666D01*
X108611011Y-36961264D01*
X108655130Y-36975599D01*
X108696457Y-36996656D01*
X108753435Y-37020257D01*
X108833505Y-37066485D01*
X108885825Y-37093144D01*
X108909611Y-37110425D01*
X108940326Y-37128159D01*
X109052677Y-37214369D01*
X109095291Y-37245330D01*
X109102760Y-37252799D01*
X109111550Y-37259544D01*
X109264157Y-37412151D01*
X109270901Y-37420940D01*
X109278372Y-37428411D01*
X109309336Y-37471030D01*
X109395542Y-37583375D01*
X109413274Y-37614087D01*
X109430558Y-37637877D01*
X109457219Y-37690203D01*
X109503444Y-37770266D01*
X109527042Y-37827237D01*
X109548103Y-37868572D01*
X109562440Y-37912696D01*
X109586035Y-37969661D01*
X109609957Y-38058941D01*
X109628112Y-38114815D01*
X109632713Y-38143867D01*
X109641892Y-38178122D01*
X109660375Y-38318514D01*
X109668616Y-38370542D01*
X109668616Y-38381105D01*
X109670062Y-38392089D01*
X109670062Y-38607910D01*
X109668616Y-38618893D01*
X109668616Y-38629458D01*
X109660374Y-38681490D01*
X109641892Y-38821877D01*
X109632713Y-38856129D01*
X109628112Y-38885185D01*
X109609956Y-38941063D01*
X109586035Y-39030338D01*
X109562441Y-39087298D01*
X109548103Y-39131428D01*
X109527039Y-39172766D01*
X109503444Y-39229733D01*
X109457223Y-39309788D01*
X109430558Y-39362123D01*
X109413271Y-39385916D01*
X109395542Y-39416624D01*
X109309350Y-39528950D01*
X109278372Y-39571589D01*
X109270897Y-39579063D01*
X109264157Y-39587848D01*
X109111550Y-39740455D01*
X109102765Y-39747195D01*
X109095291Y-39754670D01*
X109052652Y-39785648D01*
X108940326Y-39871840D01*
X108909618Y-39889569D01*
X108885825Y-39906856D01*
X108833490Y-39933521D01*
X108753435Y-39979742D01*
X108696468Y-40003337D01*
X108655130Y-40024401D01*
X108611000Y-40038739D01*
X108554040Y-40062333D01*
X108464765Y-40086254D01*
X108408887Y-40104410D01*
X108379831Y-40109011D01*
X108345579Y-40118190D01*
X108205192Y-40136672D01*
X108153160Y-40144914D01*
X108142595Y-40144914D01*
X108131612Y-40146360D01*
X107915792Y-40146360D01*
X107904809Y-40144914D01*
X107894244Y-40144914D01*
X107842213Y-40136672D01*
X107701824Y-40118190D01*
X107667569Y-40109011D01*
X107638517Y-40104410D01*
X107582643Y-40086255D01*
X107493363Y-40062333D01*
X107436398Y-40038738D01*
X107392274Y-40024401D01*
X107350939Y-40003340D01*
X107293968Y-39979742D01*
X107213905Y-39933517D01*
X107161579Y-39906856D01*
X107137789Y-39889572D01*
X107107077Y-39871840D01*
X106994732Y-39785634D01*
X106952113Y-39754670D01*
X106944642Y-39747199D01*
X106935853Y-39740455D01*
X106783246Y-39587848D01*
X106776501Y-39579058D01*
X106769032Y-39571589D01*
X106738071Y-39528975D01*
X106651861Y-39416624D01*
X106634127Y-39385909D01*
X106616846Y-39362123D01*
X106590187Y-39309803D01*
X106543959Y-39229733D01*
X106520358Y-39172755D01*
X106499301Y-39131428D01*
X106484966Y-39087309D01*
X106461368Y-39030338D01*
X106437442Y-38941045D01*
X106419292Y-38885185D01*
X106414691Y-38856138D01*
X106405511Y-38821877D01*
X106387027Y-38681477D01*
X106378788Y-38629458D01*
X106378788Y-38618893D01*
X106377342Y-38607910D01*
X106377342Y-38392089D01*
X106378788Y-38381105D01*
X106378788Y-38370542D01*
X106387026Y-38318527D01*
X106405511Y-38178122D01*
X106414691Y-38143858D01*
X106419292Y-38114815D01*
X106437440Y-38058959D01*
X106461368Y-37969661D01*
X106484967Y-37912685D01*
X106499301Y-37868572D01*
X106520356Y-37827248D01*
X106543959Y-37770266D01*
X106590191Y-37690188D01*
X106616846Y-37637877D01*
X106634125Y-37614094D01*
X106651861Y-37583375D01*
X106738085Y-37471005D01*
X106769032Y-37428411D01*
X106776498Y-37420944D01*
X106783246Y-37412151D01*
X106935853Y-37259544D01*
X106944646Y-37252796D01*
X106952113Y-37245330D01*
X106994707Y-37214383D01*
X107107077Y-37128159D01*
X107137796Y-37110423D01*
X107161579Y-37093144D01*
X107213890Y-37066489D01*
X107293968Y-37020257D01*
X107350950Y-36996654D01*
X107392274Y-36975599D01*
X107436387Y-36961265D01*
X107493363Y-36937666D01*
X107582661Y-36913738D01*
X107638517Y-36895590D01*
X107667560Y-36890989D01*
X107701824Y-36881809D01*
X107842226Y-36863324D01*
X107894244Y-36855086D01*
X107904808Y-36855086D01*
X107915792Y-36853640D01*
X108131612Y-36853640D01*
X108142596Y-36855086D01*
G37*
G36*
X-22028744Y-37355754D02*
G01*
X-21865743Y-37423271D01*
X-21719046Y-37521291D01*
X-21594291Y-37646046D01*
X-21496271Y-37792743D01*
X-21428754Y-37955744D01*
X-21394334Y-38128785D01*
X-21394334Y-38305215D01*
X-21428754Y-38478256D01*
X-21496271Y-38641257D01*
X-21594291Y-38787954D01*
X-21719046Y-38912709D01*
X-21865743Y-39010729D01*
X-22028744Y-39078246D01*
X-22201785Y-39112666D01*
X-22378215Y-39112666D01*
X-22551256Y-39078246D01*
X-22714257Y-39010729D01*
X-22860954Y-38912709D01*
X-22985709Y-38787954D01*
X-23083729Y-38641257D01*
X-23151246Y-38478256D01*
X-23185666Y-38305215D01*
X-23185666Y-38128785D01*
X-23151246Y-37955744D01*
X-23083729Y-37792743D01*
X-22985709Y-37646046D01*
X-22860954Y-37521291D01*
X-22714257Y-37423271D01*
X-22551256Y-37355754D01*
X-22378215Y-37321334D01*
X-22201785Y-37321334D01*
X-22028744Y-37355754D01*
G37*
G36*
X-70288744Y-36339754D02*
G01*
X-70125743Y-36407271D01*
X-69979046Y-36505291D01*
X-69854291Y-36630046D01*
X-69756271Y-36776743D01*
X-69688754Y-36939744D01*
X-69654334Y-37112785D01*
X-69654334Y-37289215D01*
X-69688754Y-37462256D01*
X-69756271Y-37625257D01*
X-69854291Y-37771954D01*
X-69979046Y-37896709D01*
X-70125743Y-37994729D01*
X-70288744Y-38062246D01*
X-70461785Y-38096666D01*
X-70638215Y-38096666D01*
X-70811256Y-38062246D01*
X-70974257Y-37994729D01*
X-71120954Y-37896709D01*
X-71245709Y-37771954D01*
X-71343729Y-37625257D01*
X-71411246Y-37462256D01*
X-71445666Y-37289215D01*
X-71445666Y-37112785D01*
X-71411246Y-36939744D01*
X-71343729Y-36776743D01*
X-71245709Y-36630046D01*
X-71120954Y-36505291D01*
X-70974257Y-36407271D01*
X-70811256Y-36339754D01*
X-70638215Y-36305334D01*
X-70461785Y-36305334D01*
X-70288744Y-36339754D01*
G37*
G36*
X-22028744Y-34815754D02*
G01*
X-21865743Y-34883271D01*
X-21719046Y-34981291D01*
X-21594291Y-35106046D01*
X-21496271Y-35252743D01*
X-21428754Y-35415744D01*
X-21394334Y-35588785D01*
X-21394334Y-35765215D01*
X-21428754Y-35938256D01*
X-21496271Y-36101257D01*
X-21594291Y-36247954D01*
X-21719046Y-36372709D01*
X-21865743Y-36470729D01*
X-22028744Y-36538246D01*
X-22201785Y-36572666D01*
X-22378215Y-36572666D01*
X-22551256Y-36538246D01*
X-22714257Y-36470729D01*
X-22860954Y-36372709D01*
X-22985709Y-36247954D01*
X-23083729Y-36101257D01*
X-23151246Y-35938256D01*
X-23185666Y-35765215D01*
X-23185666Y-35588785D01*
X-23151246Y-35415744D01*
X-23083729Y-35252743D01*
X-22985709Y-35106046D01*
X-22860954Y-34981291D01*
X-22714257Y-34883271D01*
X-22551256Y-34815754D01*
X-22378215Y-34781334D01*
X-22201785Y-34781334D01*
X-22028744Y-34815754D01*
G37*
G36*
X-69680866Y-32240806D02*
G01*
X-69664645Y-32251645D01*
X-69653806Y-32267866D01*
X-69650000Y-32287000D01*
X-69650000Y-33987000D01*
X-69653806Y-34006134D01*
X-69664645Y-34022355D01*
X-69680866Y-34033194D01*
X-69700000Y-34037000D01*
X-71400000Y-34037000D01*
X-71419134Y-34033194D01*
X-71435355Y-34022355D01*
X-71446194Y-34006134D01*
X-71450000Y-33987000D01*
X-71450000Y-32287000D01*
X-71446194Y-32267866D01*
X-71435355Y-32251645D01*
X-71419134Y-32240806D01*
X-71400000Y-32237000D01*
X-69700000Y-32237000D01*
X-69680866Y-32240806D01*
G37*
G36*
X-22028744Y-32275754D02*
G01*
X-21865743Y-32343271D01*
X-21719046Y-32441291D01*
X-21594291Y-32566046D01*
X-21496271Y-32712743D01*
X-21428754Y-32875744D01*
X-21394334Y-33048785D01*
X-21394334Y-33225215D01*
X-21428754Y-33398256D01*
X-21496271Y-33561257D01*
X-21594291Y-33707954D01*
X-21719046Y-33832709D01*
X-21865743Y-33930729D01*
X-22028744Y-33998246D01*
X-22201785Y-34032666D01*
X-22378215Y-34032666D01*
X-22551256Y-33998246D01*
X-22714257Y-33930729D01*
X-22860954Y-33832709D01*
X-22985709Y-33707954D01*
X-23083729Y-33561257D01*
X-23151246Y-33398256D01*
X-23185666Y-33225215D01*
X-23185666Y-33048785D01*
X-23151246Y-32875744D01*
X-23083729Y-32712743D01*
X-22985709Y-32566046D01*
X-22860954Y-32441291D01*
X-22714257Y-32343271D01*
X-22551256Y-32275754D01*
X-22378215Y-32241334D01*
X-22201785Y-32241334D01*
X-22028744Y-32275754D01*
G37*
G36*
X-70288744Y-29735754D02*
G01*
X-70125743Y-29803271D01*
X-69979046Y-29901291D01*
X-69854291Y-30026046D01*
X-69756271Y-30172743D01*
X-69688754Y-30335744D01*
X-69654334Y-30508785D01*
X-69654334Y-30685215D01*
X-69688754Y-30858256D01*
X-69756271Y-31021257D01*
X-69854291Y-31167954D01*
X-69979046Y-31292709D01*
X-70125743Y-31390729D01*
X-70288744Y-31458246D01*
X-70461785Y-31492666D01*
X-70638215Y-31492666D01*
X-70811256Y-31458246D01*
X-70974257Y-31390729D01*
X-71120954Y-31292709D01*
X-71245709Y-31167954D01*
X-71343729Y-31021257D01*
X-71411246Y-30858256D01*
X-71445666Y-30685215D01*
X-71445666Y-30508785D01*
X-71411246Y-30335744D01*
X-71343729Y-30172743D01*
X-71245709Y-30026046D01*
X-71120954Y-29901291D01*
X-70974257Y-29803271D01*
X-70811256Y-29735754D01*
X-70638215Y-29701334D01*
X-70461785Y-29701334D01*
X-70288744Y-29735754D01*
G37*
G36*
X-21420866Y-27160806D02*
G01*
X-21404645Y-27171645D01*
X-21393806Y-27187866D01*
X-21390000Y-27207000D01*
X-21390000Y-28907000D01*
X-21393806Y-28926134D01*
X-21404645Y-28942355D01*
X-21420866Y-28953194D01*
X-21440000Y-28957000D01*
X-23140000Y-28957000D01*
X-23159134Y-28953194D01*
X-23175355Y-28942355D01*
X-23186194Y-28926134D01*
X-23190000Y-28907000D01*
X-23190000Y-27207000D01*
X-23186194Y-27187866D01*
X-23175355Y-27171645D01*
X-23159134Y-27160806D01*
X-23140000Y-27157000D01*
X-21440000Y-27157000D01*
X-21420866Y-27160806D01*
G37*
G36*
X-70288744Y-27195754D02*
G01*
X-70125743Y-27263271D01*
X-69979046Y-27361291D01*
X-69854291Y-27486046D01*
X-69756271Y-27632743D01*
X-69688754Y-27795744D01*
X-69654334Y-27968785D01*
X-69654334Y-28145215D01*
X-69688754Y-28318256D01*
X-69756271Y-28481257D01*
X-69854291Y-28627954D01*
X-69979046Y-28752709D01*
X-70125743Y-28850729D01*
X-70288744Y-28918246D01*
X-70461785Y-28952666D01*
X-70638215Y-28952666D01*
X-70811256Y-28918246D01*
X-70974257Y-28850729D01*
X-71120954Y-28752709D01*
X-71245709Y-28627954D01*
X-71343729Y-28481257D01*
X-71411246Y-28318256D01*
X-71445666Y-28145215D01*
X-71445666Y-27968785D01*
X-71411246Y-27795744D01*
X-71343729Y-27632743D01*
X-71245709Y-27486046D01*
X-71120954Y-27361291D01*
X-70974257Y-27263271D01*
X-70811256Y-27195754D01*
X-70638215Y-27161334D01*
X-70461785Y-27161334D01*
X-70288744Y-27195754D01*
G37*
G36*
X-70288744Y-24655754D02*
G01*
X-70125743Y-24723271D01*
X-69979046Y-24821291D01*
X-69854291Y-24946046D01*
X-69756271Y-25092743D01*
X-69688754Y-25255744D01*
X-69654334Y-25428785D01*
X-69654334Y-25605215D01*
X-69688754Y-25778256D01*
X-69756271Y-25941257D01*
X-69854291Y-26087954D01*
X-69979046Y-26212709D01*
X-70125743Y-26310729D01*
X-70288744Y-26378246D01*
X-70461785Y-26412666D01*
X-70638215Y-26412666D01*
X-70811256Y-26378246D01*
X-70974257Y-26310729D01*
X-71120954Y-26212709D01*
X-71245709Y-26087954D01*
X-71343729Y-25941257D01*
X-71411246Y-25778256D01*
X-71445666Y-25605215D01*
X-71445666Y-25428785D01*
X-71411246Y-25255744D01*
X-71343729Y-25092743D01*
X-71245709Y-24946046D01*
X-71120954Y-24821291D01*
X-70974257Y-24723271D01*
X-70811256Y-24655754D01*
X-70638215Y-24621334D01*
X-70461785Y-24621334D01*
X-70288744Y-24655754D01*
G37*
G36*
X-22028744Y-24655754D02*
G01*
X-21865743Y-24723271D01*
X-21719046Y-24821291D01*
X-21594291Y-24946046D01*
X-21496271Y-25092743D01*
X-21428754Y-25255744D01*
X-21394334Y-25428785D01*
X-21394334Y-25605215D01*
X-21428754Y-25778256D01*
X-21496271Y-25941257D01*
X-21594291Y-26087954D01*
X-21719046Y-26212709D01*
X-21865743Y-26310729D01*
X-22028744Y-26378246D01*
X-22201785Y-26412666D01*
X-22378215Y-26412666D01*
X-22551256Y-26378246D01*
X-22714257Y-26310729D01*
X-22860954Y-26212709D01*
X-22985709Y-26087954D01*
X-23083729Y-25941257D01*
X-23151246Y-25778256D01*
X-23185666Y-25605215D01*
X-23185666Y-25428785D01*
X-23151246Y-25255744D01*
X-23083729Y-25092743D01*
X-22985709Y-24946046D01*
X-22860954Y-24821291D01*
X-22714257Y-24723271D01*
X-22551256Y-24655754D01*
X-22378215Y-24621334D01*
X-22201785Y-24621334D01*
X-22028744Y-24655754D01*
G37*
G36*
X-70288744Y-22115754D02*
G01*
X-70125743Y-22183271D01*
X-69979046Y-22281291D01*
X-69854291Y-22406046D01*
X-69756271Y-22552743D01*
X-69688754Y-22715744D01*
X-69654334Y-22888785D01*
X-69654334Y-23065215D01*
X-69688754Y-23238256D01*
X-69756271Y-23401257D01*
X-69854291Y-23547954D01*
X-69979046Y-23672709D01*
X-70125743Y-23770729D01*
X-70288744Y-23838246D01*
X-70461785Y-23872666D01*
X-70638215Y-23872666D01*
X-70811256Y-23838246D01*
X-70974257Y-23770729D01*
X-71120954Y-23672709D01*
X-71245709Y-23547954D01*
X-71343729Y-23401257D01*
X-71411246Y-23238256D01*
X-71445666Y-23065215D01*
X-71445666Y-22888785D01*
X-71411246Y-22715744D01*
X-71343729Y-22552743D01*
X-71245709Y-22406046D01*
X-71120954Y-22281291D01*
X-70974257Y-22183271D01*
X-70811256Y-22115754D01*
X-70638215Y-22081334D01*
X-70461785Y-22081334D01*
X-70288744Y-22115754D01*
G37*
G36*
X-22028744Y-22115754D02*
G01*
X-21865743Y-22183271D01*
X-21719046Y-22281291D01*
X-21594291Y-22406046D01*
X-21496271Y-22552743D01*
X-21428754Y-22715744D01*
X-21394334Y-22888785D01*
X-21394334Y-23065215D01*
X-21428754Y-23238256D01*
X-21496271Y-23401257D01*
X-21594291Y-23547954D01*
X-21719046Y-23672709D01*
X-21865743Y-23770729D01*
X-22028744Y-23838246D01*
X-22201785Y-23872666D01*
X-22378215Y-23872666D01*
X-22551256Y-23838246D01*
X-22714257Y-23770729D01*
X-22860954Y-23672709D01*
X-22985709Y-23547954D01*
X-23083729Y-23401257D01*
X-23151246Y-23238256D01*
X-23185666Y-23065215D01*
X-23185666Y-22888785D01*
X-23151246Y-22715744D01*
X-23083729Y-22552743D01*
X-22985709Y-22406046D01*
X-22860954Y-22281291D01*
X-22714257Y-22183271D01*
X-22551256Y-22115754D01*
X-22378215Y-22081334D01*
X-22201785Y-22081334D01*
X-22028744Y-22115754D01*
G37*
G36*
X-70288744Y-19575754D02*
G01*
X-70125743Y-19643271D01*
X-69979046Y-19741291D01*
X-69854291Y-19866046D01*
X-69756271Y-20012743D01*
X-69688754Y-20175744D01*
X-69654334Y-20348785D01*
X-69654334Y-20525215D01*
X-69688754Y-20698256D01*
X-69756271Y-20861257D01*
X-69854291Y-21007954D01*
X-69979046Y-21132709D01*
X-70125743Y-21230729D01*
X-70288744Y-21298246D01*
X-70461785Y-21332666D01*
X-70638215Y-21332666D01*
X-70811256Y-21298246D01*
X-70974257Y-21230729D01*
X-71120954Y-21132709D01*
X-71245709Y-21007954D01*
X-71343729Y-20861257D01*
X-71411246Y-20698256D01*
X-71445666Y-20525215D01*
X-71445666Y-20348785D01*
X-71411246Y-20175744D01*
X-71343729Y-20012743D01*
X-71245709Y-19866046D01*
X-71120954Y-19741291D01*
X-70974257Y-19643271D01*
X-70811256Y-19575754D01*
X-70638215Y-19541334D01*
X-70461785Y-19541334D01*
X-70288744Y-19575754D01*
G37*
G36*
X-22028744Y-19575754D02*
G01*
X-21865743Y-19643271D01*
X-21719046Y-19741291D01*
X-21594291Y-19866046D01*
X-21496271Y-20012743D01*
X-21428754Y-20175744D01*
X-21394334Y-20348785D01*
X-21394334Y-20525215D01*
X-21428754Y-20698256D01*
X-21496271Y-20861257D01*
X-21594291Y-21007954D01*
X-21719046Y-21132709D01*
X-21865743Y-21230729D01*
X-22028744Y-21298246D01*
X-22201785Y-21332666D01*
X-22378215Y-21332666D01*
X-22551256Y-21298246D01*
X-22714257Y-21230729D01*
X-22860954Y-21132709D01*
X-22985709Y-21007954D01*
X-23083729Y-20861257D01*
X-23151246Y-20698256D01*
X-23185666Y-20525215D01*
X-23185666Y-20348785D01*
X-23151246Y-20175744D01*
X-23083729Y-20012743D01*
X-22985709Y-19866046D01*
X-22860954Y-19741291D01*
X-22714257Y-19643271D01*
X-22551256Y-19575754D01*
X-22378215Y-19541334D01*
X-22201785Y-19541334D01*
X-22028744Y-19575754D01*
G37*
G36*
X-70288744Y-17035754D02*
G01*
X-70125743Y-17103271D01*
X-69979046Y-17201291D01*
X-69854291Y-17326046D01*
X-69756271Y-17472743D01*
X-69688754Y-17635744D01*
X-69654334Y-17808785D01*
X-69654334Y-17985215D01*
X-69688754Y-18158256D01*
X-69756271Y-18321257D01*
X-69854291Y-18467954D01*
X-69979046Y-18592709D01*
X-70125743Y-18690729D01*
X-70288744Y-18758246D01*
X-70461785Y-18792666D01*
X-70638215Y-18792666D01*
X-70811256Y-18758246D01*
X-70974257Y-18690729D01*
X-71120954Y-18592709D01*
X-71245709Y-18467954D01*
X-71343729Y-18321257D01*
X-71411246Y-18158256D01*
X-71445666Y-17985215D01*
X-71445666Y-17808785D01*
X-71411246Y-17635744D01*
X-71343729Y-17472743D01*
X-71245709Y-17326046D01*
X-71120954Y-17201291D01*
X-70974257Y-17103271D01*
X-70811256Y-17035754D01*
X-70638215Y-17001334D01*
X-70461785Y-17001334D01*
X-70288744Y-17035754D01*
G37*
G36*
X-22028744Y-17035754D02*
G01*
X-21865743Y-17103271D01*
X-21719046Y-17201291D01*
X-21594291Y-17326046D01*
X-21496271Y-17472743D01*
X-21428754Y-17635744D01*
X-21394334Y-17808785D01*
X-21394334Y-17985215D01*
X-21428754Y-18158256D01*
X-21496271Y-18321257D01*
X-21594291Y-18467954D01*
X-21719046Y-18592709D01*
X-21865743Y-18690729D01*
X-22028744Y-18758246D01*
X-22201785Y-18792666D01*
X-22378215Y-18792666D01*
X-22551256Y-18758246D01*
X-22714257Y-18690729D01*
X-22860954Y-18592709D01*
X-22985709Y-18467954D01*
X-23083729Y-18321257D01*
X-23151246Y-18158256D01*
X-23185666Y-17985215D01*
X-23185666Y-17808785D01*
X-23151246Y-17635744D01*
X-23083729Y-17472743D01*
X-22985709Y-17326046D01*
X-22860954Y-17201291D01*
X-22714257Y-17103271D01*
X-22551256Y-17035754D01*
X-22378215Y-17001334D01*
X-22201785Y-17001334D01*
X-22028744Y-17035754D01*
G37*
G36*
X-70288744Y-14495754D02*
G01*
X-70125743Y-14563271D01*
X-69979046Y-14661291D01*
X-69854291Y-14786046D01*
X-69756271Y-14932743D01*
X-69688754Y-15095744D01*
X-69654334Y-15268785D01*
X-69654334Y-15445215D01*
X-69688754Y-15618256D01*
X-69756271Y-15781257D01*
X-69854291Y-15927954D01*
X-69979046Y-16052709D01*
X-70125743Y-16150729D01*
X-70288744Y-16218246D01*
X-70461785Y-16252666D01*
X-70638215Y-16252666D01*
X-70811256Y-16218246D01*
X-70974257Y-16150729D01*
X-71120954Y-16052709D01*
X-71245709Y-15927954D01*
X-71343729Y-15781257D01*
X-71411246Y-15618256D01*
X-71445666Y-15445215D01*
X-71445666Y-15268785D01*
X-71411246Y-15095744D01*
X-71343729Y-14932743D01*
X-71245709Y-14786046D01*
X-71120954Y-14661291D01*
X-70974257Y-14563271D01*
X-70811256Y-14495754D01*
X-70638215Y-14461334D01*
X-70461785Y-14461334D01*
X-70288744Y-14495754D01*
G37*
G36*
X-22028744Y-14495754D02*
G01*
X-21865743Y-14563271D01*
X-21719046Y-14661291D01*
X-21594291Y-14786046D01*
X-21496271Y-14932743D01*
X-21428754Y-15095744D01*
X-21394334Y-15268785D01*
X-21394334Y-15445215D01*
X-21428754Y-15618256D01*
X-21496271Y-15781257D01*
X-21594291Y-15927954D01*
X-21719046Y-16052709D01*
X-21865743Y-16150729D01*
X-22028744Y-16218246D01*
X-22201785Y-16252666D01*
X-22378215Y-16252666D01*
X-22551256Y-16218246D01*
X-22714257Y-16150729D01*
X-22860954Y-16052709D01*
X-22985709Y-15927954D01*
X-23083729Y-15781257D01*
X-23151246Y-15618256D01*
X-23185666Y-15445215D01*
X-23185666Y-15268785D01*
X-23151246Y-15095744D01*
X-23083729Y-14932743D01*
X-22985709Y-14786046D01*
X-22860954Y-14661291D01*
X-22714257Y-14563271D01*
X-22551256Y-14495754D01*
X-22378215Y-14461334D01*
X-22201785Y-14461334D01*
X-22028744Y-14495754D01*
G37*
G36*
X-3257115Y-14080056D02*
G01*
X-3247082Y-14080056D01*
X-3207883Y-14087853D01*
X-3104922Y-14104160D01*
X-3071800Y-14114922D01*
X-3045201Y-14120213D01*
X-3007665Y-14135760D01*
X-2948238Y-14155070D01*
X-2892567Y-14183435D01*
X-2855033Y-14198983D01*
X-2832483Y-14214050D01*
X-2801461Y-14229857D01*
X-2717134Y-14291124D01*
X-2683887Y-14313339D01*
X-2676792Y-14320434D01*
X-2668183Y-14326689D01*
X-2551690Y-14443182D01*
X-2545436Y-14451790D01*
X-2538339Y-14458887D01*
X-2516122Y-14492138D01*
X-2454858Y-14576460D01*
X-2439053Y-14607479D01*
X-2423983Y-14630033D01*
X-2408434Y-14667572D01*
X-2380071Y-14723237D01*
X-2360765Y-14782657D01*
X-2345213Y-14820201D01*
X-2339922Y-14846805D01*
X-2329161Y-14879921D01*
X-2312855Y-14982876D01*
X-2305056Y-15022082D01*
X-2305056Y-15032114D01*
X-2303391Y-15042627D01*
X-2303391Y-15207372D01*
X-2305056Y-15217884D01*
X-2305056Y-15227918D01*
X-2312856Y-15267126D01*
X-2329161Y-15370078D01*
X-2339921Y-15403192D01*
X-2345213Y-15429799D01*
X-2360766Y-15467346D01*
X-2380071Y-15526762D01*
X-2408432Y-15582422D01*
X-2423983Y-15619967D01*
X-2439055Y-15642523D01*
X-2454858Y-15673539D01*
X-2516113Y-15757849D01*
X-2538339Y-15791113D01*
X-2545439Y-15798212D01*
X-2551690Y-15806817D01*
X-2668183Y-15923310D01*
X-2676788Y-15929561D01*
X-2683887Y-15936661D01*
X-2717151Y-15958887D01*
X-2801461Y-16020142D01*
X-2832477Y-16035945D01*
X-2855033Y-16051017D01*
X-2892578Y-16066568D01*
X-2948238Y-16094929D01*
X-3007654Y-16114234D01*
X-3045201Y-16129787D01*
X-3071808Y-16135079D01*
X-3104922Y-16145839D01*
X-3207874Y-16162144D01*
X-3247082Y-16169944D01*
X-3257116Y-16169944D01*
X-3267628Y-16171609D01*
X-3432372Y-16171609D01*
X-3442885Y-16169944D01*
X-3452918Y-16169944D01*
X-3492126Y-16162145D01*
X-3595079Y-16145839D01*
X-3628195Y-16135078D01*
X-3654799Y-16129787D01*
X-3692343Y-16114235D01*
X-3751763Y-16094929D01*
X-3807428Y-16066566D01*
X-3844967Y-16051017D01*
X-3867521Y-16035947D01*
X-3898540Y-16020142D01*
X-3982862Y-15958878D01*
X-4016113Y-15936661D01*
X-4023210Y-15929564D01*
X-4031818Y-15923310D01*
X-4148311Y-15806817D01*
X-4154566Y-15798208D01*
X-4161661Y-15791113D01*
X-4183876Y-15757866D01*
X-4245143Y-15673539D01*
X-4260950Y-15642517D01*
X-4276017Y-15619967D01*
X-4291565Y-15582433D01*
X-4319930Y-15526762D01*
X-4339240Y-15467335D01*
X-4354787Y-15429799D01*
X-4360078Y-15403200D01*
X-4370840Y-15370078D01*
X-4387147Y-15267117D01*
X-4394944Y-15227918D01*
X-4394944Y-15217884D01*
X-4396609Y-15207372D01*
X-4396609Y-15042627D01*
X-4394944Y-15032114D01*
X-4394944Y-15022082D01*
X-4387148Y-14982886D01*
X-4370840Y-14879921D01*
X-4360078Y-14846797D01*
X-4354787Y-14820201D01*
X-4339241Y-14782668D01*
X-4319930Y-14723237D01*
X-4291562Y-14667561D01*
X-4276017Y-14630033D01*
X-4260952Y-14607486D01*
X-4245143Y-14576460D01*
X-4183868Y-14492121D01*
X-4161661Y-14458887D01*
X-4154568Y-14451793D01*
X-4148311Y-14443182D01*
X-4031818Y-14326689D01*
X-4023207Y-14320432D01*
X-4016113Y-14313339D01*
X-3982879Y-14291132D01*
X-3898540Y-14229857D01*
X-3867514Y-14214048D01*
X-3844967Y-14198983D01*
X-3807439Y-14183438D01*
X-3751763Y-14155070D01*
X-3692332Y-14135759D01*
X-3654799Y-14120213D01*
X-3628203Y-14114922D01*
X-3595079Y-14104160D01*
X-3492117Y-14087853D01*
X-3452918Y-14080056D01*
X-3442885Y-14080056D01*
X-3432372Y-14078391D01*
X-3267628Y-14078391D01*
X-3257115Y-14080056D01*
G37*
G36*
X-22028744Y-11955754D02*
G01*
X-21865743Y-12023271D01*
X-21719046Y-12121291D01*
X-21594291Y-12246046D01*
X-21496271Y-12392743D01*
X-21428754Y-12555744D01*
X-21394334Y-12728785D01*
X-21394334Y-12905215D01*
X-21428754Y-13078256D01*
X-21496271Y-13241257D01*
X-21594291Y-13387954D01*
X-21719046Y-13512709D01*
X-21865743Y-13610729D01*
X-22028744Y-13678246D01*
X-22201785Y-13712666D01*
X-22378215Y-13712666D01*
X-22551256Y-13678246D01*
X-22714257Y-13610729D01*
X-22860954Y-13512709D01*
X-22985709Y-13387954D01*
X-23083729Y-13241257D01*
X-23151246Y-13078256D01*
X-23185666Y-12905215D01*
X-23185666Y-12728785D01*
X-23151246Y-12555744D01*
X-23083729Y-12392743D01*
X-22985709Y-12246046D01*
X-22860954Y-12121291D01*
X-22714257Y-12023271D01*
X-22551256Y-11955754D01*
X-22378215Y-11921334D01*
X-22201785Y-11921334D01*
X-22028744Y-11955754D01*
G37*
G36*
X-69680866Y-9380806D02*
G01*
X-69664645Y-9391645D01*
X-69653806Y-9407866D01*
X-69650000Y-9427000D01*
X-69650000Y-11127000D01*
X-69653806Y-11146134D01*
X-69664645Y-11162355D01*
X-69680866Y-11173194D01*
X-69700000Y-11177000D01*
X-71400000Y-11177000D01*
X-71419134Y-11173194D01*
X-71435355Y-11162355D01*
X-71446194Y-11146134D01*
X-71450000Y-11127000D01*
X-71450000Y-9427000D01*
X-71446194Y-9407866D01*
X-71435355Y-9391645D01*
X-71419134Y-9380806D01*
X-71400000Y-9377000D01*
X-69700000Y-9377000D01*
X-69680866Y-9380806D01*
G37*
G36*
X-22028744Y-9415754D02*
G01*
X-21865743Y-9483271D01*
X-21719046Y-9581291D01*
X-21594291Y-9706046D01*
X-21496271Y-9852743D01*
X-21428754Y-10015744D01*
X-21394334Y-10188785D01*
X-21394334Y-10365215D01*
X-21428754Y-10538256D01*
X-21496271Y-10701257D01*
X-21594291Y-10847954D01*
X-21719046Y-10972709D01*
X-21865743Y-11070729D01*
X-22028744Y-11138246D01*
X-22201785Y-11172666D01*
X-22378215Y-11172666D01*
X-22551256Y-11138246D01*
X-22714257Y-11070729D01*
X-22860954Y-10972709D01*
X-22985709Y-10847954D01*
X-23083729Y-10701257D01*
X-23151246Y-10538256D01*
X-23185666Y-10365215D01*
X-23185666Y-10188785D01*
X-23151246Y-10015744D01*
X-23083729Y-9852743D01*
X-22985709Y-9706046D01*
X-22860954Y-9581291D01*
X-22714257Y-9483271D01*
X-22551256Y-9415754D01*
X-22378215Y-9381334D01*
X-22201785Y-9381334D01*
X-22028744Y-9415754D01*
G37*
G36*
X-70288744Y-6875754D02*
G01*
X-70125743Y-6943271D01*
X-69979046Y-7041291D01*
X-69854291Y-7166046D01*
X-69756271Y-7312743D01*
X-69688754Y-7475744D01*
X-69654334Y-7648785D01*
X-69654334Y-7825215D01*
X-69688754Y-7998256D01*
X-69756271Y-8161257D01*
X-69854291Y-8307954D01*
X-69979046Y-8432709D01*
X-70125743Y-8530729D01*
X-70288744Y-8598246D01*
X-70461785Y-8632666D01*
X-70638215Y-8632666D01*
X-70811256Y-8598246D01*
X-70974257Y-8530729D01*
X-71120954Y-8432709D01*
X-71245709Y-8307954D01*
X-71343729Y-8161257D01*
X-71411246Y-7998256D01*
X-71445666Y-7825215D01*
X-71445666Y-7648785D01*
X-71411246Y-7475744D01*
X-71343729Y-7312743D01*
X-71245709Y-7166046D01*
X-71120954Y-7041291D01*
X-70974257Y-6943271D01*
X-70811256Y-6875754D01*
X-70638215Y-6841334D01*
X-70461785Y-6841334D01*
X-70288744Y-6875754D01*
G37*
G36*
X-21420866Y-4300806D02*
G01*
X-21404645Y-4311645D01*
X-21393806Y-4327866D01*
X-21390000Y-4347000D01*
X-21390000Y-6047000D01*
X-21393806Y-6066134D01*
X-21404645Y-6082355D01*
X-21420866Y-6093194D01*
X-21440000Y-6097000D01*
X-23140000Y-6097000D01*
X-23159134Y-6093194D01*
X-23175355Y-6082355D01*
X-23186194Y-6066134D01*
X-23190000Y-6047000D01*
X-23190000Y-4347000D01*
X-23186194Y-4327866D01*
X-23175355Y-4311645D01*
X-23159134Y-4300806D01*
X-23140000Y-4297000D01*
X-21440000Y-4297000D01*
X-21420866Y-4300806D01*
G37*
G36*
X-70288744Y-4335754D02*
G01*
X-70125743Y-4403271D01*
X-69979046Y-4501291D01*
X-69854291Y-4626046D01*
X-69756271Y-4772743D01*
X-69688754Y-4935744D01*
X-69654334Y-5108785D01*
X-69654334Y-5285215D01*
X-69688754Y-5458256D01*
X-69756271Y-5621257D01*
X-69854291Y-5767954D01*
X-69979046Y-5892709D01*
X-70125743Y-5990729D01*
X-70288744Y-6058246D01*
X-70461785Y-6092666D01*
X-70638215Y-6092666D01*
X-70811256Y-6058246D01*
X-70974257Y-5990729D01*
X-71120954Y-5892709D01*
X-71245709Y-5767954D01*
X-71343729Y-5621257D01*
X-71411246Y-5458256D01*
X-71445666Y-5285215D01*
X-71445666Y-5108785D01*
X-71411246Y-4935744D01*
X-71343729Y-4772743D01*
X-71245709Y-4626046D01*
X-71120954Y-4501291D01*
X-70974257Y-4403271D01*
X-70811256Y-4335754D01*
X-70638215Y-4301334D01*
X-70461785Y-4301334D01*
X-70288744Y-4335754D01*
G37*
G36*
X-70288744Y-1795754D02*
G01*
X-70125743Y-1863271D01*
X-69979046Y-1961291D01*
X-69854291Y-2086046D01*
X-69756271Y-2232743D01*
X-69688754Y-2395744D01*
X-69654334Y-2568785D01*
X-69654334Y-2745215D01*
X-69688754Y-2918256D01*
X-69756271Y-3081257D01*
X-69854291Y-3227954D01*
X-69979046Y-3352709D01*
X-70125743Y-3450729D01*
X-70288744Y-3518246D01*
X-70461785Y-3552666D01*
X-70638215Y-3552666D01*
X-70811256Y-3518246D01*
X-70974257Y-3450729D01*
X-71120954Y-3352709D01*
X-71245709Y-3227954D01*
X-71343729Y-3081257D01*
X-71411246Y-2918256D01*
X-71445666Y-2745215D01*
X-71445666Y-2568785D01*
X-71411246Y-2395744D01*
X-71343729Y-2232743D01*
X-71245709Y-2086046D01*
X-71120954Y-1961291D01*
X-70974257Y-1863271D01*
X-70811256Y-1795754D01*
X-70638215Y-1761334D01*
X-70461785Y-1761334D01*
X-70288744Y-1795754D01*
G37*
G36*
X-22028744Y-1795754D02*
G01*
X-21865743Y-1863271D01*
X-21719046Y-1961291D01*
X-21594291Y-2086046D01*
X-21496271Y-2232743D01*
X-21428754Y-2395744D01*
X-21394334Y-2568785D01*
X-21394334Y-2745215D01*
X-21428754Y-2918256D01*
X-21496271Y-3081257D01*
X-21594291Y-3227954D01*
X-21719046Y-3352709D01*
X-21865743Y-3450729D01*
X-22028744Y-3518246D01*
X-22201785Y-3552666D01*
X-22378215Y-3552666D01*
X-22551256Y-3518246D01*
X-22714257Y-3450729D01*
X-22860954Y-3352709D01*
X-22985709Y-3227954D01*
X-23083729Y-3081257D01*
X-23151246Y-2918256D01*
X-23185666Y-2745215D01*
X-23185666Y-2568785D01*
X-23151246Y-2395744D01*
X-23083729Y-2232743D01*
X-22985709Y-2086046D01*
X-22860954Y-1961291D01*
X-22714257Y-1863271D01*
X-22551256Y-1795754D01*
X-22378215Y-1761334D01*
X-22201785Y-1761334D01*
X-22028744Y-1795754D01*
G37*
G36*
X74967885Y-1380056D02*
G01*
X74977918Y-1380056D01*
X75017117Y-1387853D01*
X75120078Y-1404160D01*
X75153200Y-1414922D01*
X75179799Y-1420213D01*
X75217335Y-1435760D01*
X75276762Y-1455070D01*
X75332433Y-1483435D01*
X75369967Y-1498983D01*
X75392517Y-1514050D01*
X75423539Y-1529857D01*
X75507866Y-1591124D01*
X75541113Y-1613339D01*
X75548208Y-1620434D01*
X75556817Y-1626689D01*
X75673310Y-1743182D01*
X75679564Y-1751790D01*
X75686661Y-1758887D01*
X75708878Y-1792138D01*
X75770142Y-1876460D01*
X75785947Y-1907479D01*
X75801017Y-1930033D01*
X75816566Y-1967572D01*
X75844929Y-2023237D01*
X75864235Y-2082657D01*
X75879787Y-2120201D01*
X75885078Y-2146805D01*
X75895839Y-2179921D01*
X75912145Y-2282876D01*
X75919944Y-2322082D01*
X75919944Y-2332114D01*
X75921609Y-2342627D01*
X75921609Y-2507372D01*
X75919944Y-2517884D01*
X75919944Y-2527918D01*
X75912144Y-2567126D01*
X75895839Y-2670078D01*
X75885079Y-2703192D01*
X75879787Y-2729799D01*
X75864234Y-2767346D01*
X75844929Y-2826762D01*
X75816568Y-2882422D01*
X75801017Y-2919967D01*
X75785945Y-2942523D01*
X75770142Y-2973539D01*
X75708887Y-3057849D01*
X75686661Y-3091113D01*
X75679561Y-3098212D01*
X75673310Y-3106817D01*
X75556817Y-3223310D01*
X75548212Y-3229561D01*
X75541113Y-3236661D01*
X75507849Y-3258887D01*
X75423539Y-3320142D01*
X75392523Y-3335945D01*
X75369967Y-3351017D01*
X75332422Y-3366568D01*
X75276762Y-3394929D01*
X75217346Y-3414234D01*
X75179799Y-3429787D01*
X75153192Y-3435079D01*
X75120078Y-3445839D01*
X75017126Y-3462144D01*
X74977918Y-3469944D01*
X74967884Y-3469944D01*
X74957372Y-3471609D01*
X74792628Y-3471609D01*
X74782115Y-3469944D01*
X74772082Y-3469944D01*
X74732874Y-3462145D01*
X74629921Y-3445839D01*
X74596805Y-3435078D01*
X74570201Y-3429787D01*
X74532657Y-3414235D01*
X74473237Y-3394929D01*
X74417572Y-3366566D01*
X74380033Y-3351017D01*
X74357479Y-3335947D01*
X74326460Y-3320142D01*
X74242138Y-3258878D01*
X74208887Y-3236661D01*
X74201790Y-3229564D01*
X74193182Y-3223310D01*
X74076689Y-3106817D01*
X74070434Y-3098208D01*
X74063339Y-3091113D01*
X74041124Y-3057866D01*
X73979857Y-2973539D01*
X73964050Y-2942517D01*
X73948983Y-2919967D01*
X73933435Y-2882433D01*
X73905070Y-2826762D01*
X73885760Y-2767335D01*
X73870213Y-2729799D01*
X73864922Y-2703200D01*
X73854160Y-2670078D01*
X73837853Y-2567117D01*
X73830056Y-2527918D01*
X73830056Y-2517884D01*
X73828391Y-2507372D01*
X73828391Y-2342627D01*
X73830056Y-2332114D01*
X73830056Y-2322082D01*
X73837852Y-2282886D01*
X73854160Y-2179921D01*
X73864922Y-2146797D01*
X73870213Y-2120201D01*
X73885759Y-2082668D01*
X73905070Y-2023237D01*
X73933438Y-1967561D01*
X73948983Y-1930033D01*
X73964048Y-1907486D01*
X73979857Y-1876460D01*
X74041132Y-1792121D01*
X74063339Y-1758887D01*
X74070432Y-1751793D01*
X74076689Y-1743182D01*
X74193182Y-1626689D01*
X74201793Y-1620432D01*
X74208887Y-1613339D01*
X74242121Y-1591132D01*
X74326460Y-1529857D01*
X74357486Y-1514048D01*
X74380033Y-1498983D01*
X74417561Y-1483438D01*
X74473237Y-1455070D01*
X74532668Y-1435759D01*
X74570201Y-1420213D01*
X74596797Y-1414922D01*
X74629921Y-1404160D01*
X74732883Y-1387853D01*
X74772082Y-1380056D01*
X74782115Y-1380056D01*
X74792628Y-1378391D01*
X74957372Y-1378391D01*
X74967885Y-1380056D01*
G37*
G36*
X-70288744Y744246D02*
G01*
X-70125743Y676729D01*
X-69979046Y578709D01*
X-69854291Y453954D01*
X-69756271Y307257D01*
X-69688754Y144256D01*
X-69654334Y-28785D01*
X-69654334Y-205215D01*
X-69688754Y-378256D01*
X-69756271Y-541257D01*
X-69854291Y-687954D01*
X-69979046Y-812709D01*
X-70125743Y-910729D01*
X-70288744Y-978246D01*
X-70461785Y-1012666D01*
X-70638215Y-1012666D01*
X-70811256Y-978246D01*
X-70974257Y-910729D01*
X-71120954Y-812709D01*
X-71245709Y-687954D01*
X-71343729Y-541257D01*
X-71411246Y-378256D01*
X-71445666Y-205215D01*
X-71445666Y-28785D01*
X-71411246Y144256D01*
X-71343729Y307257D01*
X-71245709Y453954D01*
X-71120954Y578709D01*
X-70974257Y676729D01*
X-70811256Y744246D01*
X-70638215Y778666D01*
X-70461785Y778666D01*
X-70288744Y744246D01*
G37*
G36*
X-22028744Y744246D02*
G01*
X-21865743Y676729D01*
X-21719046Y578709D01*
X-21594291Y453954D01*
X-21496271Y307257D01*
X-21428754Y144256D01*
X-21394334Y-28785D01*
X-21394334Y-205215D01*
X-21428754Y-378256D01*
X-21496271Y-541257D01*
X-21594291Y-687954D01*
X-21719046Y-812709D01*
X-21865743Y-910729D01*
X-22028744Y-978246D01*
X-22201785Y-1012666D01*
X-22378215Y-1012666D01*
X-22551256Y-978246D01*
X-22714257Y-910729D01*
X-22860954Y-812709D01*
X-22985709Y-687954D01*
X-23083729Y-541257D01*
X-23151246Y-378256D01*
X-23185666Y-205215D01*
X-23185666Y-28785D01*
X-23151246Y144256D01*
X-23083729Y307257D01*
X-22985709Y453954D01*
X-22860954Y578709D01*
X-22714257Y676729D01*
X-22551256Y744246D01*
X-22378215Y778666D01*
X-22201785Y778666D01*
X-22028744Y744246D01*
G37*
G36*
X-70288744Y3284246D02*
G01*
X-70125743Y3216729D01*
X-69979046Y3118709D01*
X-69854291Y2993954D01*
X-69756271Y2847257D01*
X-69688754Y2684256D01*
X-69654334Y2511215D01*
X-69654334Y2334785D01*
X-69688754Y2161744D01*
X-69756271Y1998743D01*
X-69854291Y1852046D01*
X-69979046Y1727291D01*
X-70125743Y1629271D01*
X-70288744Y1561754D01*
X-70461785Y1527334D01*
X-70638215Y1527334D01*
X-70811256Y1561754D01*
X-70974257Y1629271D01*
X-71120954Y1727291D01*
X-71245709Y1852046D01*
X-71343729Y1998743D01*
X-71411246Y2161744D01*
X-71445666Y2334785D01*
X-71445666Y2511215D01*
X-71411246Y2684256D01*
X-71343729Y2847257D01*
X-71245709Y2993954D01*
X-71120954Y3118709D01*
X-70974257Y3216729D01*
X-70811256Y3284246D01*
X-70638215Y3318666D01*
X-70461785Y3318666D01*
X-70288744Y3284246D01*
G37*
G36*
X-22028744Y3284246D02*
G01*
X-21865743Y3216729D01*
X-21719046Y3118709D01*
X-21594291Y2993954D01*
X-21496271Y2847257D01*
X-21428754Y2684256D01*
X-21394334Y2511215D01*
X-21394334Y2334785D01*
X-21428754Y2161744D01*
X-21496271Y1998743D01*
X-21594291Y1852046D01*
X-21719046Y1727291D01*
X-21865743Y1629271D01*
X-22028744Y1561754D01*
X-22201785Y1527334D01*
X-22378215Y1527334D01*
X-22551256Y1561754D01*
X-22714257Y1629271D01*
X-22860954Y1727291D01*
X-22985709Y1852046D01*
X-23083729Y1998743D01*
X-23151246Y2161744D01*
X-23185666Y2334785D01*
X-23185666Y2511215D01*
X-23151246Y2684256D01*
X-23083729Y2847257D01*
X-22985709Y2993954D01*
X-22860954Y3118709D01*
X-22714257Y3216729D01*
X-22551256Y3284246D01*
X-22378215Y3318666D01*
X-22201785Y3318666D01*
X-22028744Y3284246D01*
G37*
G36*
X-70288744Y5824246D02*
G01*
X-70125743Y5756729D01*
X-69979046Y5658709D01*
X-69854291Y5533954D01*
X-69756271Y5387257D01*
X-69688754Y5224256D01*
X-69654334Y5051215D01*
X-69654334Y4874785D01*
X-69688754Y4701744D01*
X-69756271Y4538743D01*
X-69854291Y4392046D01*
X-69979046Y4267291D01*
X-70125743Y4169271D01*
X-70288744Y4101754D01*
X-70461785Y4067334D01*
X-70638215Y4067334D01*
X-70811256Y4101754D01*
X-70974257Y4169271D01*
X-71120954Y4267291D01*
X-71245709Y4392046D01*
X-71343729Y4538743D01*
X-71411246Y4701744D01*
X-71445666Y4874785D01*
X-71445666Y5051215D01*
X-71411246Y5224256D01*
X-71343729Y5387257D01*
X-71245709Y5533954D01*
X-71120954Y5658709D01*
X-70974257Y5756729D01*
X-70811256Y5824246D01*
X-70638215Y5858666D01*
X-70461785Y5858666D01*
X-70288744Y5824246D01*
G37*
G36*
X-22028744Y5824246D02*
G01*
X-21865743Y5756729D01*
X-21719046Y5658709D01*
X-21594291Y5533954D01*
X-21496271Y5387257D01*
X-21428754Y5224256D01*
X-21394334Y5051215D01*
X-21394334Y4874785D01*
X-21428754Y4701744D01*
X-21496271Y4538743D01*
X-21594291Y4392046D01*
X-21719046Y4267291D01*
X-21865743Y4169271D01*
X-22028744Y4101754D01*
X-22201785Y4067334D01*
X-22378215Y4067334D01*
X-22551256Y4101754D01*
X-22714257Y4169271D01*
X-22860954Y4267291D01*
X-22985709Y4392046D01*
X-23083729Y4538743D01*
X-23151246Y4701744D01*
X-23185666Y4874785D01*
X-23185666Y5051215D01*
X-23151246Y5224256D01*
X-23083729Y5387257D01*
X-22985709Y5533954D01*
X-22860954Y5658709D01*
X-22714257Y5756729D01*
X-22551256Y5824246D01*
X-22378215Y5858666D01*
X-22201785Y5858666D01*
X-22028744Y5824246D01*
G37*
G36*
X-70288744Y8364246D02*
G01*
X-70125743Y8296729D01*
X-69979046Y8198709D01*
X-69854291Y8073954D01*
X-69756271Y7927257D01*
X-69688754Y7764256D01*
X-69654334Y7591215D01*
X-69654334Y7414785D01*
X-69688754Y7241744D01*
X-69756271Y7078743D01*
X-69854291Y6932046D01*
X-69979046Y6807291D01*
X-70125743Y6709271D01*
X-70288744Y6641754D01*
X-70461785Y6607334D01*
X-70638215Y6607334D01*
X-70811256Y6641754D01*
X-70974257Y6709271D01*
X-71120954Y6807291D01*
X-71245709Y6932046D01*
X-71343729Y7078743D01*
X-71411246Y7241744D01*
X-71445666Y7414785D01*
X-71445666Y7591215D01*
X-71411246Y7764256D01*
X-71343729Y7927257D01*
X-71245709Y8073954D01*
X-71120954Y8198709D01*
X-70974257Y8296729D01*
X-70811256Y8364246D01*
X-70638215Y8398666D01*
X-70461785Y8398666D01*
X-70288744Y8364246D01*
G37*
G36*
X-22028744Y8364246D02*
G01*
X-21865743Y8296729D01*
X-21719046Y8198709D01*
X-21594291Y8073954D01*
X-21496271Y7927257D01*
X-21428754Y7764256D01*
X-21394334Y7591215D01*
X-21394334Y7414785D01*
X-21428754Y7241744D01*
X-21496271Y7078743D01*
X-21594291Y6932046D01*
X-21719046Y6807291D01*
X-21865743Y6709271D01*
X-22028744Y6641754D01*
X-22201785Y6607334D01*
X-22378215Y6607334D01*
X-22551256Y6641754D01*
X-22714257Y6709271D01*
X-22860954Y6807291D01*
X-22985709Y6932046D01*
X-23083729Y7078743D01*
X-23151246Y7241744D01*
X-23185666Y7414785D01*
X-23185666Y7591215D01*
X-23151246Y7764256D01*
X-23083729Y7927257D01*
X-22985709Y8073954D01*
X-22860954Y8198709D01*
X-22714257Y8296729D01*
X-22551256Y8364246D01*
X-22378215Y8398666D01*
X-22201785Y8398666D01*
X-22028744Y8364246D01*
G37*
G36*
X-22028744Y10904246D02*
G01*
X-21865743Y10836729D01*
X-21719046Y10738709D01*
X-21594291Y10613954D01*
X-21496271Y10467257D01*
X-21428754Y10304256D01*
X-21394334Y10131215D01*
X-21394334Y9954785D01*
X-21428754Y9781744D01*
X-21496271Y9618743D01*
X-21594291Y9472046D01*
X-21719046Y9347291D01*
X-21865743Y9249271D01*
X-22028744Y9181754D01*
X-22201785Y9147334D01*
X-22378215Y9147334D01*
X-22551256Y9181754D01*
X-22714257Y9249271D01*
X-22860954Y9347291D01*
X-22985709Y9472046D01*
X-23083729Y9618743D01*
X-23151246Y9781744D01*
X-23185666Y9954785D01*
X-23185666Y10131215D01*
X-23151246Y10304256D01*
X-23083729Y10467257D01*
X-22985709Y10613954D01*
X-22860954Y10738709D01*
X-22714257Y10836729D01*
X-22551256Y10904246D01*
X-22378215Y10938666D01*
X-22201785Y10938666D01*
X-22028744Y10904246D01*
G37*
G36*
X-22028744Y13444246D02*
G01*
X-21865743Y13376729D01*
X-21719046Y13278709D01*
X-21594291Y13153954D01*
X-21496271Y13007257D01*
X-21428754Y12844256D01*
X-21394334Y12671215D01*
X-21394334Y12494785D01*
X-21428754Y12321744D01*
X-21496271Y12158743D01*
X-21594291Y12012046D01*
X-21719046Y11887291D01*
X-21865743Y11789271D01*
X-22028744Y11721754D01*
X-22201785Y11687334D01*
X-22378215Y11687334D01*
X-22551256Y11721754D01*
X-22714257Y11789271D01*
X-22860954Y11887291D01*
X-22985709Y12012046D01*
X-23083729Y12158743D01*
X-23151246Y12321744D01*
X-23185666Y12494785D01*
X-23185666Y12671215D01*
X-23151246Y12844256D01*
X-23083729Y13007257D01*
X-22985709Y13153954D01*
X-22860954Y13278709D01*
X-22714257Y13376729D01*
X-22551256Y13444246D01*
X-22378215Y13478666D01*
X-22201785Y13478666D01*
X-22028744Y13444246D01*
G37*
G36*
X-26500866Y16019194D02*
G01*
X-26484645Y16008355D01*
X-26473806Y15992134D01*
X-26470000Y15973000D01*
X-26470000Y14273000D01*
X-26473806Y14253866D01*
X-26484645Y14237645D01*
X-26500866Y14226806D01*
X-26520000Y14223000D01*
X-28220000Y14223000D01*
X-28239134Y14226806D01*
X-28255355Y14237645D01*
X-28266194Y14253866D01*
X-28270000Y14273000D01*
X-28270000Y15973000D01*
X-28266194Y15992134D01*
X-28255355Y16008355D01*
X-28239134Y16019194D01*
X-28220000Y16023000D01*
X-26520000Y16023000D01*
X-26500866Y16019194D01*
G37*
G36*
X-70288744Y15984246D02*
G01*
X-70125743Y15916729D01*
X-69979046Y15818709D01*
X-69854291Y15693954D01*
X-69756271Y15547257D01*
X-69688754Y15384256D01*
X-69654334Y15211215D01*
X-69654334Y15034785D01*
X-69688754Y14861744D01*
X-69756271Y14698743D01*
X-69854291Y14552046D01*
X-69979046Y14427291D01*
X-70125743Y14329271D01*
X-70288744Y14261754D01*
X-70461785Y14227334D01*
X-70638215Y14227334D01*
X-70811256Y14261754D01*
X-70974257Y14329271D01*
X-71120954Y14427291D01*
X-71245709Y14552046D01*
X-71343729Y14698743D01*
X-71411246Y14861744D01*
X-71445666Y15034785D01*
X-71445666Y15211215D01*
X-71411246Y15384256D01*
X-71343729Y15547257D01*
X-71245709Y15693954D01*
X-71120954Y15818709D01*
X-70974257Y15916729D01*
X-70811256Y15984246D01*
X-70638215Y16018666D01*
X-70461785Y16018666D01*
X-70288744Y15984246D01*
G37*
G36*
X-67748744Y15984246D02*
G01*
X-67585743Y15916729D01*
X-67439046Y15818709D01*
X-67314291Y15693954D01*
X-67216271Y15547257D01*
X-67148754Y15384256D01*
X-67114334Y15211215D01*
X-67114334Y15034785D01*
X-67148754Y14861744D01*
X-67216271Y14698743D01*
X-67314291Y14552046D01*
X-67439046Y14427291D01*
X-67585743Y14329271D01*
X-67748744Y14261754D01*
X-67921785Y14227334D01*
X-68098215Y14227334D01*
X-68271256Y14261754D01*
X-68434257Y14329271D01*
X-68580954Y14427291D01*
X-68705709Y14552046D01*
X-68803729Y14698743D01*
X-68871246Y14861744D01*
X-68905666Y15034785D01*
X-68905666Y15211215D01*
X-68871246Y15384256D01*
X-68803729Y15547257D01*
X-68705709Y15693954D01*
X-68580954Y15818709D01*
X-68434257Y15916729D01*
X-68271256Y15984246D01*
X-68098215Y16018666D01*
X-67921785Y16018666D01*
X-67748744Y15984246D01*
G37*
G36*
X-65208744Y15984246D02*
G01*
X-65045743Y15916729D01*
X-64899046Y15818709D01*
X-64774291Y15693954D01*
X-64676271Y15547257D01*
X-64608754Y15384256D01*
X-64574334Y15211215D01*
X-64574334Y15034785D01*
X-64608754Y14861744D01*
X-64676271Y14698743D01*
X-64774291Y14552046D01*
X-64899046Y14427291D01*
X-65045743Y14329271D01*
X-65208744Y14261754D01*
X-65381785Y14227334D01*
X-65558215Y14227334D01*
X-65731256Y14261754D01*
X-65894257Y14329271D01*
X-66040954Y14427291D01*
X-66165709Y14552046D01*
X-66263729Y14698743D01*
X-66331246Y14861744D01*
X-66365666Y15034785D01*
X-66365666Y15211215D01*
X-66331246Y15384256D01*
X-66263729Y15547257D01*
X-66165709Y15693954D01*
X-66040954Y15818709D01*
X-65894257Y15916729D01*
X-65731256Y15984246D01*
X-65558215Y16018666D01*
X-65381785Y16018666D01*
X-65208744Y15984246D01*
G37*
G36*
X-62668744Y15984246D02*
G01*
X-62505743Y15916729D01*
X-62359046Y15818709D01*
X-62234291Y15693954D01*
X-62136271Y15547257D01*
X-62068754Y15384256D01*
X-62034334Y15211215D01*
X-62034334Y15034785D01*
X-62068754Y14861744D01*
X-62136271Y14698743D01*
X-62234291Y14552046D01*
X-62359046Y14427291D01*
X-62505743Y14329271D01*
X-62668744Y14261754D01*
X-62841785Y14227334D01*
X-63018215Y14227334D01*
X-63191256Y14261754D01*
X-63354257Y14329271D01*
X-63500954Y14427291D01*
X-63625709Y14552046D01*
X-63723729Y14698743D01*
X-63791246Y14861744D01*
X-63825666Y15034785D01*
X-63825666Y15211215D01*
X-63791246Y15384256D01*
X-63723729Y15547257D01*
X-63625709Y15693954D01*
X-63500954Y15818709D01*
X-63354257Y15916729D01*
X-63191256Y15984246D01*
X-63018215Y16018666D01*
X-62841785Y16018666D01*
X-62668744Y15984246D01*
G37*
G36*
X-60128744Y15984246D02*
G01*
X-59965743Y15916729D01*
X-59819046Y15818709D01*
X-59694291Y15693954D01*
X-59596271Y15547257D01*
X-59528754Y15384256D01*
X-59494334Y15211215D01*
X-59494334Y15034785D01*
X-59528754Y14861744D01*
X-59596271Y14698743D01*
X-59694291Y14552046D01*
X-59819046Y14427291D01*
X-59965743Y14329271D01*
X-60128744Y14261754D01*
X-60301785Y14227334D01*
X-60478215Y14227334D01*
X-60651256Y14261754D01*
X-60814257Y14329271D01*
X-60960954Y14427291D01*
X-61085709Y14552046D01*
X-61183729Y14698743D01*
X-61251246Y14861744D01*
X-61285666Y15034785D01*
X-61285666Y15211215D01*
X-61251246Y15384256D01*
X-61183729Y15547257D01*
X-61085709Y15693954D01*
X-60960954Y15818709D01*
X-60814257Y15916729D01*
X-60651256Y15984246D01*
X-60478215Y16018666D01*
X-60301785Y16018666D01*
X-60128744Y15984246D01*
G37*
G36*
X-57588744Y15984246D02*
G01*
X-57425743Y15916729D01*
X-57279046Y15818709D01*
X-57154291Y15693954D01*
X-57056271Y15547257D01*
X-56988754Y15384256D01*
X-56954334Y15211215D01*
X-56954334Y15034785D01*
X-56988754Y14861744D01*
X-57056271Y14698743D01*
X-57154291Y14552046D01*
X-57279046Y14427291D01*
X-57425743Y14329271D01*
X-57588744Y14261754D01*
X-57761785Y14227334D01*
X-57938215Y14227334D01*
X-58111256Y14261754D01*
X-58274257Y14329271D01*
X-58420954Y14427291D01*
X-58545709Y14552046D01*
X-58643729Y14698743D01*
X-58711246Y14861744D01*
X-58745666Y15034785D01*
X-58745666Y15211215D01*
X-58711246Y15384256D01*
X-58643729Y15547257D01*
X-58545709Y15693954D01*
X-58420954Y15818709D01*
X-58274257Y15916729D01*
X-58111256Y15984246D01*
X-57938215Y16018666D01*
X-57761785Y16018666D01*
X-57588744Y15984246D01*
G37*
G36*
X-55048744Y15984246D02*
G01*
X-54885743Y15916729D01*
X-54739046Y15818709D01*
X-54614291Y15693954D01*
X-54516271Y15547257D01*
X-54448754Y15384256D01*
X-54414334Y15211215D01*
X-54414334Y15034785D01*
X-54448754Y14861744D01*
X-54516271Y14698743D01*
X-54614291Y14552046D01*
X-54739046Y14427291D01*
X-54885743Y14329271D01*
X-55048744Y14261754D01*
X-55221785Y14227334D01*
X-55398215Y14227334D01*
X-55571256Y14261754D01*
X-55734257Y14329271D01*
X-55880954Y14427291D01*
X-56005709Y14552046D01*
X-56103729Y14698743D01*
X-56171246Y14861744D01*
X-56205666Y15034785D01*
X-56205666Y15211215D01*
X-56171246Y15384256D01*
X-56103729Y15547257D01*
X-56005709Y15693954D01*
X-55880954Y15818709D01*
X-55734257Y15916729D01*
X-55571256Y15984246D01*
X-55398215Y16018666D01*
X-55221785Y16018666D01*
X-55048744Y15984246D01*
G37*
G36*
X-52508744Y15984246D02*
G01*
X-52345743Y15916729D01*
X-52199046Y15818709D01*
X-52074291Y15693954D01*
X-51976271Y15547257D01*
X-51908754Y15384256D01*
X-51874334Y15211215D01*
X-51874334Y15034785D01*
X-51908754Y14861744D01*
X-51976271Y14698743D01*
X-52074291Y14552046D01*
X-52199046Y14427291D01*
X-52345743Y14329271D01*
X-52508744Y14261754D01*
X-52681785Y14227334D01*
X-52858215Y14227334D01*
X-53031256Y14261754D01*
X-53194257Y14329271D01*
X-53340954Y14427291D01*
X-53465709Y14552046D01*
X-53563729Y14698743D01*
X-53631246Y14861744D01*
X-53665666Y15034785D01*
X-53665666Y15211215D01*
X-53631246Y15384256D01*
X-53563729Y15547257D01*
X-53465709Y15693954D01*
X-53340954Y15818709D01*
X-53194257Y15916729D01*
X-53031256Y15984246D01*
X-52858215Y16018666D01*
X-52681785Y16018666D01*
X-52508744Y15984246D01*
G37*
G36*
X-49968744Y15984246D02*
G01*
X-49805743Y15916729D01*
X-49659046Y15818709D01*
X-49534291Y15693954D01*
X-49436271Y15547257D01*
X-49368754Y15384256D01*
X-49334334Y15211215D01*
X-49334334Y15034785D01*
X-49368754Y14861744D01*
X-49436271Y14698743D01*
X-49534291Y14552046D01*
X-49659046Y14427291D01*
X-49805743Y14329271D01*
X-49968744Y14261754D01*
X-50141785Y14227334D01*
X-50318215Y14227334D01*
X-50491256Y14261754D01*
X-50654257Y14329271D01*
X-50800954Y14427291D01*
X-50925709Y14552046D01*
X-51023729Y14698743D01*
X-51091246Y14861744D01*
X-51125666Y15034785D01*
X-51125666Y15211215D01*
X-51091246Y15384256D01*
X-51023729Y15547257D01*
X-50925709Y15693954D01*
X-50800954Y15818709D01*
X-50654257Y15916729D01*
X-50491256Y15984246D01*
X-50318215Y16018666D01*
X-50141785Y16018666D01*
X-49968744Y15984246D01*
G37*
G36*
X-47428744Y15984246D02*
G01*
X-47265743Y15916729D01*
X-47119046Y15818709D01*
X-46994291Y15693954D01*
X-46896271Y15547257D01*
X-46828754Y15384256D01*
X-46794334Y15211215D01*
X-46794334Y15034785D01*
X-46828754Y14861744D01*
X-46896271Y14698743D01*
X-46994291Y14552046D01*
X-47119046Y14427291D01*
X-47265743Y14329271D01*
X-47428744Y14261754D01*
X-47601785Y14227334D01*
X-47778215Y14227334D01*
X-47951256Y14261754D01*
X-48114257Y14329271D01*
X-48260954Y14427291D01*
X-48385709Y14552046D01*
X-48483729Y14698743D01*
X-48551246Y14861744D01*
X-48585666Y15034785D01*
X-48585666Y15211215D01*
X-48551246Y15384256D01*
X-48483729Y15547257D01*
X-48385709Y15693954D01*
X-48260954Y15818709D01*
X-48114257Y15916729D01*
X-47951256Y15984246D01*
X-47778215Y16018666D01*
X-47601785Y16018666D01*
X-47428744Y15984246D01*
G37*
G36*
X-44888744Y15984246D02*
G01*
X-44725743Y15916729D01*
X-44579046Y15818709D01*
X-44454291Y15693954D01*
X-44356271Y15547257D01*
X-44288754Y15384256D01*
X-44254334Y15211215D01*
X-44254334Y15034785D01*
X-44288754Y14861744D01*
X-44356271Y14698743D01*
X-44454291Y14552046D01*
X-44579046Y14427291D01*
X-44725743Y14329271D01*
X-44888744Y14261754D01*
X-45061785Y14227334D01*
X-45238215Y14227334D01*
X-45411256Y14261754D01*
X-45574257Y14329271D01*
X-45720954Y14427291D01*
X-45845709Y14552046D01*
X-45943729Y14698743D01*
X-46011246Y14861744D01*
X-46045666Y15034785D01*
X-46045666Y15211215D01*
X-46011246Y15384256D01*
X-45943729Y15547257D01*
X-45845709Y15693954D01*
X-45720954Y15818709D01*
X-45574257Y15916729D01*
X-45411256Y15984246D01*
X-45238215Y16018666D01*
X-45061785Y16018666D01*
X-44888744Y15984246D01*
G37*
G36*
X-42348744Y15984246D02*
G01*
X-42185743Y15916729D01*
X-42039046Y15818709D01*
X-41914291Y15693954D01*
X-41816271Y15547257D01*
X-41748754Y15384256D01*
X-41714334Y15211215D01*
X-41714334Y15034785D01*
X-41748754Y14861744D01*
X-41816271Y14698743D01*
X-41914291Y14552046D01*
X-42039046Y14427291D01*
X-42185743Y14329271D01*
X-42348744Y14261754D01*
X-42521785Y14227334D01*
X-42698215Y14227334D01*
X-42871256Y14261754D01*
X-43034257Y14329271D01*
X-43180954Y14427291D01*
X-43305709Y14552046D01*
X-43403729Y14698743D01*
X-43471246Y14861744D01*
X-43505666Y15034785D01*
X-43505666Y15211215D01*
X-43471246Y15384256D01*
X-43403729Y15547257D01*
X-43305709Y15693954D01*
X-43180954Y15818709D01*
X-43034257Y15916729D01*
X-42871256Y15984246D01*
X-42698215Y16018666D01*
X-42521785Y16018666D01*
X-42348744Y15984246D01*
G37*
G36*
X-39808744Y15984246D02*
G01*
X-39645743Y15916729D01*
X-39499046Y15818709D01*
X-39374291Y15693954D01*
X-39276271Y15547257D01*
X-39208754Y15384256D01*
X-39174334Y15211215D01*
X-39174334Y15034785D01*
X-39208754Y14861744D01*
X-39276271Y14698743D01*
X-39374291Y14552046D01*
X-39499046Y14427291D01*
X-39645743Y14329271D01*
X-39808744Y14261754D01*
X-39981785Y14227334D01*
X-40158215Y14227334D01*
X-40331256Y14261754D01*
X-40494257Y14329271D01*
X-40640954Y14427291D01*
X-40765709Y14552046D01*
X-40863729Y14698743D01*
X-40931246Y14861744D01*
X-40965666Y15034785D01*
X-40965666Y15211215D01*
X-40931246Y15384256D01*
X-40863729Y15547257D01*
X-40765709Y15693954D01*
X-40640954Y15818709D01*
X-40494257Y15916729D01*
X-40331256Y15984246D01*
X-40158215Y16018666D01*
X-39981785Y16018666D01*
X-39808744Y15984246D01*
G37*
G36*
X-37268744Y15984246D02*
G01*
X-37105743Y15916729D01*
X-36959046Y15818709D01*
X-36834291Y15693954D01*
X-36736271Y15547257D01*
X-36668754Y15384256D01*
X-36634334Y15211215D01*
X-36634334Y15034785D01*
X-36668754Y14861744D01*
X-36736271Y14698743D01*
X-36834291Y14552046D01*
X-36959046Y14427291D01*
X-37105743Y14329271D01*
X-37268744Y14261754D01*
X-37441785Y14227334D01*
X-37618215Y14227334D01*
X-37791256Y14261754D01*
X-37954257Y14329271D01*
X-38100954Y14427291D01*
X-38225709Y14552046D01*
X-38323729Y14698743D01*
X-38391246Y14861744D01*
X-38425666Y15034785D01*
X-38425666Y15211215D01*
X-38391246Y15384256D01*
X-38323729Y15547257D01*
X-38225709Y15693954D01*
X-38100954Y15818709D01*
X-37954257Y15916729D01*
X-37791256Y15984246D01*
X-37618215Y16018666D01*
X-37441785Y16018666D01*
X-37268744Y15984246D01*
G37*
G36*
X-34728744Y15984246D02*
G01*
X-34565743Y15916729D01*
X-34419046Y15818709D01*
X-34294291Y15693954D01*
X-34196271Y15547257D01*
X-34128754Y15384256D01*
X-34094334Y15211215D01*
X-34094334Y15034785D01*
X-34128754Y14861744D01*
X-34196271Y14698743D01*
X-34294291Y14552046D01*
X-34419046Y14427291D01*
X-34565743Y14329271D01*
X-34728744Y14261754D01*
X-34901785Y14227334D01*
X-35078215Y14227334D01*
X-35251256Y14261754D01*
X-35414257Y14329271D01*
X-35560954Y14427291D01*
X-35685709Y14552046D01*
X-35783729Y14698743D01*
X-35851246Y14861744D01*
X-35885666Y15034785D01*
X-35885666Y15211215D01*
X-35851246Y15384256D01*
X-35783729Y15547257D01*
X-35685709Y15693954D01*
X-35560954Y15818709D01*
X-35414257Y15916729D01*
X-35251256Y15984246D01*
X-35078215Y16018666D01*
X-34901785Y16018666D01*
X-34728744Y15984246D01*
G37*
G36*
X-32188744Y15984246D02*
G01*
X-32025743Y15916729D01*
X-31879046Y15818709D01*
X-31754291Y15693954D01*
X-31656271Y15547257D01*
X-31588754Y15384256D01*
X-31554334Y15211215D01*
X-31554334Y15034785D01*
X-31588754Y14861744D01*
X-31656271Y14698743D01*
X-31754291Y14552046D01*
X-31879046Y14427291D01*
X-32025743Y14329271D01*
X-32188744Y14261754D01*
X-32361785Y14227334D01*
X-32538215Y14227334D01*
X-32711256Y14261754D01*
X-32874257Y14329271D01*
X-33020954Y14427291D01*
X-33145709Y14552046D01*
X-33243729Y14698743D01*
X-33311246Y14861744D01*
X-33345666Y15034785D01*
X-33345666Y15211215D01*
X-33311246Y15384256D01*
X-33243729Y15547257D01*
X-33145709Y15693954D01*
X-33020954Y15818709D01*
X-32874257Y15916729D01*
X-32711256Y15984246D01*
X-32538215Y16018666D01*
X-32361785Y16018666D01*
X-32188744Y15984246D01*
G37*
G36*
X-29648744Y15984246D02*
G01*
X-29485743Y15916729D01*
X-29339046Y15818709D01*
X-29214291Y15693954D01*
X-29116271Y15547257D01*
X-29048754Y15384256D01*
X-29014334Y15211215D01*
X-29014334Y15034785D01*
X-29048754Y14861744D01*
X-29116271Y14698743D01*
X-29214291Y14552046D01*
X-29339046Y14427291D01*
X-29485743Y14329271D01*
X-29648744Y14261754D01*
X-29821785Y14227334D01*
X-29998215Y14227334D01*
X-30171256Y14261754D01*
X-30334257Y14329271D01*
X-30480954Y14427291D01*
X-30605709Y14552046D01*
X-30703729Y14698743D01*
X-30771246Y14861744D01*
X-30805666Y15034785D01*
X-30805666Y15211215D01*
X-30771246Y15384256D01*
X-30703729Y15547257D01*
X-30605709Y15693954D01*
X-30480954Y15818709D01*
X-30334257Y15916729D01*
X-30171256Y15984246D01*
X-29998215Y16018666D01*
X-29821785Y16018666D01*
X-29648744Y15984246D01*
G37*
G36*
X-70288744Y18524246D02*
G01*
X-70125743Y18456729D01*
X-69979046Y18358709D01*
X-69854291Y18233954D01*
X-69756271Y18087257D01*
X-69688754Y17924256D01*
X-69654334Y17751215D01*
X-69654334Y17574785D01*
X-69688754Y17401744D01*
X-69756271Y17238743D01*
X-69854291Y17092046D01*
X-69979046Y16967291D01*
X-70125743Y16869271D01*
X-70288744Y16801754D01*
X-70461785Y16767334D01*
X-70638215Y16767334D01*
X-70811256Y16801754D01*
X-70974257Y16869271D01*
X-71120954Y16967291D01*
X-71245709Y17092046D01*
X-71343729Y17238743D01*
X-71411246Y17401744D01*
X-71445666Y17574785D01*
X-71445666Y17751215D01*
X-71411246Y17924256D01*
X-71343729Y18087257D01*
X-71245709Y18233954D01*
X-71120954Y18358709D01*
X-70974257Y18456729D01*
X-70811256Y18524246D01*
X-70638215Y18558666D01*
X-70461785Y18558666D01*
X-70288744Y18524246D01*
G37*
G36*
X-67748744Y18524246D02*
G01*
X-67585743Y18456729D01*
X-67439046Y18358709D01*
X-67314291Y18233954D01*
X-67216271Y18087257D01*
X-67148754Y17924256D01*
X-67114334Y17751215D01*
X-67114334Y17574785D01*
X-67148754Y17401744D01*
X-67216271Y17238743D01*
X-67314291Y17092046D01*
X-67439046Y16967291D01*
X-67585743Y16869271D01*
X-67748744Y16801754D01*
X-67921785Y16767334D01*
X-68098215Y16767334D01*
X-68271256Y16801754D01*
X-68434257Y16869271D01*
X-68580954Y16967291D01*
X-68705709Y17092046D01*
X-68803729Y17238743D01*
X-68871246Y17401744D01*
X-68905666Y17574785D01*
X-68905666Y17751215D01*
X-68871246Y17924256D01*
X-68803729Y18087257D01*
X-68705709Y18233954D01*
X-68580954Y18358709D01*
X-68434257Y18456729D01*
X-68271256Y18524246D01*
X-68098215Y18558666D01*
X-67921785Y18558666D01*
X-67748744Y18524246D01*
G37*
G36*
X-65208744Y18524246D02*
G01*
X-65045743Y18456729D01*
X-64899046Y18358709D01*
X-64774291Y18233954D01*
X-64676271Y18087257D01*
X-64608754Y17924256D01*
X-64574334Y17751215D01*
X-64574334Y17574785D01*
X-64608754Y17401744D01*
X-64676271Y17238743D01*
X-64774291Y17092046D01*
X-64899046Y16967291D01*
X-65045743Y16869271D01*
X-65208744Y16801754D01*
X-65381785Y16767334D01*
X-65558215Y16767334D01*
X-65731256Y16801754D01*
X-65894257Y16869271D01*
X-66040954Y16967291D01*
X-66165709Y17092046D01*
X-66263729Y17238743D01*
X-66331246Y17401744D01*
X-66365666Y17574785D01*
X-66365666Y17751215D01*
X-66331246Y17924256D01*
X-66263729Y18087257D01*
X-66165709Y18233954D01*
X-66040954Y18358709D01*
X-65894257Y18456729D01*
X-65731256Y18524246D01*
X-65558215Y18558666D01*
X-65381785Y18558666D01*
X-65208744Y18524246D01*
G37*
G36*
X-62668744Y18524246D02*
G01*
X-62505743Y18456729D01*
X-62359046Y18358709D01*
X-62234291Y18233954D01*
X-62136271Y18087257D01*
X-62068754Y17924256D01*
X-62034334Y17751215D01*
X-62034334Y17574785D01*
X-62068754Y17401744D01*
X-62136271Y17238743D01*
X-62234291Y17092046D01*
X-62359046Y16967291D01*
X-62505743Y16869271D01*
X-62668744Y16801754D01*
X-62841785Y16767334D01*
X-63018215Y16767334D01*
X-63191256Y16801754D01*
X-63354257Y16869271D01*
X-63500954Y16967291D01*
X-63625709Y17092046D01*
X-63723729Y17238743D01*
X-63791246Y17401744D01*
X-63825666Y17574785D01*
X-63825666Y17751215D01*
X-63791246Y17924256D01*
X-63723729Y18087257D01*
X-63625709Y18233954D01*
X-63500954Y18358709D01*
X-63354257Y18456729D01*
X-63191256Y18524246D01*
X-63018215Y18558666D01*
X-62841785Y18558666D01*
X-62668744Y18524246D01*
G37*
G36*
X-60128744Y18524246D02*
G01*
X-59965743Y18456729D01*
X-59819046Y18358709D01*
X-59694291Y18233954D01*
X-59596271Y18087257D01*
X-59528754Y17924256D01*
X-59494334Y17751215D01*
X-59494334Y17574785D01*
X-59528754Y17401744D01*
X-59596271Y17238743D01*
X-59694291Y17092046D01*
X-59819046Y16967291D01*
X-59965743Y16869271D01*
X-60128744Y16801754D01*
X-60301785Y16767334D01*
X-60478215Y16767334D01*
X-60651256Y16801754D01*
X-60814257Y16869271D01*
X-60960954Y16967291D01*
X-61085709Y17092046D01*
X-61183729Y17238743D01*
X-61251246Y17401744D01*
X-61285666Y17574785D01*
X-61285666Y17751215D01*
X-61251246Y17924256D01*
X-61183729Y18087257D01*
X-61085709Y18233954D01*
X-60960954Y18358709D01*
X-60814257Y18456729D01*
X-60651256Y18524246D01*
X-60478215Y18558666D01*
X-60301785Y18558666D01*
X-60128744Y18524246D01*
G37*
G36*
X-57588744Y18524246D02*
G01*
X-57425743Y18456729D01*
X-57279046Y18358709D01*
X-57154291Y18233954D01*
X-57056271Y18087257D01*
X-56988754Y17924256D01*
X-56954334Y17751215D01*
X-56954334Y17574785D01*
X-56988754Y17401744D01*
X-57056271Y17238743D01*
X-57154291Y17092046D01*
X-57279046Y16967291D01*
X-57425743Y16869271D01*
X-57588744Y16801754D01*
X-57761785Y16767334D01*
X-57938215Y16767334D01*
X-58111256Y16801754D01*
X-58274257Y16869271D01*
X-58420954Y16967291D01*
X-58545709Y17092046D01*
X-58643729Y17238743D01*
X-58711246Y17401744D01*
X-58745666Y17574785D01*
X-58745666Y17751215D01*
X-58711246Y17924256D01*
X-58643729Y18087257D01*
X-58545709Y18233954D01*
X-58420954Y18358709D01*
X-58274257Y18456729D01*
X-58111256Y18524246D01*
X-57938215Y18558666D01*
X-57761785Y18558666D01*
X-57588744Y18524246D01*
G37*
G36*
X-55048744Y18524246D02*
G01*
X-54885743Y18456729D01*
X-54739046Y18358709D01*
X-54614291Y18233954D01*
X-54516271Y18087257D01*
X-54448754Y17924256D01*
X-54414334Y17751215D01*
X-54414334Y17574785D01*
X-54448754Y17401744D01*
X-54516271Y17238743D01*
X-54614291Y17092046D01*
X-54739046Y16967291D01*
X-54885743Y16869271D01*
X-55048744Y16801754D01*
X-55221785Y16767334D01*
X-55398215Y16767334D01*
X-55571256Y16801754D01*
X-55734257Y16869271D01*
X-55880954Y16967291D01*
X-56005709Y17092046D01*
X-56103729Y17238743D01*
X-56171246Y17401744D01*
X-56205666Y17574785D01*
X-56205666Y17751215D01*
X-56171246Y17924256D01*
X-56103729Y18087257D01*
X-56005709Y18233954D01*
X-55880954Y18358709D01*
X-55734257Y18456729D01*
X-55571256Y18524246D01*
X-55398215Y18558666D01*
X-55221785Y18558666D01*
X-55048744Y18524246D01*
G37*
G36*
X-52508744Y18524246D02*
G01*
X-52345743Y18456729D01*
X-52199046Y18358709D01*
X-52074291Y18233954D01*
X-51976271Y18087257D01*
X-51908754Y17924256D01*
X-51874334Y17751215D01*
X-51874334Y17574785D01*
X-51908754Y17401744D01*
X-51976271Y17238743D01*
X-52074291Y17092046D01*
X-52199046Y16967291D01*
X-52345743Y16869271D01*
X-52508744Y16801754D01*
X-52681785Y16767334D01*
X-52858215Y16767334D01*
X-53031256Y16801754D01*
X-53194257Y16869271D01*
X-53340954Y16967291D01*
X-53465709Y17092046D01*
X-53563729Y17238743D01*
X-53631246Y17401744D01*
X-53665666Y17574785D01*
X-53665666Y17751215D01*
X-53631246Y17924256D01*
X-53563729Y18087257D01*
X-53465709Y18233954D01*
X-53340954Y18358709D01*
X-53194257Y18456729D01*
X-53031256Y18524246D01*
X-52858215Y18558666D01*
X-52681785Y18558666D01*
X-52508744Y18524246D01*
G37*
G36*
X-49968744Y18524246D02*
G01*
X-49805743Y18456729D01*
X-49659046Y18358709D01*
X-49534291Y18233954D01*
X-49436271Y18087257D01*
X-49368754Y17924256D01*
X-49334334Y17751215D01*
X-49334334Y17574785D01*
X-49368754Y17401744D01*
X-49436271Y17238743D01*
X-49534291Y17092046D01*
X-49659046Y16967291D01*
X-49805743Y16869271D01*
X-49968744Y16801754D01*
X-50141785Y16767334D01*
X-50318215Y16767334D01*
X-50491256Y16801754D01*
X-50654257Y16869271D01*
X-50800954Y16967291D01*
X-50925709Y17092046D01*
X-51023729Y17238743D01*
X-51091246Y17401744D01*
X-51125666Y17574785D01*
X-51125666Y17751215D01*
X-51091246Y17924256D01*
X-51023729Y18087257D01*
X-50925709Y18233954D01*
X-50800954Y18358709D01*
X-50654257Y18456729D01*
X-50491256Y18524246D01*
X-50318215Y18558666D01*
X-50141785Y18558666D01*
X-49968744Y18524246D01*
G37*
G36*
X-47428744Y18524246D02*
G01*
X-47265743Y18456729D01*
X-47119046Y18358709D01*
X-46994291Y18233954D01*
X-46896271Y18087257D01*
X-46828754Y17924256D01*
X-46794334Y17751215D01*
X-46794334Y17574785D01*
X-46828754Y17401744D01*
X-46896271Y17238743D01*
X-46994291Y17092046D01*
X-47119046Y16967291D01*
X-47265743Y16869271D01*
X-47428744Y16801754D01*
X-47601785Y16767334D01*
X-47778215Y16767334D01*
X-47951256Y16801754D01*
X-48114257Y16869271D01*
X-48260954Y16967291D01*
X-48385709Y17092046D01*
X-48483729Y17238743D01*
X-48551246Y17401744D01*
X-48585666Y17574785D01*
X-48585666Y17751215D01*
X-48551246Y17924256D01*
X-48483729Y18087257D01*
X-48385709Y18233954D01*
X-48260954Y18358709D01*
X-48114257Y18456729D01*
X-47951256Y18524246D01*
X-47778215Y18558666D01*
X-47601785Y18558666D01*
X-47428744Y18524246D01*
G37*
G36*
X-44888744Y18524246D02*
G01*
X-44725743Y18456729D01*
X-44579046Y18358709D01*
X-44454291Y18233954D01*
X-44356271Y18087257D01*
X-44288754Y17924256D01*
X-44254334Y17751215D01*
X-44254334Y17574785D01*
X-44288754Y17401744D01*
X-44356271Y17238743D01*
X-44454291Y17092046D01*
X-44579046Y16967291D01*
X-44725743Y16869271D01*
X-44888744Y16801754D01*
X-45061785Y16767334D01*
X-45238215Y16767334D01*
X-45411256Y16801754D01*
X-45574257Y16869271D01*
X-45720954Y16967291D01*
X-45845709Y17092046D01*
X-45943729Y17238743D01*
X-46011246Y17401744D01*
X-46045666Y17574785D01*
X-46045666Y17751215D01*
X-46011246Y17924256D01*
X-45943729Y18087257D01*
X-45845709Y18233954D01*
X-45720954Y18358709D01*
X-45574257Y18456729D01*
X-45411256Y18524246D01*
X-45238215Y18558666D01*
X-45061785Y18558666D01*
X-44888744Y18524246D01*
G37*
G36*
X-42348744Y18524246D02*
G01*
X-42185743Y18456729D01*
X-42039046Y18358709D01*
X-41914291Y18233954D01*
X-41816271Y18087257D01*
X-41748754Y17924256D01*
X-41714334Y17751215D01*
X-41714334Y17574785D01*
X-41748754Y17401744D01*
X-41816271Y17238743D01*
X-41914291Y17092046D01*
X-42039046Y16967291D01*
X-42185743Y16869271D01*
X-42348744Y16801754D01*
X-42521785Y16767334D01*
X-42698215Y16767334D01*
X-42871256Y16801754D01*
X-43034257Y16869271D01*
X-43180954Y16967291D01*
X-43305709Y17092046D01*
X-43403729Y17238743D01*
X-43471246Y17401744D01*
X-43505666Y17574785D01*
X-43505666Y17751215D01*
X-43471246Y17924256D01*
X-43403729Y18087257D01*
X-43305709Y18233954D01*
X-43180954Y18358709D01*
X-43034257Y18456729D01*
X-42871256Y18524246D01*
X-42698215Y18558666D01*
X-42521785Y18558666D01*
X-42348744Y18524246D01*
G37*
G36*
X-39808744Y18524246D02*
G01*
X-39645743Y18456729D01*
X-39499046Y18358709D01*
X-39374291Y18233954D01*
X-39276271Y18087257D01*
X-39208754Y17924256D01*
X-39174334Y17751215D01*
X-39174334Y17574785D01*
X-39208754Y17401744D01*
X-39276271Y17238743D01*
X-39374291Y17092046D01*
X-39499046Y16967291D01*
X-39645743Y16869271D01*
X-39808744Y16801754D01*
X-39981785Y16767334D01*
X-40158215Y16767334D01*
X-40331256Y16801754D01*
X-40494257Y16869271D01*
X-40640954Y16967291D01*
X-40765709Y17092046D01*
X-40863729Y17238743D01*
X-40931246Y17401744D01*
X-40965666Y17574785D01*
X-40965666Y17751215D01*
X-40931246Y17924256D01*
X-40863729Y18087257D01*
X-40765709Y18233954D01*
X-40640954Y18358709D01*
X-40494257Y18456729D01*
X-40331256Y18524246D01*
X-40158215Y18558666D01*
X-39981785Y18558666D01*
X-39808744Y18524246D01*
G37*
G36*
X-37268744Y18524246D02*
G01*
X-37105743Y18456729D01*
X-36959046Y18358709D01*
X-36834291Y18233954D01*
X-36736271Y18087257D01*
X-36668754Y17924256D01*
X-36634334Y17751215D01*
X-36634334Y17574785D01*
X-36668754Y17401744D01*
X-36736271Y17238743D01*
X-36834291Y17092046D01*
X-36959046Y16967291D01*
X-37105743Y16869271D01*
X-37268744Y16801754D01*
X-37441785Y16767334D01*
X-37618215Y16767334D01*
X-37791256Y16801754D01*
X-37954257Y16869271D01*
X-38100954Y16967291D01*
X-38225709Y17092046D01*
X-38323729Y17238743D01*
X-38391246Y17401744D01*
X-38425666Y17574785D01*
X-38425666Y17751215D01*
X-38391246Y17924256D01*
X-38323729Y18087257D01*
X-38225709Y18233954D01*
X-38100954Y18358709D01*
X-37954257Y18456729D01*
X-37791256Y18524246D01*
X-37618215Y18558666D01*
X-37441785Y18558666D01*
X-37268744Y18524246D01*
G37*
G36*
X-34728744Y18524246D02*
G01*
X-34565743Y18456729D01*
X-34419046Y18358709D01*
X-34294291Y18233954D01*
X-34196271Y18087257D01*
X-34128754Y17924256D01*
X-34094334Y17751215D01*
X-34094334Y17574785D01*
X-34128754Y17401744D01*
X-34196271Y17238743D01*
X-34294291Y17092046D01*
X-34419046Y16967291D01*
X-34565743Y16869271D01*
X-34728744Y16801754D01*
X-34901785Y16767334D01*
X-35078215Y16767334D01*
X-35251256Y16801754D01*
X-35414257Y16869271D01*
X-35560954Y16967291D01*
X-35685709Y17092046D01*
X-35783729Y17238743D01*
X-35851246Y17401744D01*
X-35885666Y17574785D01*
X-35885666Y17751215D01*
X-35851246Y17924256D01*
X-35783729Y18087257D01*
X-35685709Y18233954D01*
X-35560954Y18358709D01*
X-35414257Y18456729D01*
X-35251256Y18524246D01*
X-35078215Y18558666D01*
X-34901785Y18558666D01*
X-34728744Y18524246D01*
G37*
G36*
X-32188744Y18524246D02*
G01*
X-32025743Y18456729D01*
X-31879046Y18358709D01*
X-31754291Y18233954D01*
X-31656271Y18087257D01*
X-31588754Y17924256D01*
X-31554334Y17751215D01*
X-31554334Y17574785D01*
X-31588754Y17401744D01*
X-31656271Y17238743D01*
X-31754291Y17092046D01*
X-31879046Y16967291D01*
X-32025743Y16869271D01*
X-32188744Y16801754D01*
X-32361785Y16767334D01*
X-32538215Y16767334D01*
X-32711256Y16801754D01*
X-32874257Y16869271D01*
X-33020954Y16967291D01*
X-33145709Y17092046D01*
X-33243729Y17238743D01*
X-33311246Y17401744D01*
X-33345666Y17574785D01*
X-33345666Y17751215D01*
X-33311246Y17924256D01*
X-33243729Y18087257D01*
X-33145709Y18233954D01*
X-33020954Y18358709D01*
X-32874257Y18456729D01*
X-32711256Y18524246D01*
X-32538215Y18558666D01*
X-32361785Y18558666D01*
X-32188744Y18524246D01*
G37*
G36*
X-29648744Y18524246D02*
G01*
X-29485743Y18456729D01*
X-29339046Y18358709D01*
X-29214291Y18233954D01*
X-29116271Y18087257D01*
X-29048754Y17924256D01*
X-29014334Y17751215D01*
X-29014334Y17574785D01*
X-29048754Y17401744D01*
X-29116271Y17238743D01*
X-29214291Y17092046D01*
X-29339046Y16967291D01*
X-29485743Y16869271D01*
X-29648744Y16801754D01*
X-29821785Y16767334D01*
X-29998215Y16767334D01*
X-30171256Y16801754D01*
X-30334257Y16869271D01*
X-30480954Y16967291D01*
X-30605709Y17092046D01*
X-30703729Y17238743D01*
X-30771246Y17401744D01*
X-30805666Y17574785D01*
X-30805666Y17751215D01*
X-30771246Y17924256D01*
X-30703729Y18087257D01*
X-30605709Y18233954D01*
X-30480954Y18358709D01*
X-30334257Y18456729D01*
X-30171256Y18524246D01*
X-29998215Y18558666D01*
X-29821785Y18558666D01*
X-29648744Y18524246D01*
G37*
G36*
X-27108744Y18524246D02*
G01*
X-26945743Y18456729D01*
X-26799046Y18358709D01*
X-26674291Y18233954D01*
X-26576271Y18087257D01*
X-26508754Y17924256D01*
X-26474334Y17751215D01*
X-26474334Y17574785D01*
X-26508754Y17401744D01*
X-26576271Y17238743D01*
X-26674291Y17092046D01*
X-26799046Y16967291D01*
X-26945743Y16869271D01*
X-27108744Y16801754D01*
X-27281785Y16767334D01*
X-27458215Y16767334D01*
X-27631256Y16801754D01*
X-27794257Y16869271D01*
X-27940954Y16967291D01*
X-28065709Y17092046D01*
X-28163729Y17238743D01*
X-28231246Y17401744D01*
X-28265666Y17574785D01*
X-28265666Y17751215D01*
X-28231246Y17924256D01*
X-28163729Y18087257D01*
X-28065709Y18233954D01*
X-27940954Y18358709D01*
X-27794257Y18456729D01*
X-27631256Y18524246D01*
X-27458215Y18558666D01*
X-27281785Y18558666D01*
X-27108744Y18524246D01*
G37*
G36*
X-7904809Y30144914D02*
G01*
X-7894245Y30144914D01*
X-7842226Y30136675D01*
X-7701826Y30118191D01*
X-7667565Y30109011D01*
X-7638518Y30104410D01*
X-7582658Y30086260D01*
X-7493365Y30062334D01*
X-7436394Y30038736D01*
X-7392275Y30024401D01*
X-7350948Y30003344D01*
X-7293970Y29979743D01*
X-7213900Y29933515D01*
X-7161580Y29906856D01*
X-7137794Y29889575D01*
X-7107079Y29871841D01*
X-6994728Y29785631D01*
X-6952114Y29754670D01*
X-6944645Y29747201D01*
X-6935855Y29740456D01*
X-6783248Y29587849D01*
X-6776504Y29579060D01*
X-6769033Y29571589D01*
X-6738069Y29528970D01*
X-6651863Y29416625D01*
X-6634131Y29385913D01*
X-6616847Y29362123D01*
X-6590186Y29309797D01*
X-6543961Y29229734D01*
X-6520363Y29172763D01*
X-6499302Y29131428D01*
X-6484965Y29087304D01*
X-6461370Y29030339D01*
X-6437448Y28941059D01*
X-6419293Y28885185D01*
X-6414692Y28856133D01*
X-6405513Y28821878D01*
X-6387030Y28681486D01*
X-6378789Y28629458D01*
X-6378789Y28618895D01*
X-6377343Y28607911D01*
X-6377343Y28392090D01*
X-6378789Y28381107D01*
X-6378789Y28370542D01*
X-6387031Y28318510D01*
X-6405513Y28178123D01*
X-6414692Y28143871D01*
X-6419293Y28114815D01*
X-6437449Y28058937D01*
X-6461370Y27969662D01*
X-6484964Y27912702D01*
X-6499302Y27868572D01*
X-6520366Y27827234D01*
X-6543961Y27770267D01*
X-6590182Y27690212D01*
X-6616847Y27637877D01*
X-6634134Y27614084D01*
X-6651863Y27583376D01*
X-6738055Y27471050D01*
X-6769033Y27428411D01*
X-6776508Y27420937D01*
X-6783248Y27412152D01*
X-6935855Y27259545D01*
X-6944640Y27252805D01*
X-6952114Y27245330D01*
X-6994753Y27214352D01*
X-7107079Y27128160D01*
X-7137787Y27110431D01*
X-7161580Y27093144D01*
X-7213915Y27066479D01*
X-7293970Y27020258D01*
X-7350937Y26996663D01*
X-7392275Y26975599D01*
X-7436405Y26961261D01*
X-7493365Y26937667D01*
X-7582640Y26913746D01*
X-7638518Y26895590D01*
X-7667574Y26890989D01*
X-7701826Y26881810D01*
X-7842213Y26863328D01*
X-7894245Y26855086D01*
X-7904810Y26855086D01*
X-7915793Y26853640D01*
X-8131613Y26853640D01*
X-8142596Y26855086D01*
X-8153161Y26855086D01*
X-8205192Y26863328D01*
X-8345581Y26881810D01*
X-8379836Y26890989D01*
X-8408888Y26895590D01*
X-8464762Y26913745D01*
X-8554042Y26937667D01*
X-8611007Y26961262D01*
X-8655131Y26975599D01*
X-8696466Y26996660D01*
X-8753437Y27020258D01*
X-8833500Y27066483D01*
X-8885826Y27093144D01*
X-8909616Y27110428D01*
X-8940328Y27128160D01*
X-9052673Y27214366D01*
X-9095292Y27245330D01*
X-9102763Y27252801D01*
X-9111552Y27259545D01*
X-9264159Y27412152D01*
X-9270904Y27420942D01*
X-9278373Y27428411D01*
X-9309334Y27471025D01*
X-9395544Y27583376D01*
X-9413278Y27614091D01*
X-9430559Y27637877D01*
X-9457218Y27690197D01*
X-9503446Y27770267D01*
X-9527047Y27827245D01*
X-9548104Y27868572D01*
X-9562439Y27912691D01*
X-9586037Y27969662D01*
X-9609963Y28058955D01*
X-9628113Y28114815D01*
X-9632714Y28143862D01*
X-9641894Y28178123D01*
X-9660378Y28318523D01*
X-9668617Y28370542D01*
X-9668617Y28381107D01*
X-9670063Y28392090D01*
X-9670063Y28607911D01*
X-9668617Y28618895D01*
X-9668617Y28629458D01*
X-9660379Y28681473D01*
X-9641894Y28821878D01*
X-9632714Y28856142D01*
X-9628113Y28885185D01*
X-9609965Y28941041D01*
X-9586037Y29030339D01*
X-9562438Y29087315D01*
X-9548104Y29131428D01*
X-9527049Y29172752D01*
X-9503446Y29229734D01*
X-9457214Y29309812D01*
X-9430559Y29362123D01*
X-9413280Y29385906D01*
X-9395544Y29416625D01*
X-9309320Y29528995D01*
X-9278373Y29571589D01*
X-9270907Y29579056D01*
X-9264159Y29587849D01*
X-9111552Y29740456D01*
X-9102759Y29747204D01*
X-9095292Y29754670D01*
X-9052698Y29785617D01*
X-8940328Y29871841D01*
X-8909609Y29889577D01*
X-8885826Y29906856D01*
X-8833515Y29933511D01*
X-8753437Y29979743D01*
X-8696455Y30003346D01*
X-8655131Y30024401D01*
X-8611018Y30038735D01*
X-8554042Y30062334D01*
X-8464744Y30086262D01*
X-8408888Y30104410D01*
X-8379845Y30109011D01*
X-8345581Y30118191D01*
X-8205179Y30136676D01*
X-8153161Y30144914D01*
X-8142597Y30144914D01*
X-8131613Y30146360D01*
X-7915793Y30146360D01*
X-7904809Y30144914D01*
G37*
G36*
X108142596Y30144914D02*
G01*
X108153160Y30144914D01*
X108205179Y30136675D01*
X108345579Y30118191D01*
X108379840Y30109011D01*
X108408887Y30104410D01*
X108464747Y30086260D01*
X108554040Y30062334D01*
X108611011Y30038736D01*
X108655130Y30024401D01*
X108696457Y30003344D01*
X108753435Y29979743D01*
X108833505Y29933515D01*
X108885825Y29906856D01*
X108909611Y29889575D01*
X108940326Y29871841D01*
X109052677Y29785631D01*
X109095291Y29754670D01*
X109102760Y29747201D01*
X109111550Y29740456D01*
X109264157Y29587849D01*
X109270901Y29579060D01*
X109278372Y29571589D01*
X109309336Y29528970D01*
X109395542Y29416625D01*
X109413274Y29385913D01*
X109430558Y29362123D01*
X109457219Y29309797D01*
X109503444Y29229734D01*
X109527042Y29172763D01*
X109548103Y29131428D01*
X109562440Y29087304D01*
X109586035Y29030339D01*
X109609957Y28941059D01*
X109628112Y28885185D01*
X109632713Y28856133D01*
X109641892Y28821878D01*
X109660375Y28681486D01*
X109668616Y28629458D01*
X109668616Y28618895D01*
X109670062Y28607911D01*
X109670062Y28392090D01*
X109668616Y28381107D01*
X109668616Y28370542D01*
X109660374Y28318510D01*
X109641892Y28178123D01*
X109632713Y28143871D01*
X109628112Y28114815D01*
X109609956Y28058937D01*
X109586035Y27969662D01*
X109562441Y27912702D01*
X109548103Y27868572D01*
X109527039Y27827234D01*
X109503444Y27770267D01*
X109457223Y27690212D01*
X109430558Y27637877D01*
X109413271Y27614084D01*
X109395542Y27583376D01*
X109309350Y27471050D01*
X109278372Y27428411D01*
X109270897Y27420937D01*
X109264157Y27412152D01*
X109111550Y27259545D01*
X109102765Y27252805D01*
X109095291Y27245330D01*
X109052652Y27214352D01*
X108940326Y27128160D01*
X108909618Y27110431D01*
X108885825Y27093144D01*
X108833490Y27066479D01*
X108753435Y27020258D01*
X108696468Y26996663D01*
X108655130Y26975599D01*
X108611000Y26961261D01*
X108554040Y26937667D01*
X108464765Y26913746D01*
X108408887Y26895590D01*
X108379831Y26890989D01*
X108345579Y26881810D01*
X108205192Y26863328D01*
X108153160Y26855086D01*
X108142595Y26855086D01*
X108131612Y26853640D01*
X107915792Y26853640D01*
X107904809Y26855086D01*
X107894244Y26855086D01*
X107842213Y26863328D01*
X107701824Y26881810D01*
X107667569Y26890989D01*
X107638517Y26895590D01*
X107582643Y26913745D01*
X107493363Y26937667D01*
X107436398Y26961262D01*
X107392274Y26975599D01*
X107350939Y26996660D01*
X107293968Y27020258D01*
X107213905Y27066483D01*
X107161579Y27093144D01*
X107137789Y27110428D01*
X107107077Y27128160D01*
X106994732Y27214366D01*
X106952113Y27245330D01*
X106944642Y27252801D01*
X106935853Y27259545D01*
X106783246Y27412152D01*
X106776501Y27420942D01*
X106769032Y27428411D01*
X106738071Y27471025D01*
X106651861Y27583376D01*
X106634127Y27614091D01*
X106616846Y27637877D01*
X106590187Y27690197D01*
X106543959Y27770267D01*
X106520358Y27827245D01*
X106499301Y27868572D01*
X106484966Y27912691D01*
X106461368Y27969662D01*
X106437442Y28058955D01*
X106419292Y28114815D01*
X106414691Y28143862D01*
X106405511Y28178123D01*
X106387027Y28318523D01*
X106378788Y28370542D01*
X106378788Y28381107D01*
X106377342Y28392090D01*
X106377342Y28607911D01*
X106378788Y28618895D01*
X106378788Y28629458D01*
X106387026Y28681473D01*
X106405511Y28821878D01*
X106414691Y28856142D01*
X106419292Y28885185D01*
X106437440Y28941041D01*
X106461368Y29030339D01*
X106484967Y29087315D01*
X106499301Y29131428D01*
X106520356Y29172752D01*
X106543959Y29229734D01*
X106590191Y29309812D01*
X106616846Y29362123D01*
X106634125Y29385906D01*
X106651861Y29416625D01*
X106738085Y29528995D01*
X106769032Y29571589D01*
X106776498Y29579056D01*
X106783246Y29587849D01*
X106935853Y29740456D01*
X106944646Y29747204D01*
X106952113Y29754670D01*
X106994707Y29785617D01*
X107107077Y29871841D01*
X107137796Y29889577D01*
X107161579Y29906856D01*
X107213890Y29933511D01*
X107293968Y29979743D01*
X107350950Y30003346D01*
X107392274Y30024401D01*
X107436387Y30038735D01*
X107493363Y30062334D01*
X107582661Y30086262D01*
X107638517Y30104410D01*
X107667560Y30109011D01*
X107701824Y30118191D01*
X107842226Y30136676D01*
X107894244Y30144914D01*
X107904808Y30144914D01*
X107915792Y30146360D01*
X108131612Y30146360D01*
X108142596Y30144914D01*
G37*
G36*
X50118894Y63644914D02*
G01*
X50129458Y63644914D01*
X50181477Y63636675D01*
X50321877Y63618191D01*
X50356138Y63609011D01*
X50385185Y63604410D01*
X50441045Y63586260D01*
X50530338Y63562334D01*
X50587309Y63538736D01*
X50631428Y63524401D01*
X50672755Y63503344D01*
X50729733Y63479743D01*
X50809803Y63433515D01*
X50862123Y63406856D01*
X50885909Y63389575D01*
X50916624Y63371841D01*
X51028975Y63285631D01*
X51071589Y63254670D01*
X51079058Y63247201D01*
X51087848Y63240456D01*
X51240455Y63087849D01*
X51247199Y63079060D01*
X51254670Y63071589D01*
X51285634Y63028970D01*
X51371840Y62916625D01*
X51389572Y62885913D01*
X51406856Y62862123D01*
X51433517Y62809797D01*
X51479742Y62729734D01*
X51503340Y62672763D01*
X51524401Y62631428D01*
X51538738Y62587304D01*
X51562333Y62530339D01*
X51586255Y62441059D01*
X51604410Y62385185D01*
X51609011Y62356133D01*
X51618190Y62321878D01*
X51636673Y62181486D01*
X51644914Y62129458D01*
X51644914Y62118895D01*
X51646360Y62107911D01*
X51646360Y61892090D01*
X51644914Y61881107D01*
X51644914Y61870542D01*
X51636672Y61818510D01*
X51618190Y61678123D01*
X51609011Y61643871D01*
X51604410Y61614815D01*
X51586254Y61558937D01*
X51562333Y61469662D01*
X51538739Y61412702D01*
X51524401Y61368572D01*
X51503337Y61327234D01*
X51479742Y61270267D01*
X51433521Y61190212D01*
X51406856Y61137877D01*
X51389569Y61114084D01*
X51371840Y61083376D01*
X51285648Y60971050D01*
X51254670Y60928411D01*
X51247195Y60920937D01*
X51240455Y60912152D01*
X51087848Y60759545D01*
X51079063Y60752805D01*
X51071589Y60745330D01*
X51028950Y60714352D01*
X50916624Y60628160D01*
X50885916Y60610431D01*
X50862123Y60593144D01*
X50809788Y60566479D01*
X50729733Y60520258D01*
X50672766Y60496663D01*
X50631428Y60475599D01*
X50587298Y60461261D01*
X50530338Y60437667D01*
X50441063Y60413746D01*
X50385185Y60395590D01*
X50356129Y60390989D01*
X50321877Y60381810D01*
X50181490Y60363328D01*
X50129458Y60355086D01*
X50118893Y60355086D01*
X50107910Y60353640D01*
X49892090Y60353640D01*
X49881107Y60355086D01*
X49870542Y60355086D01*
X49818511Y60363328D01*
X49678122Y60381810D01*
X49643867Y60390989D01*
X49614815Y60395590D01*
X49558941Y60413745D01*
X49469661Y60437667D01*
X49412696Y60461262D01*
X49368572Y60475599D01*
X49327237Y60496660D01*
X49270266Y60520258D01*
X49190203Y60566483D01*
X49137877Y60593144D01*
X49114087Y60610428D01*
X49083375Y60628160D01*
X48971030Y60714366D01*
X48928411Y60745330D01*
X48920940Y60752801D01*
X48912151Y60759545D01*
X48759544Y60912152D01*
X48752799Y60920942D01*
X48745330Y60928411D01*
X48714369Y60971025D01*
X48628159Y61083376D01*
X48610425Y61114091D01*
X48593144Y61137877D01*
X48566485Y61190197D01*
X48520257Y61270267D01*
X48496656Y61327245D01*
X48475599Y61368572D01*
X48461264Y61412691D01*
X48437666Y61469662D01*
X48413740Y61558955D01*
X48395590Y61614815D01*
X48390989Y61643862D01*
X48381809Y61678123D01*
X48363325Y61818523D01*
X48355086Y61870542D01*
X48355086Y61881107D01*
X48353640Y61892090D01*
X48353640Y62107911D01*
X48355086Y62118895D01*
X48355086Y62129458D01*
X48363324Y62181473D01*
X48381809Y62321878D01*
X48390989Y62356142D01*
X48395590Y62385185D01*
X48413738Y62441041D01*
X48437666Y62530339D01*
X48461265Y62587315D01*
X48475599Y62631428D01*
X48496654Y62672752D01*
X48520257Y62729734D01*
X48566489Y62809812D01*
X48593144Y62862123D01*
X48610423Y62885906D01*
X48628159Y62916625D01*
X48714383Y63028995D01*
X48745330Y63071589D01*
X48752796Y63079056D01*
X48759544Y63087849D01*
X48912151Y63240456D01*
X48920944Y63247204D01*
X48928411Y63254670D01*
X48971005Y63285617D01*
X49083375Y63371841D01*
X49114094Y63389577D01*
X49137877Y63406856D01*
X49190188Y63433511D01*
X49270266Y63479743D01*
X49327248Y63503346D01*
X49368572Y63524401D01*
X49412685Y63538735D01*
X49469661Y63562334D01*
X49558959Y63586262D01*
X49614815Y63604410D01*
X49643858Y63609011D01*
X49678122Y63618191D01*
X49818524Y63636676D01*
X49870542Y63644914D01*
X49881106Y63644914D01*
X49892090Y63646360D01*
X50107910Y63646360D01*
X50118894Y63644914D01*
G37*
M02*
