%TF.GenerationSoftware,KiCad,Pcbnew,9.0.7*%
%TF.CreationDate,2026-04-04T13:25:15+02:00*%
%TF.ProjectId,Prime_Maxel-v3,5072696d-655f-44d6-9178-656c2d76332e,rev?*%
%TF.SameCoordinates,Original*%
%TF.FileFunction,Drillmap*%
%TF.FilePolarity,Positive*%
%FSLAX45Y45*%
G04 Gerber Fmt 4.5, Leading zero omitted, Abs format (unit mm)*
G04 Created by KiCad (PCBNEW 9.0.7) date 2026-04-04 13:25:15*
%MOMM*%
%LPD*%
G01*
G04 APERTURE LIST*
%ADD10C,0.100000*%
%ADD11C,0.200000*%
%ADD12C,0.320000*%
G04 APERTURE END LIST*
D10*
X8126136Y-7500000D02*
X2300000Y-7500000D01*
X2000000Y-7800000D02*
X2000000Y-16700000D01*
X2000000Y-7800000D02*
G75*
G02*
X2300000Y-7500000I300000J0D01*
G01*
X2300000Y-17000000D02*
G75*
G02*
X2000000Y-16700000I0J300000D01*
G01*
X2300000Y-17000000D02*
X11258343Y-17000000D01*
X8126136Y-7500000D02*
G75*
G02*
X11258343Y-17000000I6873863J-3000000D01*
G01*
D11*
D12*
X9037630Y-6990000D02*
X9357630Y-7310000D01*
X9357630Y-6990000D02*
X9037630Y-7310000D01*
X9037630Y-13690000D02*
X9357630Y-14010000D01*
X9357630Y-13690000D02*
X9037630Y-14010000D01*
X14840000Y-3640000D02*
X15160000Y-3960000D01*
X15160000Y-3640000D02*
X14840000Y-3960000D01*
X14840000Y-17040000D02*
X15160000Y-17360000D01*
X15160000Y-17040000D02*
X14840000Y-17360000D01*
X20642370Y-6990000D02*
X20962370Y-7310000D01*
X20962370Y-6990000D02*
X20642370Y-7310000D01*
X20642370Y-13690000D02*
X20962370Y-14010000D01*
X20962370Y-13690000D02*
X20642370Y-14010000D01*
D11*
X2255777Y-18316484D02*
X2255777Y-18116484D01*
X2255777Y-18116484D02*
X2303396Y-18116484D01*
X2303396Y-18116484D02*
X2331967Y-18126008D01*
X2331967Y-18126008D02*
X2351015Y-18145055D01*
X2351015Y-18145055D02*
X2360539Y-18164103D01*
X2360539Y-18164103D02*
X2370063Y-18202198D01*
X2370063Y-18202198D02*
X2370063Y-18230770D01*
X2370063Y-18230770D02*
X2360539Y-18268865D01*
X2360539Y-18268865D02*
X2351015Y-18287912D01*
X2351015Y-18287912D02*
X2331967Y-18306960D01*
X2331967Y-18306960D02*
X2303396Y-18316484D01*
X2303396Y-18316484D02*
X2255777Y-18316484D01*
X2455777Y-18316484D02*
X2455777Y-18183150D01*
X2455777Y-18221246D02*
X2465301Y-18202198D01*
X2465301Y-18202198D02*
X2474824Y-18192674D01*
X2474824Y-18192674D02*
X2493872Y-18183150D01*
X2493872Y-18183150D02*
X2512920Y-18183150D01*
X2579586Y-18316484D02*
X2579586Y-18183150D01*
X2579586Y-18116484D02*
X2570063Y-18126008D01*
X2570063Y-18126008D02*
X2579586Y-18135531D01*
X2579586Y-18135531D02*
X2589110Y-18126008D01*
X2589110Y-18126008D02*
X2579586Y-18116484D01*
X2579586Y-18116484D02*
X2579586Y-18135531D01*
X2703396Y-18316484D02*
X2684348Y-18306960D01*
X2684348Y-18306960D02*
X2674824Y-18287912D01*
X2674824Y-18287912D02*
X2674824Y-18116484D01*
X2808158Y-18316484D02*
X2789110Y-18306960D01*
X2789110Y-18306960D02*
X2779586Y-18287912D01*
X2779586Y-18287912D02*
X2779586Y-18116484D01*
X3036729Y-18316484D02*
X3036729Y-18116484D01*
X3036729Y-18116484D02*
X3103396Y-18259341D01*
X3103396Y-18259341D02*
X3170062Y-18116484D01*
X3170062Y-18116484D02*
X3170062Y-18316484D01*
X3351015Y-18316484D02*
X3351015Y-18211722D01*
X3351015Y-18211722D02*
X3341491Y-18192674D01*
X3341491Y-18192674D02*
X3322443Y-18183150D01*
X3322443Y-18183150D02*
X3284348Y-18183150D01*
X3284348Y-18183150D02*
X3265301Y-18192674D01*
X3351015Y-18306960D02*
X3331967Y-18316484D01*
X3331967Y-18316484D02*
X3284348Y-18316484D01*
X3284348Y-18316484D02*
X3265301Y-18306960D01*
X3265301Y-18306960D02*
X3255777Y-18287912D01*
X3255777Y-18287912D02*
X3255777Y-18268865D01*
X3255777Y-18268865D02*
X3265301Y-18249817D01*
X3265301Y-18249817D02*
X3284348Y-18240293D01*
X3284348Y-18240293D02*
X3331967Y-18240293D01*
X3331967Y-18240293D02*
X3351015Y-18230770D01*
X3446253Y-18183150D02*
X3446253Y-18383150D01*
X3446253Y-18192674D02*
X3465301Y-18183150D01*
X3465301Y-18183150D02*
X3503396Y-18183150D01*
X3503396Y-18183150D02*
X3522443Y-18192674D01*
X3522443Y-18192674D02*
X3531967Y-18202198D01*
X3531967Y-18202198D02*
X3541491Y-18221246D01*
X3541491Y-18221246D02*
X3541491Y-18278389D01*
X3541491Y-18278389D02*
X3531967Y-18297436D01*
X3531967Y-18297436D02*
X3522443Y-18306960D01*
X3522443Y-18306960D02*
X3503396Y-18316484D01*
X3503396Y-18316484D02*
X3465301Y-18316484D01*
X3465301Y-18316484D02*
X3446253Y-18306960D01*
X3627205Y-18297436D02*
X3636729Y-18306960D01*
X3636729Y-18306960D02*
X3627205Y-18316484D01*
X3627205Y-18316484D02*
X3617682Y-18306960D01*
X3617682Y-18306960D02*
X3627205Y-18297436D01*
X3627205Y-18297436D02*
X3627205Y-18316484D01*
X3627205Y-18192674D02*
X3636729Y-18202198D01*
X3636729Y-18202198D02*
X3627205Y-18211722D01*
X3627205Y-18211722D02*
X3617682Y-18202198D01*
X3617682Y-18202198D02*
X3627205Y-18192674D01*
X3627205Y-18192674D02*
X3627205Y-18211722D01*
X1795000Y-18545000D02*
X1995000Y-18745000D01*
X1995000Y-18545000D02*
X1795000Y-18745000D01*
X2236729Y-18536484D02*
X2360539Y-18536484D01*
X2360539Y-18536484D02*
X2293872Y-18612674D01*
X2293872Y-18612674D02*
X2322444Y-18612674D01*
X2322444Y-18612674D02*
X2341491Y-18622198D01*
X2341491Y-18622198D02*
X2351015Y-18631722D01*
X2351015Y-18631722D02*
X2360539Y-18650770D01*
X2360539Y-18650770D02*
X2360539Y-18698389D01*
X2360539Y-18698389D02*
X2351015Y-18717436D01*
X2351015Y-18717436D02*
X2341491Y-18726960D01*
X2341491Y-18726960D02*
X2322444Y-18736484D01*
X2322444Y-18736484D02*
X2265301Y-18736484D01*
X2265301Y-18736484D02*
X2246253Y-18726960D01*
X2246253Y-18726960D02*
X2236729Y-18717436D01*
X2446253Y-18717436D02*
X2455777Y-18726960D01*
X2455777Y-18726960D02*
X2446253Y-18736484D01*
X2446253Y-18736484D02*
X2436729Y-18726960D01*
X2436729Y-18726960D02*
X2446253Y-18717436D01*
X2446253Y-18717436D02*
X2446253Y-18736484D01*
X2531967Y-18555531D02*
X2541491Y-18546008D01*
X2541491Y-18546008D02*
X2560539Y-18536484D01*
X2560539Y-18536484D02*
X2608158Y-18536484D01*
X2608158Y-18536484D02*
X2627205Y-18546008D01*
X2627205Y-18546008D02*
X2636729Y-18555531D01*
X2636729Y-18555531D02*
X2646253Y-18574579D01*
X2646253Y-18574579D02*
X2646253Y-18593627D01*
X2646253Y-18593627D02*
X2636729Y-18622198D01*
X2636729Y-18622198D02*
X2522444Y-18736484D01*
X2522444Y-18736484D02*
X2646253Y-18736484D01*
X2770063Y-18536484D02*
X2789110Y-18536484D01*
X2789110Y-18536484D02*
X2808158Y-18546008D01*
X2808158Y-18546008D02*
X2817682Y-18555531D01*
X2817682Y-18555531D02*
X2827205Y-18574579D01*
X2827205Y-18574579D02*
X2836729Y-18612674D01*
X2836729Y-18612674D02*
X2836729Y-18660293D01*
X2836729Y-18660293D02*
X2827205Y-18698389D01*
X2827205Y-18698389D02*
X2817682Y-18717436D01*
X2817682Y-18717436D02*
X2808158Y-18726960D01*
X2808158Y-18726960D02*
X2789110Y-18736484D01*
X2789110Y-18736484D02*
X2770063Y-18736484D01*
X2770063Y-18736484D02*
X2751015Y-18726960D01*
X2751015Y-18726960D02*
X2741491Y-18717436D01*
X2741491Y-18717436D02*
X2731967Y-18698389D01*
X2731967Y-18698389D02*
X2722444Y-18660293D01*
X2722444Y-18660293D02*
X2722444Y-18612674D01*
X2722444Y-18612674D02*
X2731967Y-18574579D01*
X2731967Y-18574579D02*
X2741491Y-18555531D01*
X2741491Y-18555531D02*
X2751015Y-18546008D01*
X2751015Y-18546008D02*
X2770063Y-18536484D01*
X2960539Y-18536484D02*
X2979586Y-18536484D01*
X2979586Y-18536484D02*
X2998634Y-18546008D01*
X2998634Y-18546008D02*
X3008158Y-18555531D01*
X3008158Y-18555531D02*
X3017682Y-18574579D01*
X3017682Y-18574579D02*
X3027205Y-18612674D01*
X3027205Y-18612674D02*
X3027205Y-18660293D01*
X3027205Y-18660293D02*
X3017682Y-18698389D01*
X3017682Y-18698389D02*
X3008158Y-18717436D01*
X3008158Y-18717436D02*
X2998634Y-18726960D01*
X2998634Y-18726960D02*
X2979586Y-18736484D01*
X2979586Y-18736484D02*
X2960539Y-18736484D01*
X2960539Y-18736484D02*
X2941491Y-18726960D01*
X2941491Y-18726960D02*
X2931967Y-18717436D01*
X2931967Y-18717436D02*
X2922443Y-18698389D01*
X2922443Y-18698389D02*
X2912920Y-18660293D01*
X2912920Y-18660293D02*
X2912920Y-18612674D01*
X2912920Y-18612674D02*
X2922443Y-18574579D01*
X2922443Y-18574579D02*
X2931967Y-18555531D01*
X2931967Y-18555531D02*
X2941491Y-18546008D01*
X2941491Y-18546008D02*
X2960539Y-18536484D01*
X3112920Y-18736484D02*
X3112920Y-18603150D01*
X3112920Y-18622198D02*
X3122443Y-18612674D01*
X3122443Y-18612674D02*
X3141491Y-18603150D01*
X3141491Y-18603150D02*
X3170063Y-18603150D01*
X3170063Y-18603150D02*
X3189110Y-18612674D01*
X3189110Y-18612674D02*
X3198634Y-18631722D01*
X3198634Y-18631722D02*
X3198634Y-18736484D01*
X3198634Y-18631722D02*
X3208158Y-18612674D01*
X3208158Y-18612674D02*
X3227205Y-18603150D01*
X3227205Y-18603150D02*
X3255777Y-18603150D01*
X3255777Y-18603150D02*
X3274824Y-18612674D01*
X3274824Y-18612674D02*
X3284348Y-18631722D01*
X3284348Y-18631722D02*
X3284348Y-18736484D01*
X3379586Y-18736484D02*
X3379586Y-18603150D01*
X3379586Y-18622198D02*
X3389110Y-18612674D01*
X3389110Y-18612674D02*
X3408158Y-18603150D01*
X3408158Y-18603150D02*
X3436729Y-18603150D01*
X3436729Y-18603150D02*
X3455777Y-18612674D01*
X3455777Y-18612674D02*
X3465301Y-18631722D01*
X3465301Y-18631722D02*
X3465301Y-18736484D01*
X3465301Y-18631722D02*
X3474824Y-18612674D01*
X3474824Y-18612674D02*
X3493872Y-18603150D01*
X3493872Y-18603150D02*
X3522443Y-18603150D01*
X3522443Y-18603150D02*
X3541491Y-18612674D01*
X3541491Y-18612674D02*
X3551015Y-18631722D01*
X3551015Y-18631722D02*
X3551015Y-18736484D01*
X3941491Y-18526960D02*
X3770063Y-18784103D01*
X4198634Y-18536484D02*
X4217682Y-18536484D01*
X4217682Y-18536484D02*
X4236729Y-18546008D01*
X4236729Y-18546008D02*
X4246253Y-18555531D01*
X4246253Y-18555531D02*
X4255777Y-18574579D01*
X4255777Y-18574579D02*
X4265301Y-18612674D01*
X4265301Y-18612674D02*
X4265301Y-18660293D01*
X4265301Y-18660293D02*
X4255777Y-18698389D01*
X4255777Y-18698389D02*
X4246253Y-18717436D01*
X4246253Y-18717436D02*
X4236729Y-18726960D01*
X4236729Y-18726960D02*
X4217682Y-18736484D01*
X4217682Y-18736484D02*
X4198634Y-18736484D01*
X4198634Y-18736484D02*
X4179586Y-18726960D01*
X4179586Y-18726960D02*
X4170063Y-18717436D01*
X4170063Y-18717436D02*
X4160539Y-18698389D01*
X4160539Y-18698389D02*
X4151015Y-18660293D01*
X4151015Y-18660293D02*
X4151015Y-18612674D01*
X4151015Y-18612674D02*
X4160539Y-18574579D01*
X4160539Y-18574579D02*
X4170063Y-18555531D01*
X4170063Y-18555531D02*
X4179586Y-18546008D01*
X4179586Y-18546008D02*
X4198634Y-18536484D01*
X4351015Y-18717436D02*
X4360539Y-18726960D01*
X4360539Y-18726960D02*
X4351015Y-18736484D01*
X4351015Y-18736484D02*
X4341491Y-18726960D01*
X4341491Y-18726960D02*
X4351015Y-18717436D01*
X4351015Y-18717436D02*
X4351015Y-18736484D01*
X4551015Y-18736484D02*
X4436729Y-18736484D01*
X4493872Y-18736484D02*
X4493872Y-18536484D01*
X4493872Y-18536484D02*
X4474825Y-18565055D01*
X4474825Y-18565055D02*
X4455777Y-18584103D01*
X4455777Y-18584103D02*
X4436729Y-18593627D01*
X4627206Y-18555531D02*
X4636729Y-18546008D01*
X4636729Y-18546008D02*
X4655777Y-18536484D01*
X4655777Y-18536484D02*
X4703396Y-18536484D01*
X4703396Y-18536484D02*
X4722444Y-18546008D01*
X4722444Y-18546008D02*
X4731968Y-18555531D01*
X4731968Y-18555531D02*
X4741491Y-18574579D01*
X4741491Y-18574579D02*
X4741491Y-18593627D01*
X4741491Y-18593627D02*
X4731968Y-18622198D01*
X4731968Y-18622198D02*
X4617682Y-18736484D01*
X4617682Y-18736484D02*
X4741491Y-18736484D01*
X4912920Y-18536484D02*
X4874825Y-18536484D01*
X4874825Y-18536484D02*
X4855777Y-18546008D01*
X4855777Y-18546008D02*
X4846253Y-18555531D01*
X4846253Y-18555531D02*
X4827206Y-18584103D01*
X4827206Y-18584103D02*
X4817682Y-18622198D01*
X4817682Y-18622198D02*
X4817682Y-18698389D01*
X4817682Y-18698389D02*
X4827206Y-18717436D01*
X4827206Y-18717436D02*
X4836729Y-18726960D01*
X4836729Y-18726960D02*
X4855777Y-18736484D01*
X4855777Y-18736484D02*
X4893872Y-18736484D01*
X4893872Y-18736484D02*
X4912920Y-18726960D01*
X4912920Y-18726960D02*
X4922444Y-18717436D01*
X4922444Y-18717436D02*
X4931968Y-18698389D01*
X4931968Y-18698389D02*
X4931968Y-18650770D01*
X4931968Y-18650770D02*
X4922444Y-18631722D01*
X4922444Y-18631722D02*
X4912920Y-18622198D01*
X4912920Y-18622198D02*
X4893872Y-18612674D01*
X4893872Y-18612674D02*
X4855777Y-18612674D01*
X4855777Y-18612674D02*
X4836729Y-18622198D01*
X4836729Y-18622198D02*
X4827206Y-18631722D01*
X4827206Y-18631722D02*
X4817682Y-18650770D01*
X5055777Y-18536484D02*
X5074825Y-18536484D01*
X5074825Y-18536484D02*
X5093872Y-18546008D01*
X5093872Y-18546008D02*
X5103396Y-18555531D01*
X5103396Y-18555531D02*
X5112920Y-18574579D01*
X5112920Y-18574579D02*
X5122444Y-18612674D01*
X5122444Y-18612674D02*
X5122444Y-18660293D01*
X5122444Y-18660293D02*
X5112920Y-18698389D01*
X5112920Y-18698389D02*
X5103396Y-18717436D01*
X5103396Y-18717436D02*
X5093872Y-18726960D01*
X5093872Y-18726960D02*
X5074825Y-18736484D01*
X5074825Y-18736484D02*
X5055777Y-18736484D01*
X5055777Y-18736484D02*
X5036729Y-18726960D01*
X5036729Y-18726960D02*
X5027206Y-18717436D01*
X5027206Y-18717436D02*
X5017682Y-18698389D01*
X5017682Y-18698389D02*
X5008158Y-18660293D01*
X5008158Y-18660293D02*
X5008158Y-18612674D01*
X5008158Y-18612674D02*
X5017682Y-18574579D01*
X5017682Y-18574579D02*
X5027206Y-18555531D01*
X5027206Y-18555531D02*
X5036729Y-18546008D01*
X5036729Y-18546008D02*
X5055777Y-18536484D01*
X5198634Y-18536484D02*
X5198634Y-18574579D01*
X5274825Y-18536484D02*
X5274825Y-18574579D01*
X5570063Y-18812674D02*
X5560539Y-18803150D01*
X5560539Y-18803150D02*
X5541491Y-18774579D01*
X5541491Y-18774579D02*
X5531968Y-18755531D01*
X5531968Y-18755531D02*
X5522444Y-18726960D01*
X5522444Y-18726960D02*
X5512920Y-18679341D01*
X5512920Y-18679341D02*
X5512920Y-18641246D01*
X5512920Y-18641246D02*
X5522444Y-18593627D01*
X5522444Y-18593627D02*
X5531968Y-18565055D01*
X5531968Y-18565055D02*
X5541491Y-18546008D01*
X5541491Y-18546008D02*
X5560539Y-18517436D01*
X5560539Y-18517436D02*
X5570063Y-18507912D01*
X5731968Y-18536484D02*
X5693872Y-18536484D01*
X5693872Y-18536484D02*
X5674825Y-18546008D01*
X5674825Y-18546008D02*
X5665301Y-18555531D01*
X5665301Y-18555531D02*
X5646253Y-18584103D01*
X5646253Y-18584103D02*
X5636729Y-18622198D01*
X5636729Y-18622198D02*
X5636729Y-18698389D01*
X5636729Y-18698389D02*
X5646253Y-18717436D01*
X5646253Y-18717436D02*
X5655777Y-18726960D01*
X5655777Y-18726960D02*
X5674825Y-18736484D01*
X5674825Y-18736484D02*
X5712920Y-18736484D01*
X5712920Y-18736484D02*
X5731968Y-18726960D01*
X5731968Y-18726960D02*
X5741491Y-18717436D01*
X5741491Y-18717436D02*
X5751015Y-18698389D01*
X5751015Y-18698389D02*
X5751015Y-18650770D01*
X5751015Y-18650770D02*
X5741491Y-18631722D01*
X5741491Y-18631722D02*
X5731968Y-18622198D01*
X5731968Y-18622198D02*
X5712920Y-18612674D01*
X5712920Y-18612674D02*
X5674825Y-18612674D01*
X5674825Y-18612674D02*
X5655777Y-18622198D01*
X5655777Y-18622198D02*
X5646253Y-18631722D01*
X5646253Y-18631722D02*
X5636729Y-18650770D01*
X5989110Y-18736484D02*
X5989110Y-18536484D01*
X6074825Y-18736484D02*
X6074825Y-18631722D01*
X6074825Y-18631722D02*
X6065301Y-18612674D01*
X6065301Y-18612674D02*
X6046253Y-18603150D01*
X6046253Y-18603150D02*
X6017682Y-18603150D01*
X6017682Y-18603150D02*
X5998634Y-18612674D01*
X5998634Y-18612674D02*
X5989110Y-18622198D01*
X6198634Y-18736484D02*
X6179587Y-18726960D01*
X6179587Y-18726960D02*
X6170063Y-18717436D01*
X6170063Y-18717436D02*
X6160539Y-18698389D01*
X6160539Y-18698389D02*
X6160539Y-18641246D01*
X6160539Y-18641246D02*
X6170063Y-18622198D01*
X6170063Y-18622198D02*
X6179587Y-18612674D01*
X6179587Y-18612674D02*
X6198634Y-18603150D01*
X6198634Y-18603150D02*
X6227206Y-18603150D01*
X6227206Y-18603150D02*
X6246253Y-18612674D01*
X6246253Y-18612674D02*
X6255777Y-18622198D01*
X6255777Y-18622198D02*
X6265301Y-18641246D01*
X6265301Y-18641246D02*
X6265301Y-18698389D01*
X6265301Y-18698389D02*
X6255777Y-18717436D01*
X6255777Y-18717436D02*
X6246253Y-18726960D01*
X6246253Y-18726960D02*
X6227206Y-18736484D01*
X6227206Y-18736484D02*
X6198634Y-18736484D01*
X6379587Y-18736484D02*
X6360539Y-18726960D01*
X6360539Y-18726960D02*
X6351015Y-18707912D01*
X6351015Y-18707912D02*
X6351015Y-18536484D01*
X6531968Y-18726960D02*
X6512920Y-18736484D01*
X6512920Y-18736484D02*
X6474825Y-18736484D01*
X6474825Y-18736484D02*
X6455777Y-18726960D01*
X6455777Y-18726960D02*
X6446253Y-18707912D01*
X6446253Y-18707912D02*
X6446253Y-18631722D01*
X6446253Y-18631722D02*
X6455777Y-18612674D01*
X6455777Y-18612674D02*
X6474825Y-18603150D01*
X6474825Y-18603150D02*
X6512920Y-18603150D01*
X6512920Y-18603150D02*
X6531968Y-18612674D01*
X6531968Y-18612674D02*
X6541491Y-18631722D01*
X6541491Y-18631722D02*
X6541491Y-18650770D01*
X6541491Y-18650770D02*
X6446253Y-18669817D01*
X6617682Y-18726960D02*
X6636730Y-18736484D01*
X6636730Y-18736484D02*
X6674825Y-18736484D01*
X6674825Y-18736484D02*
X6693872Y-18726960D01*
X6693872Y-18726960D02*
X6703396Y-18707912D01*
X6703396Y-18707912D02*
X6703396Y-18698389D01*
X6703396Y-18698389D02*
X6693872Y-18679341D01*
X6693872Y-18679341D02*
X6674825Y-18669817D01*
X6674825Y-18669817D02*
X6646253Y-18669817D01*
X6646253Y-18669817D02*
X6627206Y-18660293D01*
X6627206Y-18660293D02*
X6617682Y-18641246D01*
X6617682Y-18641246D02*
X6617682Y-18631722D01*
X6617682Y-18631722D02*
X6627206Y-18612674D01*
X6627206Y-18612674D02*
X6646253Y-18603150D01*
X6646253Y-18603150D02*
X6674825Y-18603150D01*
X6674825Y-18603150D02*
X6693872Y-18612674D01*
X6770063Y-18812674D02*
X6779587Y-18803150D01*
X6779587Y-18803150D02*
X6798634Y-18774579D01*
X6798634Y-18774579D02*
X6808158Y-18755531D01*
X6808158Y-18755531D02*
X6817682Y-18726960D01*
X6817682Y-18726960D02*
X6827206Y-18679341D01*
X6827206Y-18679341D02*
X6827206Y-18641246D01*
X6827206Y-18641246D02*
X6817682Y-18593627D01*
X6817682Y-18593627D02*
X6808158Y-18565055D01*
X6808158Y-18565055D02*
X6798634Y-18546008D01*
X6798634Y-18546008D02*
X6779587Y-18517436D01*
X6779587Y-18517436D02*
X6770063Y-18507912D01*
X7131968Y-18812674D02*
X7122444Y-18803150D01*
X7122444Y-18803150D02*
X7103396Y-18774579D01*
X7103396Y-18774579D02*
X7093872Y-18755531D01*
X7093872Y-18755531D02*
X7084349Y-18726960D01*
X7084349Y-18726960D02*
X7074825Y-18679341D01*
X7074825Y-18679341D02*
X7074825Y-18641246D01*
X7074825Y-18641246D02*
X7084349Y-18593627D01*
X7084349Y-18593627D02*
X7093872Y-18565055D01*
X7093872Y-18565055D02*
X7103396Y-18546008D01*
X7103396Y-18546008D02*
X7122444Y-18517436D01*
X7122444Y-18517436D02*
X7131968Y-18507912D01*
X7208158Y-18603150D02*
X7208158Y-18736484D01*
X7208158Y-18622198D02*
X7217682Y-18612674D01*
X7217682Y-18612674D02*
X7236730Y-18603150D01*
X7236730Y-18603150D02*
X7265301Y-18603150D01*
X7265301Y-18603150D02*
X7284349Y-18612674D01*
X7284349Y-18612674D02*
X7293872Y-18631722D01*
X7293872Y-18631722D02*
X7293872Y-18736484D01*
X7417682Y-18736484D02*
X7398634Y-18726960D01*
X7398634Y-18726960D02*
X7389111Y-18717436D01*
X7389111Y-18717436D02*
X7379587Y-18698389D01*
X7379587Y-18698389D02*
X7379587Y-18641246D01*
X7379587Y-18641246D02*
X7389111Y-18622198D01*
X7389111Y-18622198D02*
X7398634Y-18612674D01*
X7398634Y-18612674D02*
X7417682Y-18603150D01*
X7417682Y-18603150D02*
X7446253Y-18603150D01*
X7446253Y-18603150D02*
X7465301Y-18612674D01*
X7465301Y-18612674D02*
X7474825Y-18622198D01*
X7474825Y-18622198D02*
X7484349Y-18641246D01*
X7484349Y-18641246D02*
X7484349Y-18698389D01*
X7484349Y-18698389D02*
X7474825Y-18717436D01*
X7474825Y-18717436D02*
X7465301Y-18726960D01*
X7465301Y-18726960D02*
X7446253Y-18736484D01*
X7446253Y-18736484D02*
X7417682Y-18736484D01*
X7541492Y-18603150D02*
X7617682Y-18603150D01*
X7570063Y-18536484D02*
X7570063Y-18707912D01*
X7570063Y-18707912D02*
X7579587Y-18726960D01*
X7579587Y-18726960D02*
X7598634Y-18736484D01*
X7598634Y-18736484D02*
X7617682Y-18736484D01*
X7836730Y-18603150D02*
X7836730Y-18803150D01*
X7836730Y-18612674D02*
X7855777Y-18603150D01*
X7855777Y-18603150D02*
X7893873Y-18603150D01*
X7893873Y-18603150D02*
X7912920Y-18612674D01*
X7912920Y-18612674D02*
X7922444Y-18622198D01*
X7922444Y-18622198D02*
X7931968Y-18641246D01*
X7931968Y-18641246D02*
X7931968Y-18698389D01*
X7931968Y-18698389D02*
X7922444Y-18717436D01*
X7922444Y-18717436D02*
X7912920Y-18726960D01*
X7912920Y-18726960D02*
X7893873Y-18736484D01*
X7893873Y-18736484D02*
X7855777Y-18736484D01*
X7855777Y-18736484D02*
X7836730Y-18726960D01*
X8046253Y-18736484D02*
X8027206Y-18726960D01*
X8027206Y-18726960D02*
X8017682Y-18707912D01*
X8017682Y-18707912D02*
X8017682Y-18536484D01*
X8208158Y-18736484D02*
X8208158Y-18631722D01*
X8208158Y-18631722D02*
X8198634Y-18612674D01*
X8198634Y-18612674D02*
X8179587Y-18603150D01*
X8179587Y-18603150D02*
X8141492Y-18603150D01*
X8141492Y-18603150D02*
X8122444Y-18612674D01*
X8208158Y-18726960D02*
X8189111Y-18736484D01*
X8189111Y-18736484D02*
X8141492Y-18736484D01*
X8141492Y-18736484D02*
X8122444Y-18726960D01*
X8122444Y-18726960D02*
X8112920Y-18707912D01*
X8112920Y-18707912D02*
X8112920Y-18688865D01*
X8112920Y-18688865D02*
X8122444Y-18669817D01*
X8122444Y-18669817D02*
X8141492Y-18660293D01*
X8141492Y-18660293D02*
X8189111Y-18660293D01*
X8189111Y-18660293D02*
X8208158Y-18650770D01*
X8274825Y-18603150D02*
X8351015Y-18603150D01*
X8303396Y-18536484D02*
X8303396Y-18707912D01*
X8303396Y-18707912D02*
X8312920Y-18726960D01*
X8312920Y-18726960D02*
X8331968Y-18736484D01*
X8331968Y-18736484D02*
X8351015Y-18736484D01*
X8493873Y-18726960D02*
X8474825Y-18736484D01*
X8474825Y-18736484D02*
X8436730Y-18736484D01*
X8436730Y-18736484D02*
X8417682Y-18726960D01*
X8417682Y-18726960D02*
X8408158Y-18707912D01*
X8408158Y-18707912D02*
X8408158Y-18631722D01*
X8408158Y-18631722D02*
X8417682Y-18612674D01*
X8417682Y-18612674D02*
X8436730Y-18603150D01*
X8436730Y-18603150D02*
X8474825Y-18603150D01*
X8474825Y-18603150D02*
X8493873Y-18612674D01*
X8493873Y-18612674D02*
X8503396Y-18631722D01*
X8503396Y-18631722D02*
X8503396Y-18650770D01*
X8503396Y-18650770D02*
X8408158Y-18669817D01*
X8674825Y-18736484D02*
X8674825Y-18536484D01*
X8674825Y-18726960D02*
X8655777Y-18736484D01*
X8655777Y-18736484D02*
X8617682Y-18736484D01*
X8617682Y-18736484D02*
X8598635Y-18726960D01*
X8598635Y-18726960D02*
X8589111Y-18717436D01*
X8589111Y-18717436D02*
X8579587Y-18698389D01*
X8579587Y-18698389D02*
X8579587Y-18641246D01*
X8579587Y-18641246D02*
X8589111Y-18622198D01*
X8589111Y-18622198D02*
X8598635Y-18612674D01*
X8598635Y-18612674D02*
X8617682Y-18603150D01*
X8617682Y-18603150D02*
X8655777Y-18603150D01*
X8655777Y-18603150D02*
X8674825Y-18612674D01*
X8751016Y-18812674D02*
X8760539Y-18803150D01*
X8760539Y-18803150D02*
X8779587Y-18774579D01*
X8779587Y-18774579D02*
X8789111Y-18755531D01*
X8789111Y-18755531D02*
X8798635Y-18726960D01*
X8798635Y-18726960D02*
X8808158Y-18679341D01*
X8808158Y-18679341D02*
X8808158Y-18641246D01*
X8808158Y-18641246D02*
X8798635Y-18593627D01*
X8798635Y-18593627D02*
X8789111Y-18565055D01*
X8789111Y-18565055D02*
X8779587Y-18546008D01*
X8779587Y-18546008D02*
X8760539Y-18517436D01*
X8760539Y-18517436D02*
X8751016Y-18507912D01*
M02*
