%TF.GenerationSoftware,KiCad,Pcbnew,9.0.7*%
%TF.CreationDate,2026-04-04T13:25:15+02:00*%
%TF.ProjectId,Prime_Maxel-v3,5072696d-655f-44d6-9178-656c2d76332e,rev?*%
%TF.SameCoordinates,Original*%
%TF.FileFunction,Drillmap*%
%TF.FilePolarity,Positive*%
%FSLAX45Y45*%
G04 Gerber Fmt 4.5, Leading zero omitted, Abs format (unit mm)*
G04 Created by KiCad (PCBNEW 9.0.7) date 2026-04-04 13:25:15*
%MOMM*%
%LPD*%
G01*
G04 APERTURE LIST*
%ADD10C,0.100000*%
%ADD11C,0.200000*%
G04 APERTURE END LIST*
D10*
X8126136Y-7500000D02*
X2300000Y-7500000D01*
X2000000Y-7800000D02*
X2000000Y-16700000D01*
X2000000Y-7800000D02*
G75*
G02*
X2300000Y-7500000I300000J0D01*
G01*
X2300000Y-17000000D02*
G75*
G02*
X2000000Y-16700000I0J300000D01*
G01*
X2300000Y-17000000D02*
X11258343Y-17000000D01*
X8126136Y-7500000D02*
G75*
G02*
X11258343Y-17000000I6873863J-3000000D01*
G01*
D11*
D10*
X8385000Y-13295000D02*
X8415000Y-13325000D01*
X8415000Y-13295000D02*
X8385000Y-13325000D01*
X8485000Y-7715000D02*
X8515000Y-7745000D01*
X8515000Y-7715000D02*
X8485000Y-7745000D01*
X9378306Y-7838306D02*
X9408306Y-7868306D01*
X9408306Y-7838306D02*
X9378306Y-7868306D01*
X9545000Y-11935000D02*
X9575000Y-11965000D01*
X9575000Y-11935000D02*
X9545000Y-11965000D01*
X9555000Y-9035000D02*
X9585000Y-9065000D01*
X9585000Y-9035000D02*
X9555000Y-9065000D01*
X9915000Y-13565000D02*
X9945000Y-13595000D01*
X9945000Y-13565000D02*
X9915000Y-13595000D01*
X9985000Y-13665000D02*
X10015000Y-13695000D01*
X10015000Y-13665000D02*
X9985000Y-13695000D01*
X10045000Y-11805000D02*
X10075000Y-11835000D01*
X10075000Y-11805000D02*
X10045000Y-11835000D01*
X10055000Y-9165000D02*
X10085000Y-9195000D01*
X10085000Y-9165000D02*
X10055000Y-9195000D01*
X10145000Y-13425000D02*
X10175000Y-13455000D01*
X10175000Y-13425000D02*
X10145000Y-13455000D01*
X10145000Y-16435000D02*
X10175000Y-16465000D01*
X10175000Y-16435000D02*
X10145000Y-16465000D01*
X10215000Y-13515000D02*
X10245000Y-13545000D01*
X10245000Y-13515000D02*
X10215000Y-13545000D01*
X10365000Y-10045000D02*
X10395000Y-10075000D01*
X10395000Y-10045000D02*
X10365000Y-10075000D01*
X10495000Y-11695000D02*
X10525000Y-11725000D01*
X10525000Y-11695000D02*
X10495000Y-11725000D01*
X10505000Y-9285000D02*
X10535000Y-9315000D01*
X10535000Y-9285000D02*
X10505000Y-9315000D01*
X10525000Y-11485000D02*
X10555000Y-11515000D01*
X10555000Y-11485000D02*
X10525000Y-11515000D01*
X10655000Y-9135000D02*
X10685000Y-9165000D01*
X10685000Y-9135000D02*
X10655000Y-9165000D01*
X10685000Y-16435000D02*
X10715000Y-16465000D01*
X10715000Y-16435000D02*
X10685000Y-16465000D01*
X10715000Y-12395000D02*
X10745000Y-12425000D01*
X10745000Y-12395000D02*
X10715000Y-12425000D01*
X10740353Y-9347650D02*
X10770353Y-9377650D01*
X10770353Y-9347650D02*
X10740353Y-9377650D01*
X10740353Y-11622350D02*
X10770353Y-11652350D01*
X10770353Y-11622350D02*
X10740353Y-11652350D01*
X10825000Y-9855000D02*
X10855000Y-9885000D01*
X10855000Y-9855000D02*
X10825000Y-9885000D01*
X10885000Y-9645000D02*
X10915000Y-9675000D01*
X10915000Y-9645000D02*
X10885000Y-9675000D01*
X10885000Y-11455000D02*
X10915000Y-11485000D01*
X10915000Y-11455000D02*
X10885000Y-11485000D01*
X10935000Y-11065000D02*
X10965000Y-11095000D01*
X10965000Y-11065000D02*
X10935000Y-11095000D01*
X10945000Y-9275000D02*
X10975000Y-9305000D01*
X10975000Y-9275000D02*
X10945000Y-9305000D01*
X10945000Y-11515000D02*
X10975000Y-11545000D01*
X10975000Y-11515000D02*
X10945000Y-11545000D01*
X10965000Y-9365000D02*
X10995000Y-9395000D01*
X10995000Y-9365000D02*
X10965000Y-9395000D01*
X10995000Y-10335000D02*
X11025000Y-10365000D01*
X11025000Y-10335000D02*
X10995000Y-10365000D01*
X11005000Y-11815000D02*
X11035000Y-11845000D01*
X11035000Y-11815000D02*
X11005000Y-11845000D01*
X11015000Y-6515000D02*
X11045000Y-6545000D01*
X11045000Y-6515000D02*
X11015000Y-6545000D01*
X11025000Y-14465000D02*
X11055000Y-14495000D01*
X11055000Y-14465000D02*
X11025000Y-14495000D01*
X11045000Y-12015000D02*
X11075000Y-12045000D01*
X11075000Y-12015000D02*
X11045000Y-12045000D01*
X11105000Y-9825000D02*
X11135000Y-9855000D01*
X11135000Y-9825000D02*
X11105000Y-9855000D01*
X11175000Y-9465000D02*
X11205000Y-9495000D01*
X11205000Y-9465000D02*
X11175000Y-9495000D01*
X11175000Y-11505000D02*
X11205000Y-11535000D01*
X11205000Y-11505000D02*
X11175000Y-11535000D01*
X11185000Y-7745000D02*
X11215000Y-7775000D01*
X11215000Y-7745000D02*
X11185000Y-7775000D01*
X11215000Y-8965000D02*
X11245000Y-8995000D01*
X11245000Y-8965000D02*
X11215000Y-8995000D01*
X11275000Y-9715000D02*
X11305000Y-9745000D01*
X11305000Y-9715000D02*
X11275000Y-9745000D01*
X11285000Y-11885000D02*
X11315000Y-11915000D01*
X11315000Y-11885000D02*
X11285000Y-11915000D01*
X11375000Y-9615000D02*
X11405000Y-9645000D01*
X11405000Y-9615000D02*
X11375000Y-9645000D01*
X11375000Y-14105000D02*
X11405000Y-14135000D01*
X11405000Y-14105000D02*
X11375000Y-14135000D01*
X11385000Y-6885000D02*
X11415000Y-6915000D01*
X11415000Y-6885000D02*
X11385000Y-6915000D01*
X11395000Y-11685000D02*
X11425000Y-11715000D01*
X11425000Y-11685000D02*
X11395000Y-11715000D01*
X11435738Y-12265000D02*
X11465738Y-12295000D01*
X11465738Y-12265000D02*
X11435738Y-12295000D01*
X11445000Y-11535000D02*
X11475000Y-11565000D01*
X11475000Y-11535000D02*
X11445000Y-11565000D01*
X11605000Y-8335000D02*
X11635000Y-8365000D01*
X11635000Y-8335000D02*
X11605000Y-8365000D01*
X11645000Y-13565000D02*
X11675000Y-13595000D01*
X11675000Y-13565000D02*
X11645000Y-13595000D01*
X11695000Y-7205000D02*
X11725000Y-7235000D01*
X11725000Y-7205000D02*
X11695000Y-7235000D01*
X11695000Y-7845000D02*
X11725000Y-7875000D01*
X11725000Y-7845000D02*
X11695000Y-7875000D01*
X11705000Y-13765000D02*
X11735000Y-13795000D01*
X11735000Y-13765000D02*
X11705000Y-13795000D01*
X11775000Y-13025000D02*
X11805000Y-13055000D01*
X11805000Y-13025000D02*
X11775000Y-13055000D01*
X11815000Y-7715000D02*
X11845000Y-7745000D01*
X11845000Y-7715000D02*
X11815000Y-7745000D01*
X11845000Y-9735000D02*
X11875000Y-9765000D01*
X11875000Y-9735000D02*
X11845000Y-9765000D01*
X11877703Y-7377703D02*
X11907703Y-7407703D01*
X11907703Y-7377703D02*
X11877703Y-7407703D01*
X11877703Y-13592297D02*
X11907703Y-13622297D01*
X11907703Y-13592297D02*
X11877703Y-13622297D01*
X11895000Y-7135000D02*
X11925000Y-7165000D01*
X11925000Y-7135000D02*
X11895000Y-7165000D01*
X11905000Y-9905000D02*
X11935000Y-9935000D01*
X11935000Y-9905000D02*
X11905000Y-9935000D01*
X11905000Y-9995000D02*
X11935000Y-10025000D01*
X11935000Y-9995000D02*
X11905000Y-10025000D01*
X11915000Y-7945000D02*
X11945000Y-7975000D01*
X11945000Y-7945000D02*
X11915000Y-7975000D01*
X11925000Y-11415000D02*
X11955000Y-11445000D01*
X11955000Y-11415000D02*
X11925000Y-11445000D01*
X11925000Y-13385000D02*
X11955000Y-13415000D01*
X11955000Y-13385000D02*
X11925000Y-13415000D01*
X12005000Y-13405000D02*
X12035000Y-13435000D01*
X12035000Y-13405000D02*
X12005000Y-13435000D01*
X12055000Y-11575000D02*
X12085000Y-11605000D01*
X12085000Y-11575000D02*
X12055000Y-11605000D01*
X12065000Y-7515000D02*
X12095000Y-7545000D01*
X12095000Y-7515000D02*
X12065000Y-7545000D01*
X12075000Y-11655000D02*
X12105000Y-11685000D01*
X12105000Y-11655000D02*
X12075000Y-11685000D01*
X12085000Y-7415000D02*
X12115000Y-7445000D01*
X12115000Y-7415000D02*
X12085000Y-7445000D01*
X12165000Y-7955000D02*
X12195000Y-7985000D01*
X12195000Y-7955000D02*
X12165000Y-7985000D01*
X12195000Y-7695000D02*
X12225000Y-7725000D01*
X12225000Y-7695000D02*
X12195000Y-7725000D01*
X12195000Y-13275000D02*
X12225000Y-13305000D01*
X12225000Y-13275000D02*
X12195000Y-13305000D01*
X12245000Y-13635000D02*
X12275000Y-13665000D01*
X12275000Y-13635000D02*
X12245000Y-13665000D01*
X12275000Y-11425000D02*
X12305000Y-11455000D01*
X12305000Y-11425000D02*
X12275000Y-11455000D01*
X12275000Y-12105000D02*
X12305000Y-12135000D01*
X12305000Y-12105000D02*
X12275000Y-12135000D01*
X12275000Y-14285000D02*
X12305000Y-14315000D01*
X12305000Y-14285000D02*
X12275000Y-14315000D01*
X12295000Y-7935000D02*
X12325000Y-7965000D01*
X12325000Y-7935000D02*
X12295000Y-7965000D01*
X12345000Y-12215000D02*
X12375000Y-12245000D01*
X12375000Y-12215000D02*
X12345000Y-12245000D01*
X12365000Y-13755000D02*
X12395000Y-13785000D01*
X12395000Y-13755000D02*
X12365000Y-13785000D01*
X12435000Y-13175000D02*
X12465000Y-13205000D01*
X12465000Y-13175000D02*
X12435000Y-13205000D01*
X12455000Y-8475000D02*
X12485000Y-8505000D01*
X12485000Y-8475000D02*
X12455000Y-8505000D01*
X12455000Y-13545000D02*
X12485000Y-13575000D01*
X12485000Y-13545000D02*
X12455000Y-13575000D01*
X12465000Y-7275000D02*
X12495000Y-7305000D01*
X12495000Y-7275000D02*
X12465000Y-7305000D01*
X12475000Y-13335000D02*
X12505000Y-13365000D01*
X12505000Y-13335000D02*
X12475000Y-13365000D01*
X12535000Y-8405000D02*
X12565000Y-8435000D01*
X12565000Y-8405000D02*
X12535000Y-8435000D01*
X12615000Y-12015000D02*
X12645000Y-12045000D01*
X12645000Y-12015000D02*
X12615000Y-12045000D01*
X12645000Y-8275000D02*
X12675000Y-8305000D01*
X12675000Y-8275000D02*
X12645000Y-8305000D01*
X12785000Y-12835000D02*
X12815000Y-12865000D01*
X12815000Y-12835000D02*
X12785000Y-12865000D01*
X12885000Y-13805000D02*
X12915000Y-13835000D01*
X12915000Y-13805000D02*
X12885000Y-13835000D01*
X12995000Y-12915000D02*
X13025000Y-12945000D01*
X13025000Y-12915000D02*
X12995000Y-12945000D01*
X13065000Y-12975000D02*
X13095000Y-13005000D01*
X13095000Y-12975000D02*
X13065000Y-13005000D01*
X13075000Y-6225000D02*
X13105000Y-6255000D01*
X13105000Y-6225000D02*
X13075000Y-6255000D01*
X13175000Y-6925000D02*
X13205000Y-6955000D01*
X13205000Y-6925000D02*
X13175000Y-6955000D01*
X13255000Y-12665000D02*
X13285000Y-12695000D01*
X13285000Y-12665000D02*
X13255000Y-12695000D01*
X13435000Y-6545000D02*
X13465000Y-6575000D01*
X13465000Y-6545000D02*
X13435000Y-6575000D01*
X13465000Y-14325000D02*
X13495000Y-14355000D01*
X13495000Y-14325000D02*
X13465000Y-14355000D01*
X13525000Y-15945000D02*
X13555000Y-15975000D01*
X13555000Y-15945000D02*
X13525000Y-15975000D01*
X13535000Y-5075000D02*
X13565000Y-5105000D01*
X13565000Y-5075000D02*
X13535000Y-5105000D01*
X13575000Y-6755000D02*
X13605000Y-6785000D01*
X13605000Y-6755000D02*
X13575000Y-6785000D01*
X13625000Y-14835000D02*
X13655000Y-14865000D01*
X13655000Y-14835000D02*
X13625000Y-14865000D01*
X13635000Y-6485000D02*
X13665000Y-6515000D01*
X13665000Y-6485000D02*
X13635000Y-6515000D01*
X13665000Y-5555000D02*
X13695000Y-5585000D01*
X13695000Y-5555000D02*
X13665000Y-5585000D01*
X13665000Y-15415000D02*
X13695000Y-15445000D01*
X13695000Y-15415000D02*
X13665000Y-15445000D01*
X13775000Y-5995000D02*
X13805000Y-6025000D01*
X13805000Y-5995000D02*
X13775000Y-6025000D01*
X13775000Y-14525000D02*
X13805000Y-14555000D01*
X13805000Y-14525000D02*
X13775000Y-14555000D01*
X13785000Y-14965000D02*
X13815000Y-14995000D01*
X13815000Y-14965000D02*
X13785000Y-14995000D01*
X13815000Y-6895000D02*
X13845000Y-6925000D01*
X13845000Y-6895000D02*
X13815000Y-6925000D01*
X13825000Y-7565000D02*
X13855000Y-7595000D01*
X13855000Y-7565000D02*
X13825000Y-7595000D01*
X13847650Y-6240353D02*
X13877650Y-6270353D01*
X13877650Y-6240353D02*
X13847650Y-6270353D01*
X13847650Y-14729647D02*
X13877650Y-14759647D01*
X13877650Y-14729647D02*
X13847650Y-14759647D01*
X13865000Y-7875000D02*
X13895000Y-7905000D01*
X13895000Y-7875000D02*
X13865000Y-7905000D01*
X13865000Y-14505000D02*
X13895000Y-14535000D01*
X13895000Y-14505000D02*
X13865000Y-14535000D01*
X13915000Y-7525000D02*
X13945000Y-7555000D01*
X13945000Y-7525000D02*
X13915000Y-7555000D01*
X13935000Y-6945000D02*
X13965000Y-6975000D01*
X13965000Y-6945000D02*
X13935000Y-6975000D01*
X13955000Y-6435000D02*
X13985000Y-6465000D01*
X13985000Y-6435000D02*
X13955000Y-6465000D01*
X13965000Y-14295000D02*
X13995000Y-14325000D01*
X13995000Y-14295000D02*
X13965000Y-14325000D01*
X13975000Y-5985000D02*
X14005000Y-6015000D01*
X14005000Y-5985000D02*
X13975000Y-6015000D01*
X13975000Y-6665000D02*
X14005000Y-6695000D01*
X14005000Y-6665000D02*
X13975000Y-6695000D01*
X14015000Y-6375000D02*
X14045000Y-6405000D01*
X14045000Y-6375000D02*
X14015000Y-6405000D01*
X14075000Y-7455000D02*
X14105000Y-7485000D01*
X14105000Y-7455000D02*
X14075000Y-7485000D01*
X14135000Y-14075000D02*
X14165000Y-14105000D01*
X14165000Y-14075000D02*
X14135000Y-14105000D01*
X14175000Y-14595000D02*
X14205000Y-14625000D01*
X14205000Y-14595000D02*
X14175000Y-14625000D01*
X14215000Y-14175000D02*
X14245000Y-14205000D01*
X14245000Y-14175000D02*
X14215000Y-14205000D01*
X14245000Y-9905000D02*
X14275000Y-9935000D01*
X14275000Y-9905000D02*
X14245000Y-9935000D01*
X14245000Y-10865000D02*
X14275000Y-10895000D01*
X14275000Y-10865000D02*
X14245000Y-10895000D01*
X14265000Y-13605000D02*
X14295000Y-13635000D01*
X14295000Y-13605000D02*
X14265000Y-13635000D01*
X14315000Y-14415000D02*
X14345000Y-14445000D01*
X14345000Y-14415000D02*
X14315000Y-14445000D01*
X14345000Y-10235000D02*
X14375000Y-10265000D01*
X14375000Y-10235000D02*
X14345000Y-10265000D01*
X14355000Y-14645000D02*
X14385000Y-14675000D01*
X14385000Y-14645000D02*
X14355000Y-14675000D01*
X14395000Y-10335000D02*
X14425000Y-10365000D01*
X14425000Y-10335000D02*
X14395000Y-10365000D01*
X14425000Y-9885000D02*
X14455000Y-9915000D01*
X14455000Y-9885000D02*
X14425000Y-9915000D01*
X14435000Y-6435000D02*
X14465000Y-6465000D01*
X14465000Y-6435000D02*
X14435000Y-6465000D01*
X14485000Y-13625000D02*
X14515000Y-13655000D01*
X14515000Y-13625000D02*
X14485000Y-13655000D01*
X14535000Y-15125000D02*
X14565000Y-15155000D01*
X14565000Y-15125000D02*
X14535000Y-15155000D01*
X14595000Y-13645000D02*
X14625000Y-13675000D01*
X14625000Y-13645000D02*
X14595000Y-13675000D01*
X14605000Y-13285000D02*
X14635000Y-13315000D01*
X14635000Y-13285000D02*
X14605000Y-13315000D01*
X14698000Y-10950000D02*
X14728000Y-10980000D01*
X14728000Y-10950000D02*
X14698000Y-10980000D01*
X14755000Y-14445000D02*
X14785000Y-14475000D01*
X14785000Y-14445000D02*
X14755000Y-14475000D01*
X15195000Y-6555000D02*
X15225000Y-6585000D01*
X15225000Y-6555000D02*
X15195000Y-6585000D01*
X15272000Y-10015000D02*
X15302000Y-10045000D01*
X15302000Y-10015000D02*
X15272000Y-10045000D01*
X15446000Y-10759000D02*
X15476000Y-10789000D01*
X15476000Y-10759000D02*
X15446000Y-10789000D01*
X15465000Y-5865000D02*
X15495000Y-5895000D01*
X15495000Y-5865000D02*
X15465000Y-5895000D01*
X15467353Y-10075000D02*
X15497353Y-10105000D01*
X15497353Y-10075000D02*
X15467353Y-10105000D01*
X15475000Y-7415000D02*
X15505000Y-7445000D01*
X15505000Y-7415000D02*
X15475000Y-7445000D01*
X15552000Y-10101000D02*
X15582000Y-10131000D01*
X15582000Y-10101000D02*
X15552000Y-10131000D01*
X15554000Y-7744000D02*
X15584000Y-7774000D01*
X15584000Y-7744000D02*
X15554000Y-7774000D01*
X15565000Y-7435000D02*
X15595000Y-7465000D01*
X15595000Y-7435000D02*
X15565000Y-7465000D01*
X15575000Y-14575000D02*
X15605000Y-14605000D01*
X15605000Y-14575000D02*
X15575000Y-14605000D01*
X15595000Y-6315000D02*
X15625000Y-6345000D01*
X15625000Y-6315000D02*
X15595000Y-6345000D01*
X15610000Y-10519000D02*
X15640000Y-10549000D01*
X15640000Y-10519000D02*
X15610000Y-10549000D01*
X15625000Y-11055000D02*
X15655000Y-11085000D01*
X15655000Y-11055000D02*
X15625000Y-11085000D01*
X15655000Y-6535000D02*
X15685000Y-6565000D01*
X15685000Y-6535000D02*
X15655000Y-6565000D01*
X15664000Y-10267000D02*
X15694000Y-10297000D01*
X15694000Y-10267000D02*
X15664000Y-10297000D01*
X15667000Y-10454000D02*
X15697000Y-10484000D01*
X15697000Y-10454000D02*
X15667000Y-10484000D01*
X15682000Y-10356000D02*
X15712000Y-10386000D01*
X15712000Y-10356000D02*
X15682000Y-10386000D01*
X15725000Y-7385000D02*
X15755000Y-7415000D01*
X15755000Y-7385000D02*
X15725000Y-7415000D01*
X15775000Y-6805000D02*
X15805000Y-6835000D01*
X15805000Y-6805000D02*
X15775000Y-6835000D01*
X15795000Y-6375000D02*
X15825000Y-6405000D01*
X15825000Y-6375000D02*
X15795000Y-6405000D01*
X15845000Y-6895000D02*
X15875000Y-6925000D01*
X15875000Y-6895000D02*
X15845000Y-6925000D01*
X15904941Y-13515000D02*
X15934941Y-13545000D01*
X15934941Y-13515000D02*
X15904941Y-13545000D01*
X15965000Y-14605000D02*
X15995000Y-14635000D01*
X15995000Y-14605000D02*
X15965000Y-14635000D01*
X15985000Y-14945000D02*
X16015000Y-14975000D01*
X16015000Y-14945000D02*
X15985000Y-14975000D01*
X16005000Y-6675000D02*
X16035000Y-6705000D01*
X16035000Y-6675000D02*
X16005000Y-6705000D01*
X16005000Y-14295000D02*
X16035000Y-14325000D01*
X16035000Y-14295000D02*
X16005000Y-14325000D01*
X16015000Y-14535000D02*
X16045000Y-14565000D01*
X16045000Y-14535000D02*
X16015000Y-14565000D01*
X16035000Y-14005000D02*
X16065000Y-14035000D01*
X16065000Y-14005000D02*
X16035000Y-14035000D01*
X16115000Y-6235000D02*
X16145000Y-6265000D01*
X16145000Y-6235000D02*
X16115000Y-6265000D01*
X16115000Y-6465000D02*
X16145000Y-6495000D01*
X16145000Y-6465000D02*
X16115000Y-6495000D01*
X16122350Y-14729647D02*
X16152350Y-14759647D01*
X16152350Y-14729647D02*
X16122350Y-14759647D01*
X16135000Y-13425000D02*
X16165000Y-13455000D01*
X16165000Y-13425000D02*
X16135000Y-13455000D01*
X16153000Y-13033000D02*
X16183000Y-13063000D01*
X16183000Y-13033000D02*
X16153000Y-13063000D01*
X16185000Y-5995000D02*
X16215000Y-6025000D01*
X16215000Y-5995000D02*
X16185000Y-6025000D01*
X16185000Y-14075000D02*
X16215000Y-14105000D01*
X16215000Y-14075000D02*
X16185000Y-14105000D01*
X16195000Y-14965000D02*
X16225000Y-14995000D01*
X16225000Y-14965000D02*
X16195000Y-14995000D01*
X16205000Y-6445000D02*
X16235000Y-6475000D01*
X16235000Y-6445000D02*
X16205000Y-6475000D01*
X16235000Y-13385000D02*
X16265000Y-13415000D01*
X16265000Y-13385000D02*
X16235000Y-13415000D01*
X16305000Y-5545000D02*
X16335000Y-5575000D01*
X16335000Y-5545000D02*
X16305000Y-5575000D01*
X16305000Y-15425000D02*
X16335000Y-15455000D01*
X16335000Y-15425000D02*
X16305000Y-15455000D01*
X16325000Y-14445000D02*
X16355000Y-14475000D01*
X16355000Y-14445000D02*
X16325000Y-14475000D01*
X16345000Y-6135000D02*
X16375000Y-6165000D01*
X16375000Y-6135000D02*
X16345000Y-6165000D01*
X16385000Y-14185000D02*
X16415000Y-14215000D01*
X16415000Y-14185000D02*
X16385000Y-14215000D01*
X16425000Y-15925000D02*
X16455000Y-15955000D01*
X16455000Y-15925000D02*
X16425000Y-15955000D01*
X16435000Y-5055000D02*
X16465000Y-5085000D01*
X16465000Y-5055000D02*
X16435000Y-5085000D01*
X16505000Y-6695000D02*
X16535000Y-6725000D01*
X16535000Y-6695000D02*
X16505000Y-6725000D01*
X16525000Y-14395000D02*
X16555000Y-14425000D01*
X16555000Y-14395000D02*
X16525000Y-14425000D01*
X16815000Y-13975000D02*
X16845000Y-14005000D01*
X16845000Y-13975000D02*
X16815000Y-14005000D01*
X16874613Y-8024613D02*
X16904613Y-8054613D01*
X16904613Y-8024613D02*
X16874613Y-8054613D01*
X16935000Y-8085000D02*
X16965000Y-8115000D01*
X16965000Y-8085000D02*
X16935000Y-8115000D01*
X16945000Y-14735000D02*
X16975000Y-14765000D01*
X16975000Y-14735000D02*
X16945000Y-14765000D01*
X17175000Y-7195000D02*
X17205000Y-7225000D01*
X17205000Y-7195000D02*
X17175000Y-7225000D01*
X17228000Y-8100000D02*
X17258000Y-8130000D01*
X17258000Y-8100000D02*
X17228000Y-8130000D01*
X17335000Y-12695000D02*
X17365000Y-12725000D01*
X17365000Y-12695000D02*
X17335000Y-12725000D01*
X17355000Y-12525000D02*
X17385000Y-12555000D01*
X17385000Y-12525000D02*
X17355000Y-12555000D01*
X17415000Y-12455000D02*
X17445000Y-12485000D01*
X17445000Y-12455000D02*
X17415000Y-12485000D01*
X17504000Y-7708000D02*
X17534000Y-7738000D01*
X17534000Y-7708000D02*
X17504000Y-7738000D01*
X17505000Y-7428000D02*
X17535000Y-7458000D01*
X17535000Y-7428000D02*
X17505000Y-7458000D01*
X17515000Y-13715000D02*
X17545000Y-13745000D01*
X17545000Y-13715000D02*
X17515000Y-13745000D01*
X17550000Y-7780000D02*
X17580000Y-7810000D01*
X17580000Y-7780000D02*
X17550000Y-7810000D01*
X17620106Y-7189894D02*
X17650106Y-7219894D01*
X17650106Y-7189894D02*
X17620106Y-7219894D01*
X17665000Y-13025000D02*
X17695000Y-13055000D01*
X17695000Y-13025000D02*
X17665000Y-13055000D01*
X17720106Y-6724894D02*
X17750106Y-6754894D01*
X17750106Y-6724894D02*
X17720106Y-6754894D01*
X17734000Y-10845000D02*
X17764000Y-10875000D01*
X17764000Y-10845000D02*
X17734000Y-10875000D01*
X17774000Y-7698000D02*
X17804000Y-7728000D01*
X17804000Y-7698000D02*
X17774000Y-7728000D01*
X17775000Y-13275000D02*
X17805000Y-13305000D01*
X17805000Y-13275000D02*
X17775000Y-13305000D01*
X17825000Y-13005000D02*
X17855000Y-13035000D01*
X17855000Y-13005000D02*
X17825000Y-13035000D01*
X17860106Y-7429894D02*
X17890106Y-7459894D01*
X17890106Y-7429894D02*
X17860106Y-7459894D01*
X17875000Y-13495000D02*
X17905000Y-13525000D01*
X17905000Y-13495000D02*
X17875000Y-13525000D01*
X17885000Y-13575000D02*
X17915000Y-13605000D01*
X17915000Y-13575000D02*
X17885000Y-13605000D01*
X17965000Y-9335000D02*
X17995000Y-9365000D01*
X17995000Y-9335000D02*
X17965000Y-9365000D01*
X17969000Y-7576000D02*
X17999000Y-7606000D01*
X17999000Y-7576000D02*
X17969000Y-7606000D01*
X17985000Y-9425000D02*
X18015000Y-9455000D01*
X18015000Y-9425000D02*
X17985000Y-9455000D01*
X18045000Y-13025000D02*
X18075000Y-13055000D01*
X18075000Y-13025000D02*
X18045000Y-13055000D01*
X18056000Y-7582000D02*
X18086000Y-7612000D01*
X18086000Y-7582000D02*
X18056000Y-7612000D01*
X18075000Y-9545000D02*
X18105000Y-9575000D01*
X18105000Y-9545000D02*
X18075000Y-9575000D01*
X18085000Y-11035000D02*
X18115000Y-11065000D01*
X18115000Y-11035000D02*
X18085000Y-11065000D01*
X18085000Y-11215000D02*
X18115000Y-11245000D01*
X18115000Y-11215000D02*
X18085000Y-11245000D01*
X18092297Y-13592297D02*
X18122297Y-13622297D01*
X18122297Y-13592297D02*
X18092297Y-13622297D01*
X18095000Y-13865000D02*
X18125000Y-13895000D01*
X18125000Y-13865000D02*
X18095000Y-13895000D01*
X18095106Y-7374894D02*
X18125106Y-7404894D01*
X18125106Y-7374894D02*
X18095106Y-7404894D01*
X18105000Y-10935000D02*
X18135000Y-10965000D01*
X18135000Y-10935000D02*
X18105000Y-10965000D01*
X18145000Y-13245000D02*
X18175000Y-13275000D01*
X18175000Y-13245000D02*
X18145000Y-13275000D01*
X18230000Y-7930000D02*
X18260000Y-7960000D01*
X18260000Y-7930000D02*
X18230000Y-7960000D01*
X18265000Y-7205000D02*
X18295000Y-7235000D01*
X18295000Y-7205000D02*
X18265000Y-7235000D01*
X18285000Y-13105000D02*
X18315000Y-13135000D01*
X18315000Y-13105000D02*
X18285000Y-13135000D01*
X18285000Y-13755000D02*
X18315000Y-13785000D01*
X18315000Y-13755000D02*
X18285000Y-13785000D01*
X18325000Y-12635000D02*
X18355000Y-12665000D01*
X18355000Y-12635000D02*
X18325000Y-12665000D01*
X18355000Y-7385000D02*
X18385000Y-7415000D01*
X18385000Y-7385000D02*
X18355000Y-7415000D01*
X18495000Y-8705000D02*
X18525000Y-8735000D01*
X18525000Y-8705000D02*
X18495000Y-8735000D01*
X18525000Y-9435000D02*
X18555000Y-9465000D01*
X18555000Y-9435000D02*
X18525000Y-9465000D01*
X18565000Y-11345000D02*
X18595000Y-11375000D01*
X18595000Y-11345000D02*
X18565000Y-11375000D01*
X18575000Y-9305000D02*
X18605000Y-9335000D01*
X18605000Y-9305000D02*
X18575000Y-9335000D01*
X18583000Y-6886000D02*
X18613000Y-6916000D01*
X18613000Y-6886000D02*
X18583000Y-6916000D01*
X18585000Y-14085000D02*
X18615000Y-14115000D01*
X18615000Y-14085000D02*
X18585000Y-14115000D01*
X18675000Y-9115000D02*
X18705000Y-9145000D01*
X18705000Y-9115000D02*
X18675000Y-9145000D01*
X18685000Y-11245000D02*
X18715000Y-11275000D01*
X18715000Y-11245000D02*
X18685000Y-11275000D01*
X18775000Y-12005000D02*
X18805000Y-12035000D01*
X18805000Y-12005000D02*
X18775000Y-12035000D01*
X18785000Y-13205000D02*
X18815000Y-13235000D01*
X18815000Y-13205000D02*
X18785000Y-13235000D01*
X18795000Y-9465000D02*
X18825000Y-9495000D01*
X18825000Y-9465000D02*
X18795000Y-9495000D01*
X18795000Y-11505000D02*
X18825000Y-11535000D01*
X18825000Y-11505000D02*
X18795000Y-11535000D01*
X18895000Y-11145000D02*
X18925000Y-11175000D01*
X18925000Y-11145000D02*
X18895000Y-11175000D01*
X18901000Y-6564000D02*
X18931000Y-6594000D01*
X18931000Y-6564000D02*
X18901000Y-6594000D01*
X18905000Y-8955000D02*
X18935000Y-8985000D01*
X18935000Y-8955000D02*
X18905000Y-8985000D01*
X18935000Y-14435000D02*
X18965000Y-14465000D01*
X18965000Y-14435000D02*
X18935000Y-14465000D01*
X18945000Y-9115000D02*
X18975000Y-9145000D01*
X18975000Y-9115000D02*
X18945000Y-9145000D01*
X18955000Y-10675000D02*
X18985000Y-10705000D01*
X18985000Y-10675000D02*
X18955000Y-10705000D01*
X19005000Y-11615000D02*
X19035000Y-11645000D01*
X19035000Y-11615000D02*
X19005000Y-11645000D01*
X19025000Y-9445000D02*
X19055000Y-9475000D01*
X19055000Y-9445000D02*
X19025000Y-9475000D01*
X19025000Y-11695000D02*
X19055000Y-11725000D01*
X19055000Y-11695000D02*
X19025000Y-11725000D01*
X19035000Y-9905000D02*
X19065000Y-9935000D01*
X19065000Y-9905000D02*
X19035000Y-9935000D01*
X19095000Y-9505000D02*
X19125000Y-9535000D01*
X19125000Y-9505000D02*
X19095000Y-9535000D01*
X19115000Y-11285000D02*
X19145000Y-11315000D01*
X19145000Y-11285000D02*
X19115000Y-11315000D01*
X19155000Y-11125000D02*
X19185000Y-11155000D01*
X19185000Y-11125000D02*
X19155000Y-11155000D01*
X19215000Y-8575000D02*
X19245000Y-8605000D01*
X19245000Y-8575000D02*
X19215000Y-8605000D01*
X19229647Y-9347650D02*
X19259647Y-9377650D01*
X19259647Y-9347650D02*
X19229647Y-9377650D01*
X19229647Y-11622350D02*
X19259647Y-11652350D01*
X19259647Y-11622350D02*
X19229647Y-11652350D01*
X19345000Y-11855000D02*
X19375000Y-11885000D01*
X19375000Y-11855000D02*
X19345000Y-11885000D01*
X19435000Y-9485000D02*
X19465000Y-9515000D01*
X19465000Y-9485000D02*
X19435000Y-9515000D01*
X19465000Y-9275000D02*
X19495000Y-9305000D01*
X19495000Y-9275000D02*
X19465000Y-9305000D01*
X19485000Y-11675000D02*
X19515000Y-11705000D01*
X19515000Y-11675000D02*
X19485000Y-11705000D01*
X19675000Y-10945000D02*
X19705000Y-10975000D01*
X19705000Y-10945000D02*
X19675000Y-10975000D01*
X19915000Y-9155000D02*
X19945000Y-9185000D01*
X19945000Y-9155000D02*
X19915000Y-9185000D01*
X19915000Y-11815000D02*
X19945000Y-11845000D01*
X19945000Y-11815000D02*
X19915000Y-11845000D01*
X20405000Y-9025000D02*
X20435000Y-9055000D01*
X20435000Y-9025000D02*
X20405000Y-9055000D01*
X20415000Y-11935000D02*
X20445000Y-11965000D01*
X20445000Y-11935000D02*
X20415000Y-11965000D01*
X9215000Y-16190000D02*
G75*
G02*
X9139000Y-16190000I-38000J0D01*
G01*
X9139000Y-16190000D02*
G75*
G02*
X9215000Y-16190000I38000J0D01*
G01*
X9062500Y-16228000D02*
X9291500Y-16228000D01*
X9291500Y-16152000D02*
G75*
G02*
X9291500Y-16228000I0J-38000D01*
G01*
X9291500Y-16152000D02*
X9062500Y-16152000D01*
X9062500Y-16152000D02*
G75*
G03*
X9062500Y-16228000I0J-38000D01*
G01*
X9215000Y-16783000D02*
G75*
G02*
X9139000Y-16783000I-38000J0D01*
G01*
X9139000Y-16783000D02*
G75*
G02*
X9215000Y-16783000I38000J0D01*
G01*
X9062500Y-16821000D02*
X9291500Y-16821000D01*
X9291500Y-16745000D02*
G75*
G02*
X9291500Y-16821000I0J-38000D01*
G01*
X9291500Y-16745000D02*
X9062500Y-16745000D01*
X9062500Y-16745000D02*
G75*
G03*
X9062500Y-16821000I0J-38000D01*
G01*
X9688000Y-16550000D02*
G75*
G02*
X9612000Y-16550000I-38000J0D01*
G01*
X9612000Y-16550000D02*
G75*
G02*
X9688000Y-16550000I38000J0D01*
G01*
X9612000Y-16435500D02*
X9612000Y-16664500D01*
X9688000Y-16664500D02*
G75*
G02*
X9612000Y-16664500I-38000J0D01*
G01*
X9688000Y-16664500D02*
X9688000Y-16435500D01*
X9688000Y-16435500D02*
G75*
G03*
X9612000Y-16435500I-38000J0D01*
G01*
X2945000Y-8183700D02*
X2945000Y-8283700D01*
X2895000Y-8233700D02*
X2995000Y-8233700D01*
X2945000Y-8437700D02*
X2945000Y-8537700D01*
X2895000Y-8487700D02*
X2995000Y-8487700D01*
X2945000Y-9199700D02*
X2945000Y-9299700D01*
X2895000Y-9249700D02*
X2995000Y-9249700D01*
X2945000Y-9453700D02*
X2945000Y-9553700D01*
X2895000Y-9503700D02*
X2995000Y-9503700D01*
X2945000Y-9707700D02*
X2945000Y-9807700D01*
X2895000Y-9757700D02*
X2995000Y-9757700D01*
X2945000Y-9961700D02*
X2945000Y-10061700D01*
X2895000Y-10011700D02*
X2995000Y-10011700D01*
X2945000Y-10215700D02*
X2945000Y-10315700D01*
X2895000Y-10265700D02*
X2995000Y-10265700D01*
X2945000Y-10469700D02*
X2945000Y-10569700D01*
X2895000Y-10519700D02*
X2995000Y-10519700D01*
X2945000Y-10723700D02*
X2945000Y-10823700D01*
X2895000Y-10773700D02*
X2995000Y-10773700D01*
X2945000Y-10977700D02*
X2945000Y-11077700D01*
X2895000Y-11027700D02*
X2995000Y-11027700D01*
X2945000Y-11485700D02*
X2945000Y-11585700D01*
X2895000Y-11535700D02*
X2995000Y-11535700D01*
X2945000Y-11739700D02*
X2945000Y-11839700D01*
X2895000Y-11789700D02*
X2995000Y-11789700D01*
X2945000Y-11993700D02*
X2945000Y-12093700D01*
X2895000Y-12043700D02*
X2995000Y-12043700D01*
X2945000Y-12247700D02*
X2945000Y-12347700D01*
X2895000Y-12297700D02*
X2995000Y-12297700D01*
X2945000Y-12501700D02*
X2945000Y-12601700D01*
X2895000Y-12551700D02*
X2995000Y-12551700D01*
X2945000Y-12755700D02*
X2945000Y-12855700D01*
X2895000Y-12805700D02*
X2995000Y-12805700D01*
X2945000Y-13009700D02*
X2945000Y-13109700D01*
X2895000Y-13059700D02*
X2995000Y-13059700D01*
X2945000Y-13263700D02*
X2945000Y-13363700D01*
X2895000Y-13313700D02*
X2995000Y-13313700D01*
X2945000Y-13670100D02*
X2945000Y-13770100D01*
X2895000Y-13720100D02*
X2995000Y-13720100D01*
X2945000Y-13924100D02*
X2945000Y-14024100D01*
X2895000Y-13974100D02*
X2995000Y-13974100D01*
X2945000Y-14178100D02*
X2945000Y-14278100D01*
X2895000Y-14228100D02*
X2995000Y-14228100D01*
X2945000Y-14432100D02*
X2945000Y-14532100D01*
X2895000Y-14482100D02*
X2995000Y-14482100D01*
X2945000Y-14686100D02*
X2945000Y-14786100D01*
X2895000Y-14736100D02*
X2995000Y-14736100D01*
X2945000Y-14940100D02*
X2945000Y-15040100D01*
X2895000Y-14990100D02*
X2995000Y-14990100D01*
X2945000Y-15194100D02*
X2945000Y-15294100D01*
X2895000Y-15244100D02*
X2995000Y-15244100D01*
X2945000Y-15448100D02*
X2945000Y-15548100D01*
X2895000Y-15498100D02*
X2995000Y-15498100D01*
X2945000Y-15702100D02*
X2945000Y-15802100D01*
X2895000Y-15752100D02*
X2995000Y-15752100D01*
X2945000Y-15956100D02*
X2945000Y-16056100D01*
X2895000Y-16006100D02*
X2995000Y-16006100D01*
X3199000Y-8183700D02*
X3199000Y-8283700D01*
X3149000Y-8233700D02*
X3249000Y-8233700D01*
X3199000Y-8437700D02*
X3199000Y-8537700D01*
X3149000Y-8487700D02*
X3249000Y-8487700D01*
X3453000Y-8183700D02*
X3453000Y-8283700D01*
X3403000Y-8233700D02*
X3503000Y-8233700D01*
X3453000Y-8437700D02*
X3453000Y-8537700D01*
X3403000Y-8487700D02*
X3503000Y-8487700D01*
X3707000Y-8183700D02*
X3707000Y-8283700D01*
X3657000Y-8233700D02*
X3757000Y-8233700D01*
X3707000Y-8437700D02*
X3707000Y-8537700D01*
X3657000Y-8487700D02*
X3757000Y-8487700D01*
X3961000Y-8183700D02*
X3961000Y-8283700D01*
X3911000Y-8233700D02*
X4011000Y-8233700D01*
X3961000Y-8437700D02*
X3961000Y-8537700D01*
X3911000Y-8487700D02*
X4011000Y-8487700D01*
X4215000Y-8183700D02*
X4215000Y-8283700D01*
X4165000Y-8233700D02*
X4265000Y-8233700D01*
X4215000Y-8437700D02*
X4215000Y-8537700D01*
X4165000Y-8487700D02*
X4265000Y-8487700D01*
X4469000Y-8183700D02*
X4469000Y-8283700D01*
X4419000Y-8233700D02*
X4519000Y-8233700D01*
X4469000Y-8437700D02*
X4469000Y-8537700D01*
X4419000Y-8487700D02*
X4519000Y-8487700D01*
X4723000Y-8183700D02*
X4723000Y-8283700D01*
X4673000Y-8233700D02*
X4773000Y-8233700D01*
X4723000Y-8437700D02*
X4723000Y-8537700D01*
X4673000Y-8487700D02*
X4773000Y-8487700D01*
X4977000Y-8183700D02*
X4977000Y-8283700D01*
X4927000Y-8233700D02*
X5027000Y-8233700D01*
X4977000Y-8437700D02*
X4977000Y-8537700D01*
X4927000Y-8487700D02*
X5027000Y-8487700D01*
X5231000Y-8183700D02*
X5231000Y-8283700D01*
X5181000Y-8233700D02*
X5281000Y-8233700D01*
X5231000Y-8437700D02*
X5231000Y-8537700D01*
X5181000Y-8487700D02*
X5281000Y-8487700D01*
X5485000Y-8183700D02*
X5485000Y-8283700D01*
X5435000Y-8233700D02*
X5535000Y-8233700D01*
X5485000Y-8437700D02*
X5485000Y-8537700D01*
X5435000Y-8487700D02*
X5535000Y-8487700D01*
X5739000Y-8183700D02*
X5739000Y-8283700D01*
X5689000Y-8233700D02*
X5789000Y-8233700D01*
X5739000Y-8437700D02*
X5739000Y-8537700D01*
X5689000Y-8487700D02*
X5789000Y-8487700D01*
X5993000Y-8183700D02*
X5993000Y-8283700D01*
X5943000Y-8233700D02*
X6043000Y-8233700D01*
X5993000Y-8437700D02*
X5993000Y-8537700D01*
X5943000Y-8487700D02*
X6043000Y-8487700D01*
X6247000Y-8183700D02*
X6247000Y-8283700D01*
X6197000Y-8233700D02*
X6297000Y-8233700D01*
X6247000Y-8437700D02*
X6247000Y-8537700D01*
X6197000Y-8487700D02*
X6297000Y-8487700D01*
X6501000Y-8183700D02*
X6501000Y-8283700D01*
X6451000Y-8233700D02*
X6551000Y-8233700D01*
X6501000Y-8437700D02*
X6501000Y-8537700D01*
X6451000Y-8487700D02*
X6551000Y-8487700D01*
X6755000Y-8183700D02*
X6755000Y-8283700D01*
X6705000Y-8233700D02*
X6805000Y-8233700D01*
X6755000Y-8437700D02*
X6755000Y-8537700D01*
X6705000Y-8487700D02*
X6805000Y-8487700D01*
X7009000Y-8183700D02*
X7009000Y-8283700D01*
X6959000Y-8233700D02*
X7059000Y-8233700D01*
X7009000Y-8437700D02*
X7009000Y-8537700D01*
X6959000Y-8487700D02*
X7059000Y-8487700D01*
X7263000Y-8183700D02*
X7263000Y-8283700D01*
X7213000Y-8233700D02*
X7313000Y-8233700D01*
X7263000Y-8437700D02*
X7263000Y-8537700D01*
X7213000Y-8487700D02*
X7313000Y-8487700D01*
X7771000Y-8691700D02*
X7771000Y-8791700D01*
X7721000Y-8741700D02*
X7821000Y-8741700D01*
X7771000Y-8945700D02*
X7771000Y-9045700D01*
X7721000Y-8995700D02*
X7821000Y-8995700D01*
X7771000Y-9199700D02*
X7771000Y-9299700D01*
X7721000Y-9249700D02*
X7821000Y-9249700D01*
X7771000Y-9453700D02*
X7771000Y-9553700D01*
X7721000Y-9503700D02*
X7821000Y-9503700D01*
X7771000Y-9707700D02*
X7771000Y-9807700D01*
X7721000Y-9757700D02*
X7821000Y-9757700D01*
X7771000Y-9961700D02*
X7771000Y-10061700D01*
X7721000Y-10011700D02*
X7821000Y-10011700D01*
X7771000Y-10215700D02*
X7771000Y-10315700D01*
X7721000Y-10265700D02*
X7821000Y-10265700D01*
X7771000Y-10469700D02*
X7771000Y-10569700D01*
X7721000Y-10519700D02*
X7821000Y-10519700D01*
X7771000Y-10977700D02*
X7771000Y-11077700D01*
X7721000Y-11027700D02*
X7821000Y-11027700D01*
X7771000Y-11231700D02*
X7771000Y-11331700D01*
X7721000Y-11281700D02*
X7821000Y-11281700D01*
X7771000Y-11485700D02*
X7771000Y-11585700D01*
X7721000Y-11535700D02*
X7821000Y-11535700D01*
X7771000Y-11739700D02*
X7771000Y-11839700D01*
X7721000Y-11789700D02*
X7821000Y-11789700D01*
X7771000Y-11993700D02*
X7771000Y-12093700D01*
X7721000Y-12043700D02*
X7821000Y-12043700D01*
X7771000Y-12247700D02*
X7771000Y-12347700D01*
X7721000Y-12297700D02*
X7821000Y-12297700D01*
X7771000Y-12501700D02*
X7771000Y-12601700D01*
X7721000Y-12551700D02*
X7821000Y-12551700D01*
X7771000Y-12755700D02*
X7771000Y-12855700D01*
X7721000Y-12805700D02*
X7821000Y-12805700D01*
X7771000Y-13263700D02*
X7771000Y-13363700D01*
X7721000Y-13313700D02*
X7821000Y-13313700D01*
X7771000Y-13517700D02*
X7771000Y-13617700D01*
X7721000Y-13567700D02*
X7821000Y-13567700D01*
X7771000Y-13771700D02*
X7771000Y-13871700D01*
X7721000Y-13821700D02*
X7821000Y-13821700D01*
X7771000Y-14025700D02*
X7771000Y-14125700D01*
X7721000Y-14075700D02*
X7821000Y-14075700D01*
X7771000Y-14279700D02*
X7771000Y-14379700D01*
X7721000Y-14329700D02*
X7821000Y-14329700D01*
X7771000Y-14533700D02*
X7771000Y-14633700D01*
X7721000Y-14583700D02*
X7821000Y-14583700D01*
X7771000Y-14787700D02*
X7771000Y-14887700D01*
X7721000Y-14837700D02*
X7821000Y-14837700D01*
X7771000Y-15041700D02*
X7771000Y-15141700D01*
X7721000Y-15091700D02*
X7821000Y-15091700D01*
X9665000Y-11462500D02*
X9665000Y-11562500D01*
X9615000Y-11512500D02*
X9715000Y-11512500D01*
X17487500Y-10192500D02*
X17487500Y-10292500D01*
X17437500Y-10242500D02*
X17537500Y-10242500D01*
D11*
X2255777Y-18316484D02*
X2255777Y-18116484D01*
X2255777Y-18116484D02*
X2303396Y-18116484D01*
X2303396Y-18116484D02*
X2331967Y-18126008D01*
X2331967Y-18126008D02*
X2351015Y-18145055D01*
X2351015Y-18145055D02*
X2360539Y-18164103D01*
X2360539Y-18164103D02*
X2370063Y-18202198D01*
X2370063Y-18202198D02*
X2370063Y-18230770D01*
X2370063Y-18230770D02*
X2360539Y-18268865D01*
X2360539Y-18268865D02*
X2351015Y-18287912D01*
X2351015Y-18287912D02*
X2331967Y-18306960D01*
X2331967Y-18306960D02*
X2303396Y-18316484D01*
X2303396Y-18316484D02*
X2255777Y-18316484D01*
X2455777Y-18316484D02*
X2455777Y-18183150D01*
X2455777Y-18221246D02*
X2465301Y-18202198D01*
X2465301Y-18202198D02*
X2474824Y-18192674D01*
X2474824Y-18192674D02*
X2493872Y-18183150D01*
X2493872Y-18183150D02*
X2512920Y-18183150D01*
X2579586Y-18316484D02*
X2579586Y-18183150D01*
X2579586Y-18116484D02*
X2570063Y-18126008D01*
X2570063Y-18126008D02*
X2579586Y-18135531D01*
X2579586Y-18135531D02*
X2589110Y-18126008D01*
X2589110Y-18126008D02*
X2579586Y-18116484D01*
X2579586Y-18116484D02*
X2579586Y-18135531D01*
X2703396Y-18316484D02*
X2684348Y-18306960D01*
X2684348Y-18306960D02*
X2674824Y-18287912D01*
X2674824Y-18287912D02*
X2674824Y-18116484D01*
X2808158Y-18316484D02*
X2789110Y-18306960D01*
X2789110Y-18306960D02*
X2779586Y-18287912D01*
X2779586Y-18287912D02*
X2779586Y-18116484D01*
X3036729Y-18316484D02*
X3036729Y-18116484D01*
X3036729Y-18116484D02*
X3103396Y-18259341D01*
X3103396Y-18259341D02*
X3170062Y-18116484D01*
X3170062Y-18116484D02*
X3170062Y-18316484D01*
X3351015Y-18316484D02*
X3351015Y-18211722D01*
X3351015Y-18211722D02*
X3341491Y-18192674D01*
X3341491Y-18192674D02*
X3322443Y-18183150D01*
X3322443Y-18183150D02*
X3284348Y-18183150D01*
X3284348Y-18183150D02*
X3265301Y-18192674D01*
X3351015Y-18306960D02*
X3331967Y-18316484D01*
X3331967Y-18316484D02*
X3284348Y-18316484D01*
X3284348Y-18316484D02*
X3265301Y-18306960D01*
X3265301Y-18306960D02*
X3255777Y-18287912D01*
X3255777Y-18287912D02*
X3255777Y-18268865D01*
X3255777Y-18268865D02*
X3265301Y-18249817D01*
X3265301Y-18249817D02*
X3284348Y-18240293D01*
X3284348Y-18240293D02*
X3331967Y-18240293D01*
X3331967Y-18240293D02*
X3351015Y-18230770D01*
X3446253Y-18183150D02*
X3446253Y-18383150D01*
X3446253Y-18192674D02*
X3465301Y-18183150D01*
X3465301Y-18183150D02*
X3503396Y-18183150D01*
X3503396Y-18183150D02*
X3522443Y-18192674D01*
X3522443Y-18192674D02*
X3531967Y-18202198D01*
X3531967Y-18202198D02*
X3541491Y-18221246D01*
X3541491Y-18221246D02*
X3541491Y-18278389D01*
X3541491Y-18278389D02*
X3531967Y-18297436D01*
X3531967Y-18297436D02*
X3522443Y-18306960D01*
X3522443Y-18306960D02*
X3503396Y-18316484D01*
X3503396Y-18316484D02*
X3465301Y-18316484D01*
X3465301Y-18316484D02*
X3446253Y-18306960D01*
X3627205Y-18297436D02*
X3636729Y-18306960D01*
X3636729Y-18306960D02*
X3627205Y-18316484D01*
X3627205Y-18316484D02*
X3617682Y-18306960D01*
X3617682Y-18306960D02*
X3627205Y-18297436D01*
X3627205Y-18297436D02*
X3627205Y-18316484D01*
X3627205Y-18192674D02*
X3636729Y-18202198D01*
X3636729Y-18202198D02*
X3627205Y-18211722D01*
X3627205Y-18211722D02*
X3617682Y-18202198D01*
X3617682Y-18202198D02*
X3627205Y-18192674D01*
X3627205Y-18192674D02*
X3627205Y-18211722D01*
D10*
X1965000Y-18630000D02*
X1995000Y-18660000D01*
X1995000Y-18630000D02*
X1965000Y-18660000D01*
D11*
X2293872Y-18536484D02*
X2312920Y-18536484D01*
X2312920Y-18536484D02*
X2331967Y-18546008D01*
X2331967Y-18546008D02*
X2341491Y-18555531D01*
X2341491Y-18555531D02*
X2351015Y-18574579D01*
X2351015Y-18574579D02*
X2360539Y-18612674D01*
X2360539Y-18612674D02*
X2360539Y-18660293D01*
X2360539Y-18660293D02*
X2351015Y-18698389D01*
X2351015Y-18698389D02*
X2341491Y-18717436D01*
X2341491Y-18717436D02*
X2331967Y-18726960D01*
X2331967Y-18726960D02*
X2312920Y-18736484D01*
X2312920Y-18736484D02*
X2293872Y-18736484D01*
X2293872Y-18736484D02*
X2274824Y-18726960D01*
X2274824Y-18726960D02*
X2265301Y-18717436D01*
X2265301Y-18717436D02*
X2255777Y-18698389D01*
X2255777Y-18698389D02*
X2246253Y-18660293D01*
X2246253Y-18660293D02*
X2246253Y-18612674D01*
X2246253Y-18612674D02*
X2255777Y-18574579D01*
X2255777Y-18574579D02*
X2265301Y-18555531D01*
X2265301Y-18555531D02*
X2274824Y-18546008D01*
X2274824Y-18546008D02*
X2293872Y-18536484D01*
X2446253Y-18717436D02*
X2455777Y-18726960D01*
X2455777Y-18726960D02*
X2446253Y-18736484D01*
X2446253Y-18736484D02*
X2436729Y-18726960D01*
X2436729Y-18726960D02*
X2446253Y-18717436D01*
X2446253Y-18717436D02*
X2446253Y-18736484D01*
X2522444Y-18536484D02*
X2646253Y-18536484D01*
X2646253Y-18536484D02*
X2579586Y-18612674D01*
X2579586Y-18612674D02*
X2608158Y-18612674D01*
X2608158Y-18612674D02*
X2627205Y-18622198D01*
X2627205Y-18622198D02*
X2636729Y-18631722D01*
X2636729Y-18631722D02*
X2646253Y-18650770D01*
X2646253Y-18650770D02*
X2646253Y-18698389D01*
X2646253Y-18698389D02*
X2636729Y-18717436D01*
X2636729Y-18717436D02*
X2627205Y-18726960D01*
X2627205Y-18726960D02*
X2608158Y-18736484D01*
X2608158Y-18736484D02*
X2551015Y-18736484D01*
X2551015Y-18736484D02*
X2531967Y-18726960D01*
X2531967Y-18726960D02*
X2522444Y-18717436D01*
X2770063Y-18536484D02*
X2789110Y-18536484D01*
X2789110Y-18536484D02*
X2808158Y-18546008D01*
X2808158Y-18546008D02*
X2817682Y-18555531D01*
X2817682Y-18555531D02*
X2827205Y-18574579D01*
X2827205Y-18574579D02*
X2836729Y-18612674D01*
X2836729Y-18612674D02*
X2836729Y-18660293D01*
X2836729Y-18660293D02*
X2827205Y-18698389D01*
X2827205Y-18698389D02*
X2817682Y-18717436D01*
X2817682Y-18717436D02*
X2808158Y-18726960D01*
X2808158Y-18726960D02*
X2789110Y-18736484D01*
X2789110Y-18736484D02*
X2770063Y-18736484D01*
X2770063Y-18736484D02*
X2751015Y-18726960D01*
X2751015Y-18726960D02*
X2741491Y-18717436D01*
X2741491Y-18717436D02*
X2731967Y-18698389D01*
X2731967Y-18698389D02*
X2722444Y-18660293D01*
X2722444Y-18660293D02*
X2722444Y-18612674D01*
X2722444Y-18612674D02*
X2731967Y-18574579D01*
X2731967Y-18574579D02*
X2741491Y-18555531D01*
X2741491Y-18555531D02*
X2751015Y-18546008D01*
X2751015Y-18546008D02*
X2770063Y-18536484D01*
X2960539Y-18536484D02*
X2979586Y-18536484D01*
X2979586Y-18536484D02*
X2998634Y-18546008D01*
X2998634Y-18546008D02*
X3008158Y-18555531D01*
X3008158Y-18555531D02*
X3017682Y-18574579D01*
X3017682Y-18574579D02*
X3027205Y-18612674D01*
X3027205Y-18612674D02*
X3027205Y-18660293D01*
X3027205Y-18660293D02*
X3017682Y-18698389D01*
X3017682Y-18698389D02*
X3008158Y-18717436D01*
X3008158Y-18717436D02*
X2998634Y-18726960D01*
X2998634Y-18726960D02*
X2979586Y-18736484D01*
X2979586Y-18736484D02*
X2960539Y-18736484D01*
X2960539Y-18736484D02*
X2941491Y-18726960D01*
X2941491Y-18726960D02*
X2931967Y-18717436D01*
X2931967Y-18717436D02*
X2922443Y-18698389D01*
X2922443Y-18698389D02*
X2912920Y-18660293D01*
X2912920Y-18660293D02*
X2912920Y-18612674D01*
X2912920Y-18612674D02*
X2922443Y-18574579D01*
X2922443Y-18574579D02*
X2931967Y-18555531D01*
X2931967Y-18555531D02*
X2941491Y-18546008D01*
X2941491Y-18546008D02*
X2960539Y-18536484D01*
X3112920Y-18736484D02*
X3112920Y-18603150D01*
X3112920Y-18622198D02*
X3122443Y-18612674D01*
X3122443Y-18612674D02*
X3141491Y-18603150D01*
X3141491Y-18603150D02*
X3170063Y-18603150D01*
X3170063Y-18603150D02*
X3189110Y-18612674D01*
X3189110Y-18612674D02*
X3198634Y-18631722D01*
X3198634Y-18631722D02*
X3198634Y-18736484D01*
X3198634Y-18631722D02*
X3208158Y-18612674D01*
X3208158Y-18612674D02*
X3227205Y-18603150D01*
X3227205Y-18603150D02*
X3255777Y-18603150D01*
X3255777Y-18603150D02*
X3274824Y-18612674D01*
X3274824Y-18612674D02*
X3284348Y-18631722D01*
X3284348Y-18631722D02*
X3284348Y-18736484D01*
X3379586Y-18736484D02*
X3379586Y-18603150D01*
X3379586Y-18622198D02*
X3389110Y-18612674D01*
X3389110Y-18612674D02*
X3408158Y-18603150D01*
X3408158Y-18603150D02*
X3436729Y-18603150D01*
X3436729Y-18603150D02*
X3455777Y-18612674D01*
X3455777Y-18612674D02*
X3465301Y-18631722D01*
X3465301Y-18631722D02*
X3465301Y-18736484D01*
X3465301Y-18631722D02*
X3474824Y-18612674D01*
X3474824Y-18612674D02*
X3493872Y-18603150D01*
X3493872Y-18603150D02*
X3522443Y-18603150D01*
X3522443Y-18603150D02*
X3541491Y-18612674D01*
X3541491Y-18612674D02*
X3551015Y-18631722D01*
X3551015Y-18631722D02*
X3551015Y-18736484D01*
X3941491Y-18526960D02*
X3770063Y-18784103D01*
X4198634Y-18536484D02*
X4217682Y-18536484D01*
X4217682Y-18536484D02*
X4236729Y-18546008D01*
X4236729Y-18546008D02*
X4246253Y-18555531D01*
X4246253Y-18555531D02*
X4255777Y-18574579D01*
X4255777Y-18574579D02*
X4265301Y-18612674D01*
X4265301Y-18612674D02*
X4265301Y-18660293D01*
X4265301Y-18660293D02*
X4255777Y-18698389D01*
X4255777Y-18698389D02*
X4246253Y-18717436D01*
X4246253Y-18717436D02*
X4236729Y-18726960D01*
X4236729Y-18726960D02*
X4217682Y-18736484D01*
X4217682Y-18736484D02*
X4198634Y-18736484D01*
X4198634Y-18736484D02*
X4179586Y-18726960D01*
X4179586Y-18726960D02*
X4170063Y-18717436D01*
X4170063Y-18717436D02*
X4160539Y-18698389D01*
X4160539Y-18698389D02*
X4151015Y-18660293D01*
X4151015Y-18660293D02*
X4151015Y-18612674D01*
X4151015Y-18612674D02*
X4160539Y-18574579D01*
X4160539Y-18574579D02*
X4170063Y-18555531D01*
X4170063Y-18555531D02*
X4179586Y-18546008D01*
X4179586Y-18546008D02*
X4198634Y-18536484D01*
X4351015Y-18717436D02*
X4360539Y-18726960D01*
X4360539Y-18726960D02*
X4351015Y-18736484D01*
X4351015Y-18736484D02*
X4341491Y-18726960D01*
X4341491Y-18726960D02*
X4351015Y-18717436D01*
X4351015Y-18717436D02*
X4351015Y-18736484D01*
X4484348Y-18536484D02*
X4503396Y-18536484D01*
X4503396Y-18536484D02*
X4522444Y-18546008D01*
X4522444Y-18546008D02*
X4531968Y-18555531D01*
X4531968Y-18555531D02*
X4541491Y-18574579D01*
X4541491Y-18574579D02*
X4551015Y-18612674D01*
X4551015Y-18612674D02*
X4551015Y-18660293D01*
X4551015Y-18660293D02*
X4541491Y-18698389D01*
X4541491Y-18698389D02*
X4531968Y-18717436D01*
X4531968Y-18717436D02*
X4522444Y-18726960D01*
X4522444Y-18726960D02*
X4503396Y-18736484D01*
X4503396Y-18736484D02*
X4484348Y-18736484D01*
X4484348Y-18736484D02*
X4465301Y-18726960D01*
X4465301Y-18726960D02*
X4455777Y-18717436D01*
X4455777Y-18717436D02*
X4446253Y-18698389D01*
X4446253Y-18698389D02*
X4436729Y-18660293D01*
X4436729Y-18660293D02*
X4436729Y-18612674D01*
X4436729Y-18612674D02*
X4446253Y-18574579D01*
X4446253Y-18574579D02*
X4455777Y-18555531D01*
X4455777Y-18555531D02*
X4465301Y-18546008D01*
X4465301Y-18546008D02*
X4484348Y-18536484D01*
X4741491Y-18736484D02*
X4627206Y-18736484D01*
X4684348Y-18736484D02*
X4684348Y-18536484D01*
X4684348Y-18536484D02*
X4665301Y-18565055D01*
X4665301Y-18565055D02*
X4646253Y-18584103D01*
X4646253Y-18584103D02*
X4627206Y-18593627D01*
X4931968Y-18736484D02*
X4817682Y-18736484D01*
X4874825Y-18736484D02*
X4874825Y-18536484D01*
X4874825Y-18536484D02*
X4855777Y-18565055D01*
X4855777Y-18565055D02*
X4836729Y-18584103D01*
X4836729Y-18584103D02*
X4817682Y-18593627D01*
X5046253Y-18622198D02*
X5027206Y-18612674D01*
X5027206Y-18612674D02*
X5017682Y-18603150D01*
X5017682Y-18603150D02*
X5008158Y-18584103D01*
X5008158Y-18584103D02*
X5008158Y-18574579D01*
X5008158Y-18574579D02*
X5017682Y-18555531D01*
X5017682Y-18555531D02*
X5027206Y-18546008D01*
X5027206Y-18546008D02*
X5046253Y-18536484D01*
X5046253Y-18536484D02*
X5084349Y-18536484D01*
X5084349Y-18536484D02*
X5103396Y-18546008D01*
X5103396Y-18546008D02*
X5112920Y-18555531D01*
X5112920Y-18555531D02*
X5122444Y-18574579D01*
X5122444Y-18574579D02*
X5122444Y-18584103D01*
X5122444Y-18584103D02*
X5112920Y-18603150D01*
X5112920Y-18603150D02*
X5103396Y-18612674D01*
X5103396Y-18612674D02*
X5084349Y-18622198D01*
X5084349Y-18622198D02*
X5046253Y-18622198D01*
X5046253Y-18622198D02*
X5027206Y-18631722D01*
X5027206Y-18631722D02*
X5017682Y-18641246D01*
X5017682Y-18641246D02*
X5008158Y-18660293D01*
X5008158Y-18660293D02*
X5008158Y-18698389D01*
X5008158Y-18698389D02*
X5017682Y-18717436D01*
X5017682Y-18717436D02*
X5027206Y-18726960D01*
X5027206Y-18726960D02*
X5046253Y-18736484D01*
X5046253Y-18736484D02*
X5084349Y-18736484D01*
X5084349Y-18736484D02*
X5103396Y-18726960D01*
X5103396Y-18726960D02*
X5112920Y-18717436D01*
X5112920Y-18717436D02*
X5122444Y-18698389D01*
X5122444Y-18698389D02*
X5122444Y-18660293D01*
X5122444Y-18660293D02*
X5112920Y-18641246D01*
X5112920Y-18641246D02*
X5103396Y-18631722D01*
X5103396Y-18631722D02*
X5084349Y-18622198D01*
X5198634Y-18536484D02*
X5198634Y-18574579D01*
X5274825Y-18536484D02*
X5274825Y-18574579D01*
X5570063Y-18812674D02*
X5560539Y-18803150D01*
X5560539Y-18803150D02*
X5541491Y-18774579D01*
X5541491Y-18774579D02*
X5531968Y-18755531D01*
X5531968Y-18755531D02*
X5522444Y-18726960D01*
X5522444Y-18726960D02*
X5512920Y-18679341D01*
X5512920Y-18679341D02*
X5512920Y-18641246D01*
X5512920Y-18641246D02*
X5522444Y-18593627D01*
X5522444Y-18593627D02*
X5531968Y-18565055D01*
X5531968Y-18565055D02*
X5541491Y-18546008D01*
X5541491Y-18546008D02*
X5560539Y-18517436D01*
X5560539Y-18517436D02*
X5570063Y-18507912D01*
X5636729Y-18555531D02*
X5646253Y-18546008D01*
X5646253Y-18546008D02*
X5665301Y-18536484D01*
X5665301Y-18536484D02*
X5712920Y-18536484D01*
X5712920Y-18536484D02*
X5731968Y-18546008D01*
X5731968Y-18546008D02*
X5741491Y-18555531D01*
X5741491Y-18555531D02*
X5751015Y-18574579D01*
X5751015Y-18574579D02*
X5751015Y-18593627D01*
X5751015Y-18593627D02*
X5741491Y-18622198D01*
X5741491Y-18622198D02*
X5627206Y-18736484D01*
X5627206Y-18736484D02*
X5751015Y-18736484D01*
X5922444Y-18536484D02*
X5884348Y-18536484D01*
X5884348Y-18536484D02*
X5865301Y-18546008D01*
X5865301Y-18546008D02*
X5855777Y-18555531D01*
X5855777Y-18555531D02*
X5836729Y-18584103D01*
X5836729Y-18584103D02*
X5827206Y-18622198D01*
X5827206Y-18622198D02*
X5827206Y-18698389D01*
X5827206Y-18698389D02*
X5836729Y-18717436D01*
X5836729Y-18717436D02*
X5846253Y-18726960D01*
X5846253Y-18726960D02*
X5865301Y-18736484D01*
X5865301Y-18736484D02*
X5903396Y-18736484D01*
X5903396Y-18736484D02*
X5922444Y-18726960D01*
X5922444Y-18726960D02*
X5931968Y-18717436D01*
X5931968Y-18717436D02*
X5941491Y-18698389D01*
X5941491Y-18698389D02*
X5941491Y-18650770D01*
X5941491Y-18650770D02*
X5931968Y-18631722D01*
X5931968Y-18631722D02*
X5922444Y-18622198D01*
X5922444Y-18622198D02*
X5903396Y-18612674D01*
X5903396Y-18612674D02*
X5865301Y-18612674D01*
X5865301Y-18612674D02*
X5846253Y-18622198D01*
X5846253Y-18622198D02*
X5836729Y-18631722D01*
X5836729Y-18631722D02*
X5827206Y-18650770D01*
X6017682Y-18555531D02*
X6027206Y-18546008D01*
X6027206Y-18546008D02*
X6046253Y-18536484D01*
X6046253Y-18536484D02*
X6093872Y-18536484D01*
X6093872Y-18536484D02*
X6112920Y-18546008D01*
X6112920Y-18546008D02*
X6122444Y-18555531D01*
X6122444Y-18555531D02*
X6131968Y-18574579D01*
X6131968Y-18574579D02*
X6131968Y-18593627D01*
X6131968Y-18593627D02*
X6122444Y-18622198D01*
X6122444Y-18622198D02*
X6008158Y-18736484D01*
X6008158Y-18736484D02*
X6131968Y-18736484D01*
X6370063Y-18736484D02*
X6370063Y-18536484D01*
X6455777Y-18736484D02*
X6455777Y-18631722D01*
X6455777Y-18631722D02*
X6446253Y-18612674D01*
X6446253Y-18612674D02*
X6427206Y-18603150D01*
X6427206Y-18603150D02*
X6398634Y-18603150D01*
X6398634Y-18603150D02*
X6379587Y-18612674D01*
X6379587Y-18612674D02*
X6370063Y-18622198D01*
X6579587Y-18736484D02*
X6560539Y-18726960D01*
X6560539Y-18726960D02*
X6551015Y-18717436D01*
X6551015Y-18717436D02*
X6541491Y-18698389D01*
X6541491Y-18698389D02*
X6541491Y-18641246D01*
X6541491Y-18641246D02*
X6551015Y-18622198D01*
X6551015Y-18622198D02*
X6560539Y-18612674D01*
X6560539Y-18612674D02*
X6579587Y-18603150D01*
X6579587Y-18603150D02*
X6608158Y-18603150D01*
X6608158Y-18603150D02*
X6627206Y-18612674D01*
X6627206Y-18612674D02*
X6636730Y-18622198D01*
X6636730Y-18622198D02*
X6646253Y-18641246D01*
X6646253Y-18641246D02*
X6646253Y-18698389D01*
X6646253Y-18698389D02*
X6636730Y-18717436D01*
X6636730Y-18717436D02*
X6627206Y-18726960D01*
X6627206Y-18726960D02*
X6608158Y-18736484D01*
X6608158Y-18736484D02*
X6579587Y-18736484D01*
X6760539Y-18736484D02*
X6741491Y-18726960D01*
X6741491Y-18726960D02*
X6731968Y-18707912D01*
X6731968Y-18707912D02*
X6731968Y-18536484D01*
X6912920Y-18726960D02*
X6893872Y-18736484D01*
X6893872Y-18736484D02*
X6855777Y-18736484D01*
X6855777Y-18736484D02*
X6836730Y-18726960D01*
X6836730Y-18726960D02*
X6827206Y-18707912D01*
X6827206Y-18707912D02*
X6827206Y-18631722D01*
X6827206Y-18631722D02*
X6836730Y-18612674D01*
X6836730Y-18612674D02*
X6855777Y-18603150D01*
X6855777Y-18603150D02*
X6893872Y-18603150D01*
X6893872Y-18603150D02*
X6912920Y-18612674D01*
X6912920Y-18612674D02*
X6922444Y-18631722D01*
X6922444Y-18631722D02*
X6922444Y-18650770D01*
X6922444Y-18650770D02*
X6827206Y-18669817D01*
X6998634Y-18726960D02*
X7017682Y-18736484D01*
X7017682Y-18736484D02*
X7055777Y-18736484D01*
X7055777Y-18736484D02*
X7074825Y-18726960D01*
X7074825Y-18726960D02*
X7084349Y-18707912D01*
X7084349Y-18707912D02*
X7084349Y-18698389D01*
X7084349Y-18698389D02*
X7074825Y-18679341D01*
X7074825Y-18679341D02*
X7055777Y-18669817D01*
X7055777Y-18669817D02*
X7027206Y-18669817D01*
X7027206Y-18669817D02*
X7008158Y-18660293D01*
X7008158Y-18660293D02*
X6998634Y-18641246D01*
X6998634Y-18641246D02*
X6998634Y-18631722D01*
X6998634Y-18631722D02*
X7008158Y-18612674D01*
X7008158Y-18612674D02*
X7027206Y-18603150D01*
X7027206Y-18603150D02*
X7055777Y-18603150D01*
X7055777Y-18603150D02*
X7074825Y-18612674D01*
X7151015Y-18812674D02*
X7160539Y-18803150D01*
X7160539Y-18803150D02*
X7179587Y-18774579D01*
X7179587Y-18774579D02*
X7189111Y-18755531D01*
X7189111Y-18755531D02*
X7198634Y-18726960D01*
X7198634Y-18726960D02*
X7208158Y-18679341D01*
X7208158Y-18679341D02*
X7208158Y-18641246D01*
X7208158Y-18641246D02*
X7198634Y-18593627D01*
X7198634Y-18593627D02*
X7189111Y-18565055D01*
X7189111Y-18565055D02*
X7179587Y-18546008D01*
X7179587Y-18546008D02*
X7160539Y-18517436D01*
X7160539Y-18517436D02*
X7151015Y-18507912D01*
D10*
X1995000Y-18909000D02*
G75*
G02*
X1919000Y-18909000I-38000J0D01*
G01*
X1919000Y-18909000D02*
G75*
G02*
X1995000Y-18909000I38000J0D01*
G01*
D11*
X2293872Y-18800484D02*
X2312920Y-18800484D01*
X2312920Y-18800484D02*
X2331967Y-18810008D01*
X2331967Y-18810008D02*
X2341491Y-18819531D01*
X2341491Y-18819531D02*
X2351015Y-18838579D01*
X2351015Y-18838579D02*
X2360539Y-18876674D01*
X2360539Y-18876674D02*
X2360539Y-18924293D01*
X2360539Y-18924293D02*
X2351015Y-18962389D01*
X2351015Y-18962389D02*
X2341491Y-18981436D01*
X2341491Y-18981436D02*
X2331967Y-18990960D01*
X2331967Y-18990960D02*
X2312920Y-19000484D01*
X2312920Y-19000484D02*
X2293872Y-19000484D01*
X2293872Y-19000484D02*
X2274824Y-18990960D01*
X2274824Y-18990960D02*
X2265301Y-18981436D01*
X2265301Y-18981436D02*
X2255777Y-18962389D01*
X2255777Y-18962389D02*
X2246253Y-18924293D01*
X2246253Y-18924293D02*
X2246253Y-18876674D01*
X2246253Y-18876674D02*
X2255777Y-18838579D01*
X2255777Y-18838579D02*
X2265301Y-18819531D01*
X2265301Y-18819531D02*
X2274824Y-18810008D01*
X2274824Y-18810008D02*
X2293872Y-18800484D01*
X2446253Y-18981436D02*
X2455777Y-18990960D01*
X2455777Y-18990960D02*
X2446253Y-19000484D01*
X2446253Y-19000484D02*
X2436729Y-18990960D01*
X2436729Y-18990960D02*
X2446253Y-18981436D01*
X2446253Y-18981436D02*
X2446253Y-19000484D01*
X2522444Y-18800484D02*
X2655777Y-18800484D01*
X2655777Y-18800484D02*
X2570063Y-19000484D01*
X2817682Y-18800484D02*
X2779586Y-18800484D01*
X2779586Y-18800484D02*
X2760539Y-18810008D01*
X2760539Y-18810008D02*
X2751015Y-18819531D01*
X2751015Y-18819531D02*
X2731967Y-18848103D01*
X2731967Y-18848103D02*
X2722444Y-18886198D01*
X2722444Y-18886198D02*
X2722444Y-18962389D01*
X2722444Y-18962389D02*
X2731967Y-18981436D01*
X2731967Y-18981436D02*
X2741491Y-18990960D01*
X2741491Y-18990960D02*
X2760539Y-19000484D01*
X2760539Y-19000484D02*
X2798634Y-19000484D01*
X2798634Y-19000484D02*
X2817682Y-18990960D01*
X2817682Y-18990960D02*
X2827205Y-18981436D01*
X2827205Y-18981436D02*
X2836729Y-18962389D01*
X2836729Y-18962389D02*
X2836729Y-18914770D01*
X2836729Y-18914770D02*
X2827205Y-18895722D01*
X2827205Y-18895722D02*
X2817682Y-18886198D01*
X2817682Y-18886198D02*
X2798634Y-18876674D01*
X2798634Y-18876674D02*
X2760539Y-18876674D01*
X2760539Y-18876674D02*
X2741491Y-18886198D01*
X2741491Y-18886198D02*
X2731967Y-18895722D01*
X2731967Y-18895722D02*
X2722444Y-18914770D01*
X2960539Y-18800484D02*
X2979586Y-18800484D01*
X2979586Y-18800484D02*
X2998634Y-18810008D01*
X2998634Y-18810008D02*
X3008158Y-18819531D01*
X3008158Y-18819531D02*
X3017682Y-18838579D01*
X3017682Y-18838579D02*
X3027205Y-18876674D01*
X3027205Y-18876674D02*
X3027205Y-18924293D01*
X3027205Y-18924293D02*
X3017682Y-18962389D01*
X3017682Y-18962389D02*
X3008158Y-18981436D01*
X3008158Y-18981436D02*
X2998634Y-18990960D01*
X2998634Y-18990960D02*
X2979586Y-19000484D01*
X2979586Y-19000484D02*
X2960539Y-19000484D01*
X2960539Y-19000484D02*
X2941491Y-18990960D01*
X2941491Y-18990960D02*
X2931967Y-18981436D01*
X2931967Y-18981436D02*
X2922443Y-18962389D01*
X2922443Y-18962389D02*
X2912920Y-18924293D01*
X2912920Y-18924293D02*
X2912920Y-18876674D01*
X2912920Y-18876674D02*
X2922443Y-18838579D01*
X2922443Y-18838579D02*
X2931967Y-18819531D01*
X2931967Y-18819531D02*
X2941491Y-18810008D01*
X2941491Y-18810008D02*
X2960539Y-18800484D01*
X3112920Y-19000484D02*
X3112920Y-18867150D01*
X3112920Y-18886198D02*
X3122443Y-18876674D01*
X3122443Y-18876674D02*
X3141491Y-18867150D01*
X3141491Y-18867150D02*
X3170063Y-18867150D01*
X3170063Y-18867150D02*
X3189110Y-18876674D01*
X3189110Y-18876674D02*
X3198634Y-18895722D01*
X3198634Y-18895722D02*
X3198634Y-19000484D01*
X3198634Y-18895722D02*
X3208158Y-18876674D01*
X3208158Y-18876674D02*
X3227205Y-18867150D01*
X3227205Y-18867150D02*
X3255777Y-18867150D01*
X3255777Y-18867150D02*
X3274824Y-18876674D01*
X3274824Y-18876674D02*
X3284348Y-18895722D01*
X3284348Y-18895722D02*
X3284348Y-19000484D01*
X3379586Y-19000484D02*
X3379586Y-18867150D01*
X3379586Y-18886198D02*
X3389110Y-18876674D01*
X3389110Y-18876674D02*
X3408158Y-18867150D01*
X3408158Y-18867150D02*
X3436729Y-18867150D01*
X3436729Y-18867150D02*
X3455777Y-18876674D01*
X3455777Y-18876674D02*
X3465301Y-18895722D01*
X3465301Y-18895722D02*
X3465301Y-19000484D01*
X3465301Y-18895722D02*
X3474824Y-18876674D01*
X3474824Y-18876674D02*
X3493872Y-18867150D01*
X3493872Y-18867150D02*
X3522443Y-18867150D01*
X3522443Y-18867150D02*
X3541491Y-18876674D01*
X3541491Y-18876674D02*
X3551015Y-18895722D01*
X3551015Y-18895722D02*
X3551015Y-19000484D01*
X3941491Y-18790960D02*
X3770063Y-19048103D01*
X4198634Y-18800484D02*
X4217682Y-18800484D01*
X4217682Y-18800484D02*
X4236729Y-18810008D01*
X4236729Y-18810008D02*
X4246253Y-18819531D01*
X4246253Y-18819531D02*
X4255777Y-18838579D01*
X4255777Y-18838579D02*
X4265301Y-18876674D01*
X4265301Y-18876674D02*
X4265301Y-18924293D01*
X4265301Y-18924293D02*
X4255777Y-18962389D01*
X4255777Y-18962389D02*
X4246253Y-18981436D01*
X4246253Y-18981436D02*
X4236729Y-18990960D01*
X4236729Y-18990960D02*
X4217682Y-19000484D01*
X4217682Y-19000484D02*
X4198634Y-19000484D01*
X4198634Y-19000484D02*
X4179586Y-18990960D01*
X4179586Y-18990960D02*
X4170063Y-18981436D01*
X4170063Y-18981436D02*
X4160539Y-18962389D01*
X4160539Y-18962389D02*
X4151015Y-18924293D01*
X4151015Y-18924293D02*
X4151015Y-18876674D01*
X4151015Y-18876674D02*
X4160539Y-18838579D01*
X4160539Y-18838579D02*
X4170063Y-18819531D01*
X4170063Y-18819531D02*
X4179586Y-18810008D01*
X4179586Y-18810008D02*
X4198634Y-18800484D01*
X4351015Y-18981436D02*
X4360539Y-18990960D01*
X4360539Y-18990960D02*
X4351015Y-19000484D01*
X4351015Y-19000484D02*
X4341491Y-18990960D01*
X4341491Y-18990960D02*
X4351015Y-18981436D01*
X4351015Y-18981436D02*
X4351015Y-19000484D01*
X4484348Y-18800484D02*
X4503396Y-18800484D01*
X4503396Y-18800484D02*
X4522444Y-18810008D01*
X4522444Y-18810008D02*
X4531968Y-18819531D01*
X4531968Y-18819531D02*
X4541491Y-18838579D01*
X4541491Y-18838579D02*
X4551015Y-18876674D01*
X4551015Y-18876674D02*
X4551015Y-18924293D01*
X4551015Y-18924293D02*
X4541491Y-18962389D01*
X4541491Y-18962389D02*
X4531968Y-18981436D01*
X4531968Y-18981436D02*
X4522444Y-18990960D01*
X4522444Y-18990960D02*
X4503396Y-19000484D01*
X4503396Y-19000484D02*
X4484348Y-19000484D01*
X4484348Y-19000484D02*
X4465301Y-18990960D01*
X4465301Y-18990960D02*
X4455777Y-18981436D01*
X4455777Y-18981436D02*
X4446253Y-18962389D01*
X4446253Y-18962389D02*
X4436729Y-18924293D01*
X4436729Y-18924293D02*
X4436729Y-18876674D01*
X4436729Y-18876674D02*
X4446253Y-18838579D01*
X4446253Y-18838579D02*
X4455777Y-18819531D01*
X4455777Y-18819531D02*
X4465301Y-18810008D01*
X4465301Y-18810008D02*
X4484348Y-18800484D01*
X4627206Y-18819531D02*
X4636729Y-18810008D01*
X4636729Y-18810008D02*
X4655777Y-18800484D01*
X4655777Y-18800484D02*
X4703396Y-18800484D01*
X4703396Y-18800484D02*
X4722444Y-18810008D01*
X4722444Y-18810008D02*
X4731968Y-18819531D01*
X4731968Y-18819531D02*
X4741491Y-18838579D01*
X4741491Y-18838579D02*
X4741491Y-18857627D01*
X4741491Y-18857627D02*
X4731968Y-18886198D01*
X4731968Y-18886198D02*
X4617682Y-19000484D01*
X4617682Y-19000484D02*
X4741491Y-19000484D01*
X4836729Y-19000484D02*
X4874825Y-19000484D01*
X4874825Y-19000484D02*
X4893872Y-18990960D01*
X4893872Y-18990960D02*
X4903396Y-18981436D01*
X4903396Y-18981436D02*
X4922444Y-18952865D01*
X4922444Y-18952865D02*
X4931968Y-18914770D01*
X4931968Y-18914770D02*
X4931968Y-18838579D01*
X4931968Y-18838579D02*
X4922444Y-18819531D01*
X4922444Y-18819531D02*
X4912920Y-18810008D01*
X4912920Y-18810008D02*
X4893872Y-18800484D01*
X4893872Y-18800484D02*
X4855777Y-18800484D01*
X4855777Y-18800484D02*
X4836729Y-18810008D01*
X4836729Y-18810008D02*
X4827206Y-18819531D01*
X4827206Y-18819531D02*
X4817682Y-18838579D01*
X4817682Y-18838579D02*
X4817682Y-18886198D01*
X4817682Y-18886198D02*
X4827206Y-18905246D01*
X4827206Y-18905246D02*
X4836729Y-18914770D01*
X4836729Y-18914770D02*
X4855777Y-18924293D01*
X4855777Y-18924293D02*
X4893872Y-18924293D01*
X4893872Y-18924293D02*
X4912920Y-18914770D01*
X4912920Y-18914770D02*
X4922444Y-18905246D01*
X4922444Y-18905246D02*
X4931968Y-18886198D01*
X5027206Y-19000484D02*
X5065301Y-19000484D01*
X5065301Y-19000484D02*
X5084349Y-18990960D01*
X5084349Y-18990960D02*
X5093872Y-18981436D01*
X5093872Y-18981436D02*
X5112920Y-18952865D01*
X5112920Y-18952865D02*
X5122444Y-18914770D01*
X5122444Y-18914770D02*
X5122444Y-18838579D01*
X5122444Y-18838579D02*
X5112920Y-18819531D01*
X5112920Y-18819531D02*
X5103396Y-18810008D01*
X5103396Y-18810008D02*
X5084349Y-18800484D01*
X5084349Y-18800484D02*
X5046253Y-18800484D01*
X5046253Y-18800484D02*
X5027206Y-18810008D01*
X5027206Y-18810008D02*
X5017682Y-18819531D01*
X5017682Y-18819531D02*
X5008158Y-18838579D01*
X5008158Y-18838579D02*
X5008158Y-18886198D01*
X5008158Y-18886198D02*
X5017682Y-18905246D01*
X5017682Y-18905246D02*
X5027206Y-18914770D01*
X5027206Y-18914770D02*
X5046253Y-18924293D01*
X5046253Y-18924293D02*
X5084349Y-18924293D01*
X5084349Y-18924293D02*
X5103396Y-18914770D01*
X5103396Y-18914770D02*
X5112920Y-18905246D01*
X5112920Y-18905246D02*
X5122444Y-18886198D01*
X5198634Y-18800484D02*
X5198634Y-18838579D01*
X5274825Y-18800484D02*
X5274825Y-18838579D01*
X5570063Y-19076674D02*
X5560539Y-19067150D01*
X5560539Y-19067150D02*
X5541491Y-19038579D01*
X5541491Y-19038579D02*
X5531968Y-19019531D01*
X5531968Y-19019531D02*
X5522444Y-18990960D01*
X5522444Y-18990960D02*
X5512920Y-18943341D01*
X5512920Y-18943341D02*
X5512920Y-18905246D01*
X5512920Y-18905246D02*
X5522444Y-18857627D01*
X5522444Y-18857627D02*
X5531968Y-18829055D01*
X5531968Y-18829055D02*
X5541491Y-18810008D01*
X5541491Y-18810008D02*
X5560539Y-18781436D01*
X5560539Y-18781436D02*
X5570063Y-18771912D01*
X5684348Y-18800484D02*
X5703396Y-18800484D01*
X5703396Y-18800484D02*
X5722444Y-18810008D01*
X5722444Y-18810008D02*
X5731968Y-18819531D01*
X5731968Y-18819531D02*
X5741491Y-18838579D01*
X5741491Y-18838579D02*
X5751015Y-18876674D01*
X5751015Y-18876674D02*
X5751015Y-18924293D01*
X5751015Y-18924293D02*
X5741491Y-18962389D01*
X5741491Y-18962389D02*
X5731968Y-18981436D01*
X5731968Y-18981436D02*
X5722444Y-18990960D01*
X5722444Y-18990960D02*
X5703396Y-19000484D01*
X5703396Y-19000484D02*
X5684348Y-19000484D01*
X5684348Y-19000484D02*
X5665301Y-18990960D01*
X5665301Y-18990960D02*
X5655777Y-18981436D01*
X5655777Y-18981436D02*
X5646253Y-18962389D01*
X5646253Y-18962389D02*
X5636729Y-18924293D01*
X5636729Y-18924293D02*
X5636729Y-18876674D01*
X5636729Y-18876674D02*
X5646253Y-18838579D01*
X5646253Y-18838579D02*
X5655777Y-18819531D01*
X5655777Y-18819531D02*
X5665301Y-18810008D01*
X5665301Y-18810008D02*
X5684348Y-18800484D01*
X5989110Y-19000484D02*
X5989110Y-18800484D01*
X6074825Y-19000484D02*
X6074825Y-18895722D01*
X6074825Y-18895722D02*
X6065301Y-18876674D01*
X6065301Y-18876674D02*
X6046253Y-18867150D01*
X6046253Y-18867150D02*
X6017682Y-18867150D01*
X6017682Y-18867150D02*
X5998634Y-18876674D01*
X5998634Y-18876674D02*
X5989110Y-18886198D01*
X6198634Y-19000484D02*
X6179587Y-18990960D01*
X6179587Y-18990960D02*
X6170063Y-18981436D01*
X6170063Y-18981436D02*
X6160539Y-18962389D01*
X6160539Y-18962389D02*
X6160539Y-18905246D01*
X6160539Y-18905246D02*
X6170063Y-18886198D01*
X6170063Y-18886198D02*
X6179587Y-18876674D01*
X6179587Y-18876674D02*
X6198634Y-18867150D01*
X6198634Y-18867150D02*
X6227206Y-18867150D01*
X6227206Y-18867150D02*
X6246253Y-18876674D01*
X6246253Y-18876674D02*
X6255777Y-18886198D01*
X6255777Y-18886198D02*
X6265301Y-18905246D01*
X6265301Y-18905246D02*
X6265301Y-18962389D01*
X6265301Y-18962389D02*
X6255777Y-18981436D01*
X6255777Y-18981436D02*
X6246253Y-18990960D01*
X6246253Y-18990960D02*
X6227206Y-19000484D01*
X6227206Y-19000484D02*
X6198634Y-19000484D01*
X6379587Y-19000484D02*
X6360539Y-18990960D01*
X6360539Y-18990960D02*
X6351015Y-18971912D01*
X6351015Y-18971912D02*
X6351015Y-18800484D01*
X6531968Y-18990960D02*
X6512920Y-19000484D01*
X6512920Y-19000484D02*
X6474825Y-19000484D01*
X6474825Y-19000484D02*
X6455777Y-18990960D01*
X6455777Y-18990960D02*
X6446253Y-18971912D01*
X6446253Y-18971912D02*
X6446253Y-18895722D01*
X6446253Y-18895722D02*
X6455777Y-18876674D01*
X6455777Y-18876674D02*
X6474825Y-18867150D01*
X6474825Y-18867150D02*
X6512920Y-18867150D01*
X6512920Y-18867150D02*
X6531968Y-18876674D01*
X6531968Y-18876674D02*
X6541491Y-18895722D01*
X6541491Y-18895722D02*
X6541491Y-18914770D01*
X6541491Y-18914770D02*
X6446253Y-18933817D01*
X6617682Y-18990960D02*
X6636730Y-19000484D01*
X6636730Y-19000484D02*
X6674825Y-19000484D01*
X6674825Y-19000484D02*
X6693872Y-18990960D01*
X6693872Y-18990960D02*
X6703396Y-18971912D01*
X6703396Y-18971912D02*
X6703396Y-18962389D01*
X6703396Y-18962389D02*
X6693872Y-18943341D01*
X6693872Y-18943341D02*
X6674825Y-18933817D01*
X6674825Y-18933817D02*
X6646253Y-18933817D01*
X6646253Y-18933817D02*
X6627206Y-18924293D01*
X6627206Y-18924293D02*
X6617682Y-18905246D01*
X6617682Y-18905246D02*
X6617682Y-18895722D01*
X6617682Y-18895722D02*
X6627206Y-18876674D01*
X6627206Y-18876674D02*
X6646253Y-18867150D01*
X6646253Y-18867150D02*
X6674825Y-18867150D01*
X6674825Y-18867150D02*
X6693872Y-18876674D01*
X6941492Y-18924293D02*
X7093873Y-18924293D01*
X7017682Y-19000484D02*
X7017682Y-18848103D01*
X7322444Y-18800484D02*
X7446253Y-18800484D01*
X7446253Y-18800484D02*
X7379587Y-18876674D01*
X7379587Y-18876674D02*
X7408158Y-18876674D01*
X7408158Y-18876674D02*
X7427206Y-18886198D01*
X7427206Y-18886198D02*
X7436730Y-18895722D01*
X7436730Y-18895722D02*
X7446253Y-18914770D01*
X7446253Y-18914770D02*
X7446253Y-18962389D01*
X7446253Y-18962389D02*
X7436730Y-18981436D01*
X7436730Y-18981436D02*
X7427206Y-18990960D01*
X7427206Y-18990960D02*
X7408158Y-19000484D01*
X7408158Y-19000484D02*
X7351015Y-19000484D01*
X7351015Y-19000484D02*
X7331968Y-18990960D01*
X7331968Y-18990960D02*
X7322444Y-18981436D01*
X7674825Y-18990960D02*
X7693873Y-19000484D01*
X7693873Y-19000484D02*
X7731968Y-19000484D01*
X7731968Y-19000484D02*
X7751015Y-18990960D01*
X7751015Y-18990960D02*
X7760539Y-18971912D01*
X7760539Y-18971912D02*
X7760539Y-18962389D01*
X7760539Y-18962389D02*
X7751015Y-18943341D01*
X7751015Y-18943341D02*
X7731968Y-18933817D01*
X7731968Y-18933817D02*
X7703396Y-18933817D01*
X7703396Y-18933817D02*
X7684349Y-18924293D01*
X7684349Y-18924293D02*
X7674825Y-18905246D01*
X7674825Y-18905246D02*
X7674825Y-18895722D01*
X7674825Y-18895722D02*
X7684349Y-18876674D01*
X7684349Y-18876674D02*
X7703396Y-18867150D01*
X7703396Y-18867150D02*
X7731968Y-18867150D01*
X7731968Y-18867150D02*
X7751015Y-18876674D01*
X7874825Y-19000484D02*
X7855777Y-18990960D01*
X7855777Y-18990960D02*
X7846254Y-18971912D01*
X7846254Y-18971912D02*
X7846254Y-18800484D01*
X7979587Y-19000484D02*
X7960539Y-18990960D01*
X7960539Y-18990960D02*
X7951015Y-18981436D01*
X7951015Y-18981436D02*
X7941492Y-18962389D01*
X7941492Y-18962389D02*
X7941492Y-18905246D01*
X7941492Y-18905246D02*
X7951015Y-18886198D01*
X7951015Y-18886198D02*
X7960539Y-18876674D01*
X7960539Y-18876674D02*
X7979587Y-18867150D01*
X7979587Y-18867150D02*
X8008158Y-18867150D01*
X8008158Y-18867150D02*
X8027206Y-18876674D01*
X8027206Y-18876674D02*
X8036730Y-18886198D01*
X8036730Y-18886198D02*
X8046254Y-18905246D01*
X8046254Y-18905246D02*
X8046254Y-18962389D01*
X8046254Y-18962389D02*
X8036730Y-18981436D01*
X8036730Y-18981436D02*
X8027206Y-18990960D01*
X8027206Y-18990960D02*
X8008158Y-19000484D01*
X8008158Y-19000484D02*
X7979587Y-19000484D01*
X8103396Y-18867150D02*
X8179587Y-18867150D01*
X8131968Y-18800484D02*
X8131968Y-18971912D01*
X8131968Y-18971912D02*
X8141492Y-18990960D01*
X8141492Y-18990960D02*
X8160539Y-19000484D01*
X8160539Y-19000484D02*
X8179587Y-19000484D01*
X8236730Y-18990960D02*
X8255777Y-19000484D01*
X8255777Y-19000484D02*
X8293873Y-19000484D01*
X8293873Y-19000484D02*
X8312920Y-18990960D01*
X8312920Y-18990960D02*
X8322444Y-18971912D01*
X8322444Y-18971912D02*
X8322444Y-18962389D01*
X8322444Y-18962389D02*
X8312920Y-18943341D01*
X8312920Y-18943341D02*
X8293873Y-18933817D01*
X8293873Y-18933817D02*
X8265301Y-18933817D01*
X8265301Y-18933817D02*
X8246254Y-18924293D01*
X8246254Y-18924293D02*
X8236730Y-18905246D01*
X8236730Y-18905246D02*
X8236730Y-18895722D01*
X8236730Y-18895722D02*
X8246254Y-18876674D01*
X8246254Y-18876674D02*
X8265301Y-18867150D01*
X8265301Y-18867150D02*
X8293873Y-18867150D01*
X8293873Y-18867150D02*
X8312920Y-18876674D01*
X8389111Y-19076674D02*
X8398635Y-19067150D01*
X8398635Y-19067150D02*
X8417682Y-19038579D01*
X8417682Y-19038579D02*
X8427206Y-19019531D01*
X8427206Y-19019531D02*
X8436730Y-18990960D01*
X8436730Y-18990960D02*
X8446254Y-18943341D01*
X8446254Y-18943341D02*
X8446254Y-18905246D01*
X8446254Y-18905246D02*
X8436730Y-18857627D01*
X8436730Y-18857627D02*
X8427206Y-18829055D01*
X8427206Y-18829055D02*
X8417682Y-18810008D01*
X8417682Y-18810008D02*
X8398635Y-18781436D01*
X8398635Y-18781436D02*
X8389111Y-18771912D01*
D10*
X1945000Y-19123000D02*
X1945000Y-19223000D01*
X1895000Y-19173000D02*
X1995000Y-19173000D01*
D11*
X2360539Y-19264484D02*
X2246253Y-19264484D01*
X2303396Y-19264484D02*
X2303396Y-19064484D01*
X2303396Y-19064484D02*
X2284348Y-19093055D01*
X2284348Y-19093055D02*
X2265301Y-19112103D01*
X2265301Y-19112103D02*
X2246253Y-19121627D01*
X2446253Y-19245436D02*
X2455777Y-19254960D01*
X2455777Y-19254960D02*
X2446253Y-19264484D01*
X2446253Y-19264484D02*
X2436729Y-19254960D01*
X2436729Y-19254960D02*
X2446253Y-19245436D01*
X2446253Y-19245436D02*
X2446253Y-19264484D01*
X2579586Y-19064484D02*
X2598634Y-19064484D01*
X2598634Y-19064484D02*
X2617682Y-19074008D01*
X2617682Y-19074008D02*
X2627205Y-19083531D01*
X2627205Y-19083531D02*
X2636729Y-19102579D01*
X2636729Y-19102579D02*
X2646253Y-19140674D01*
X2646253Y-19140674D02*
X2646253Y-19188293D01*
X2646253Y-19188293D02*
X2636729Y-19226389D01*
X2636729Y-19226389D02*
X2627205Y-19245436D01*
X2627205Y-19245436D02*
X2617682Y-19254960D01*
X2617682Y-19254960D02*
X2598634Y-19264484D01*
X2598634Y-19264484D02*
X2579586Y-19264484D01*
X2579586Y-19264484D02*
X2560539Y-19254960D01*
X2560539Y-19254960D02*
X2551015Y-19245436D01*
X2551015Y-19245436D02*
X2541491Y-19226389D01*
X2541491Y-19226389D02*
X2531967Y-19188293D01*
X2531967Y-19188293D02*
X2531967Y-19140674D01*
X2531967Y-19140674D02*
X2541491Y-19102579D01*
X2541491Y-19102579D02*
X2551015Y-19083531D01*
X2551015Y-19083531D02*
X2560539Y-19074008D01*
X2560539Y-19074008D02*
X2579586Y-19064484D01*
X2770063Y-19064484D02*
X2789110Y-19064484D01*
X2789110Y-19064484D02*
X2808158Y-19074008D01*
X2808158Y-19074008D02*
X2817682Y-19083531D01*
X2817682Y-19083531D02*
X2827205Y-19102579D01*
X2827205Y-19102579D02*
X2836729Y-19140674D01*
X2836729Y-19140674D02*
X2836729Y-19188293D01*
X2836729Y-19188293D02*
X2827205Y-19226389D01*
X2827205Y-19226389D02*
X2817682Y-19245436D01*
X2817682Y-19245436D02*
X2808158Y-19254960D01*
X2808158Y-19254960D02*
X2789110Y-19264484D01*
X2789110Y-19264484D02*
X2770063Y-19264484D01*
X2770063Y-19264484D02*
X2751015Y-19254960D01*
X2751015Y-19254960D02*
X2741491Y-19245436D01*
X2741491Y-19245436D02*
X2731967Y-19226389D01*
X2731967Y-19226389D02*
X2722444Y-19188293D01*
X2722444Y-19188293D02*
X2722444Y-19140674D01*
X2722444Y-19140674D02*
X2731967Y-19102579D01*
X2731967Y-19102579D02*
X2741491Y-19083531D01*
X2741491Y-19083531D02*
X2751015Y-19074008D01*
X2751015Y-19074008D02*
X2770063Y-19064484D01*
X2960539Y-19064484D02*
X2979586Y-19064484D01*
X2979586Y-19064484D02*
X2998634Y-19074008D01*
X2998634Y-19074008D02*
X3008158Y-19083531D01*
X3008158Y-19083531D02*
X3017682Y-19102579D01*
X3017682Y-19102579D02*
X3027205Y-19140674D01*
X3027205Y-19140674D02*
X3027205Y-19188293D01*
X3027205Y-19188293D02*
X3017682Y-19226389D01*
X3017682Y-19226389D02*
X3008158Y-19245436D01*
X3008158Y-19245436D02*
X2998634Y-19254960D01*
X2998634Y-19254960D02*
X2979586Y-19264484D01*
X2979586Y-19264484D02*
X2960539Y-19264484D01*
X2960539Y-19264484D02*
X2941491Y-19254960D01*
X2941491Y-19254960D02*
X2931967Y-19245436D01*
X2931967Y-19245436D02*
X2922443Y-19226389D01*
X2922443Y-19226389D02*
X2912920Y-19188293D01*
X2912920Y-19188293D02*
X2912920Y-19140674D01*
X2912920Y-19140674D02*
X2922443Y-19102579D01*
X2922443Y-19102579D02*
X2931967Y-19083531D01*
X2931967Y-19083531D02*
X2941491Y-19074008D01*
X2941491Y-19074008D02*
X2960539Y-19064484D01*
X3112920Y-19264484D02*
X3112920Y-19131150D01*
X3112920Y-19150198D02*
X3122443Y-19140674D01*
X3122443Y-19140674D02*
X3141491Y-19131150D01*
X3141491Y-19131150D02*
X3170063Y-19131150D01*
X3170063Y-19131150D02*
X3189110Y-19140674D01*
X3189110Y-19140674D02*
X3198634Y-19159722D01*
X3198634Y-19159722D02*
X3198634Y-19264484D01*
X3198634Y-19159722D02*
X3208158Y-19140674D01*
X3208158Y-19140674D02*
X3227205Y-19131150D01*
X3227205Y-19131150D02*
X3255777Y-19131150D01*
X3255777Y-19131150D02*
X3274824Y-19140674D01*
X3274824Y-19140674D02*
X3284348Y-19159722D01*
X3284348Y-19159722D02*
X3284348Y-19264484D01*
X3379586Y-19264484D02*
X3379586Y-19131150D01*
X3379586Y-19150198D02*
X3389110Y-19140674D01*
X3389110Y-19140674D02*
X3408158Y-19131150D01*
X3408158Y-19131150D02*
X3436729Y-19131150D01*
X3436729Y-19131150D02*
X3455777Y-19140674D01*
X3455777Y-19140674D02*
X3465301Y-19159722D01*
X3465301Y-19159722D02*
X3465301Y-19264484D01*
X3465301Y-19159722D02*
X3474824Y-19140674D01*
X3474824Y-19140674D02*
X3493872Y-19131150D01*
X3493872Y-19131150D02*
X3522443Y-19131150D01*
X3522443Y-19131150D02*
X3541491Y-19140674D01*
X3541491Y-19140674D02*
X3551015Y-19159722D01*
X3551015Y-19159722D02*
X3551015Y-19264484D01*
X3941491Y-19054960D02*
X3770063Y-19312103D01*
X4198634Y-19064484D02*
X4217682Y-19064484D01*
X4217682Y-19064484D02*
X4236729Y-19074008D01*
X4236729Y-19074008D02*
X4246253Y-19083531D01*
X4246253Y-19083531D02*
X4255777Y-19102579D01*
X4255777Y-19102579D02*
X4265301Y-19140674D01*
X4265301Y-19140674D02*
X4265301Y-19188293D01*
X4265301Y-19188293D02*
X4255777Y-19226389D01*
X4255777Y-19226389D02*
X4246253Y-19245436D01*
X4246253Y-19245436D02*
X4236729Y-19254960D01*
X4236729Y-19254960D02*
X4217682Y-19264484D01*
X4217682Y-19264484D02*
X4198634Y-19264484D01*
X4198634Y-19264484D02*
X4179586Y-19254960D01*
X4179586Y-19254960D02*
X4170063Y-19245436D01*
X4170063Y-19245436D02*
X4160539Y-19226389D01*
X4160539Y-19226389D02*
X4151015Y-19188293D01*
X4151015Y-19188293D02*
X4151015Y-19140674D01*
X4151015Y-19140674D02*
X4160539Y-19102579D01*
X4160539Y-19102579D02*
X4170063Y-19083531D01*
X4170063Y-19083531D02*
X4179586Y-19074008D01*
X4179586Y-19074008D02*
X4198634Y-19064484D01*
X4351015Y-19245436D02*
X4360539Y-19254960D01*
X4360539Y-19254960D02*
X4351015Y-19264484D01*
X4351015Y-19264484D02*
X4341491Y-19254960D01*
X4341491Y-19254960D02*
X4351015Y-19245436D01*
X4351015Y-19245436D02*
X4351015Y-19264484D01*
X4484348Y-19064484D02*
X4503396Y-19064484D01*
X4503396Y-19064484D02*
X4522444Y-19074008D01*
X4522444Y-19074008D02*
X4531968Y-19083531D01*
X4531968Y-19083531D02*
X4541491Y-19102579D01*
X4541491Y-19102579D02*
X4551015Y-19140674D01*
X4551015Y-19140674D02*
X4551015Y-19188293D01*
X4551015Y-19188293D02*
X4541491Y-19226389D01*
X4541491Y-19226389D02*
X4531968Y-19245436D01*
X4531968Y-19245436D02*
X4522444Y-19254960D01*
X4522444Y-19254960D02*
X4503396Y-19264484D01*
X4503396Y-19264484D02*
X4484348Y-19264484D01*
X4484348Y-19264484D02*
X4465301Y-19254960D01*
X4465301Y-19254960D02*
X4455777Y-19245436D01*
X4455777Y-19245436D02*
X4446253Y-19226389D01*
X4446253Y-19226389D02*
X4436729Y-19188293D01*
X4436729Y-19188293D02*
X4436729Y-19140674D01*
X4436729Y-19140674D02*
X4446253Y-19102579D01*
X4446253Y-19102579D02*
X4455777Y-19083531D01*
X4455777Y-19083531D02*
X4465301Y-19074008D01*
X4465301Y-19074008D02*
X4484348Y-19064484D01*
X4617682Y-19064484D02*
X4741491Y-19064484D01*
X4741491Y-19064484D02*
X4674825Y-19140674D01*
X4674825Y-19140674D02*
X4703396Y-19140674D01*
X4703396Y-19140674D02*
X4722444Y-19150198D01*
X4722444Y-19150198D02*
X4731968Y-19159722D01*
X4731968Y-19159722D02*
X4741491Y-19178770D01*
X4741491Y-19178770D02*
X4741491Y-19226389D01*
X4741491Y-19226389D02*
X4731968Y-19245436D01*
X4731968Y-19245436D02*
X4722444Y-19254960D01*
X4722444Y-19254960D02*
X4703396Y-19264484D01*
X4703396Y-19264484D02*
X4646253Y-19264484D01*
X4646253Y-19264484D02*
X4627206Y-19254960D01*
X4627206Y-19254960D02*
X4617682Y-19245436D01*
X4836729Y-19264484D02*
X4874825Y-19264484D01*
X4874825Y-19264484D02*
X4893872Y-19254960D01*
X4893872Y-19254960D02*
X4903396Y-19245436D01*
X4903396Y-19245436D02*
X4922444Y-19216865D01*
X4922444Y-19216865D02*
X4931968Y-19178770D01*
X4931968Y-19178770D02*
X4931968Y-19102579D01*
X4931968Y-19102579D02*
X4922444Y-19083531D01*
X4922444Y-19083531D02*
X4912920Y-19074008D01*
X4912920Y-19074008D02*
X4893872Y-19064484D01*
X4893872Y-19064484D02*
X4855777Y-19064484D01*
X4855777Y-19064484D02*
X4836729Y-19074008D01*
X4836729Y-19074008D02*
X4827206Y-19083531D01*
X4827206Y-19083531D02*
X4817682Y-19102579D01*
X4817682Y-19102579D02*
X4817682Y-19150198D01*
X4817682Y-19150198D02*
X4827206Y-19169246D01*
X4827206Y-19169246D02*
X4836729Y-19178770D01*
X4836729Y-19178770D02*
X4855777Y-19188293D01*
X4855777Y-19188293D02*
X4893872Y-19188293D01*
X4893872Y-19188293D02*
X4912920Y-19178770D01*
X4912920Y-19178770D02*
X4922444Y-19169246D01*
X4922444Y-19169246D02*
X4931968Y-19150198D01*
X5103396Y-19131150D02*
X5103396Y-19264484D01*
X5055777Y-19054960D02*
X5008158Y-19197817D01*
X5008158Y-19197817D02*
X5131968Y-19197817D01*
X5198634Y-19064484D02*
X5198634Y-19102579D01*
X5274825Y-19064484D02*
X5274825Y-19102579D01*
X5570063Y-19340674D02*
X5560539Y-19331150D01*
X5560539Y-19331150D02*
X5541491Y-19302579D01*
X5541491Y-19302579D02*
X5531968Y-19283531D01*
X5531968Y-19283531D02*
X5522444Y-19254960D01*
X5522444Y-19254960D02*
X5512920Y-19207341D01*
X5512920Y-19207341D02*
X5512920Y-19169246D01*
X5512920Y-19169246D02*
X5522444Y-19121627D01*
X5522444Y-19121627D02*
X5531968Y-19093055D01*
X5531968Y-19093055D02*
X5541491Y-19074008D01*
X5541491Y-19074008D02*
X5560539Y-19045436D01*
X5560539Y-19045436D02*
X5570063Y-19035912D01*
X5674825Y-19150198D02*
X5655777Y-19140674D01*
X5655777Y-19140674D02*
X5646253Y-19131150D01*
X5646253Y-19131150D02*
X5636729Y-19112103D01*
X5636729Y-19112103D02*
X5636729Y-19102579D01*
X5636729Y-19102579D02*
X5646253Y-19083531D01*
X5646253Y-19083531D02*
X5655777Y-19074008D01*
X5655777Y-19074008D02*
X5674825Y-19064484D01*
X5674825Y-19064484D02*
X5712920Y-19064484D01*
X5712920Y-19064484D02*
X5731968Y-19074008D01*
X5731968Y-19074008D02*
X5741491Y-19083531D01*
X5741491Y-19083531D02*
X5751015Y-19102579D01*
X5751015Y-19102579D02*
X5751015Y-19112103D01*
X5751015Y-19112103D02*
X5741491Y-19131150D01*
X5741491Y-19131150D02*
X5731968Y-19140674D01*
X5731968Y-19140674D02*
X5712920Y-19150198D01*
X5712920Y-19150198D02*
X5674825Y-19150198D01*
X5674825Y-19150198D02*
X5655777Y-19159722D01*
X5655777Y-19159722D02*
X5646253Y-19169246D01*
X5646253Y-19169246D02*
X5636729Y-19188293D01*
X5636729Y-19188293D02*
X5636729Y-19226389D01*
X5636729Y-19226389D02*
X5646253Y-19245436D01*
X5646253Y-19245436D02*
X5655777Y-19254960D01*
X5655777Y-19254960D02*
X5674825Y-19264484D01*
X5674825Y-19264484D02*
X5712920Y-19264484D01*
X5712920Y-19264484D02*
X5731968Y-19254960D01*
X5731968Y-19254960D02*
X5741491Y-19245436D01*
X5741491Y-19245436D02*
X5751015Y-19226389D01*
X5751015Y-19226389D02*
X5751015Y-19188293D01*
X5751015Y-19188293D02*
X5741491Y-19169246D01*
X5741491Y-19169246D02*
X5731968Y-19159722D01*
X5731968Y-19159722D02*
X5712920Y-19150198D01*
X5865301Y-19150198D02*
X5846253Y-19140674D01*
X5846253Y-19140674D02*
X5836729Y-19131150D01*
X5836729Y-19131150D02*
X5827206Y-19112103D01*
X5827206Y-19112103D02*
X5827206Y-19102579D01*
X5827206Y-19102579D02*
X5836729Y-19083531D01*
X5836729Y-19083531D02*
X5846253Y-19074008D01*
X5846253Y-19074008D02*
X5865301Y-19064484D01*
X5865301Y-19064484D02*
X5903396Y-19064484D01*
X5903396Y-19064484D02*
X5922444Y-19074008D01*
X5922444Y-19074008D02*
X5931968Y-19083531D01*
X5931968Y-19083531D02*
X5941491Y-19102579D01*
X5941491Y-19102579D02*
X5941491Y-19112103D01*
X5941491Y-19112103D02*
X5931968Y-19131150D01*
X5931968Y-19131150D02*
X5922444Y-19140674D01*
X5922444Y-19140674D02*
X5903396Y-19150198D01*
X5903396Y-19150198D02*
X5865301Y-19150198D01*
X5865301Y-19150198D02*
X5846253Y-19159722D01*
X5846253Y-19159722D02*
X5836729Y-19169246D01*
X5836729Y-19169246D02*
X5827206Y-19188293D01*
X5827206Y-19188293D02*
X5827206Y-19226389D01*
X5827206Y-19226389D02*
X5836729Y-19245436D01*
X5836729Y-19245436D02*
X5846253Y-19254960D01*
X5846253Y-19254960D02*
X5865301Y-19264484D01*
X5865301Y-19264484D02*
X5903396Y-19264484D01*
X5903396Y-19264484D02*
X5922444Y-19254960D01*
X5922444Y-19254960D02*
X5931968Y-19245436D01*
X5931968Y-19245436D02*
X5941491Y-19226389D01*
X5941491Y-19226389D02*
X5941491Y-19188293D01*
X5941491Y-19188293D02*
X5931968Y-19169246D01*
X5931968Y-19169246D02*
X5922444Y-19159722D01*
X5922444Y-19159722D02*
X5903396Y-19150198D01*
X6179587Y-19264484D02*
X6179587Y-19064484D01*
X6265301Y-19264484D02*
X6265301Y-19159722D01*
X6265301Y-19159722D02*
X6255777Y-19140674D01*
X6255777Y-19140674D02*
X6236730Y-19131150D01*
X6236730Y-19131150D02*
X6208158Y-19131150D01*
X6208158Y-19131150D02*
X6189110Y-19140674D01*
X6189110Y-19140674D02*
X6179587Y-19150198D01*
X6389110Y-19264484D02*
X6370063Y-19254960D01*
X6370063Y-19254960D02*
X6360539Y-19245436D01*
X6360539Y-19245436D02*
X6351015Y-19226389D01*
X6351015Y-19226389D02*
X6351015Y-19169246D01*
X6351015Y-19169246D02*
X6360539Y-19150198D01*
X6360539Y-19150198D02*
X6370063Y-19140674D01*
X6370063Y-19140674D02*
X6389110Y-19131150D01*
X6389110Y-19131150D02*
X6417682Y-19131150D01*
X6417682Y-19131150D02*
X6436730Y-19140674D01*
X6436730Y-19140674D02*
X6446253Y-19150198D01*
X6446253Y-19150198D02*
X6455777Y-19169246D01*
X6455777Y-19169246D02*
X6455777Y-19226389D01*
X6455777Y-19226389D02*
X6446253Y-19245436D01*
X6446253Y-19245436D02*
X6436730Y-19254960D01*
X6436730Y-19254960D02*
X6417682Y-19264484D01*
X6417682Y-19264484D02*
X6389110Y-19264484D01*
X6570063Y-19264484D02*
X6551015Y-19254960D01*
X6551015Y-19254960D02*
X6541491Y-19235912D01*
X6541491Y-19235912D02*
X6541491Y-19064484D01*
X6722444Y-19254960D02*
X6703396Y-19264484D01*
X6703396Y-19264484D02*
X6665301Y-19264484D01*
X6665301Y-19264484D02*
X6646253Y-19254960D01*
X6646253Y-19254960D02*
X6636730Y-19235912D01*
X6636730Y-19235912D02*
X6636730Y-19159722D01*
X6636730Y-19159722D02*
X6646253Y-19140674D01*
X6646253Y-19140674D02*
X6665301Y-19131150D01*
X6665301Y-19131150D02*
X6703396Y-19131150D01*
X6703396Y-19131150D02*
X6722444Y-19140674D01*
X6722444Y-19140674D02*
X6731968Y-19159722D01*
X6731968Y-19159722D02*
X6731968Y-19178770D01*
X6731968Y-19178770D02*
X6636730Y-19197817D01*
X6808158Y-19254960D02*
X6827206Y-19264484D01*
X6827206Y-19264484D02*
X6865301Y-19264484D01*
X6865301Y-19264484D02*
X6884349Y-19254960D01*
X6884349Y-19254960D02*
X6893872Y-19235912D01*
X6893872Y-19235912D02*
X6893872Y-19226389D01*
X6893872Y-19226389D02*
X6884349Y-19207341D01*
X6884349Y-19207341D02*
X6865301Y-19197817D01*
X6865301Y-19197817D02*
X6836730Y-19197817D01*
X6836730Y-19197817D02*
X6817682Y-19188293D01*
X6817682Y-19188293D02*
X6808158Y-19169246D01*
X6808158Y-19169246D02*
X6808158Y-19159722D01*
X6808158Y-19159722D02*
X6817682Y-19140674D01*
X6817682Y-19140674D02*
X6836730Y-19131150D01*
X6836730Y-19131150D02*
X6865301Y-19131150D01*
X6865301Y-19131150D02*
X6884349Y-19140674D01*
X6960539Y-19340674D02*
X6970063Y-19331150D01*
X6970063Y-19331150D02*
X6989111Y-19302579D01*
X6989111Y-19302579D02*
X6998634Y-19283531D01*
X6998634Y-19283531D02*
X7008158Y-19254960D01*
X7008158Y-19254960D02*
X7017682Y-19207341D01*
X7017682Y-19207341D02*
X7017682Y-19169246D01*
X7017682Y-19169246D02*
X7008158Y-19121627D01*
X7008158Y-19121627D02*
X6998634Y-19093055D01*
X6998634Y-19093055D02*
X6989111Y-19074008D01*
X6989111Y-19074008D02*
X6970063Y-19045436D01*
X6970063Y-19045436D02*
X6960539Y-19035912D01*
M02*
