G04 #@! TF.GenerationSoftware,KiCad,Pcbnew,9.0.7*
G04 #@! TF.CreationDate,2026-04-04T13:25:15+02:00*
G04 #@! TF.ProjectId,Prime_Maxel-v3,5072696d-655f-44d6-9178-656c2d76332e,rev?*
G04 #@! TF.SameCoordinates,Original*
G04 #@! TF.FileFunction,Paste,Top*
G04 #@! TF.FilePolarity,Positive*
%FSLAX46Y46*%
G04 Gerber Fmt 4.6, Leading zero omitted, Abs format (unit mm)*
G04 Created by KiCad (PCBNEW 9.0.7) date 2026-04-04 13:25:15*
%MOMM*%
%LPD*%
G01*
G04 APERTURE LIST*
G04 Aperture macros list*
%AMRoundRect*
0 Rectangle with rounded corners*
0 $1 Rounding radius*
0 $2 $3 $4 $5 $6 $7 $8 $9 X,Y pos of 4 corners*
0 Add a 4 corners polygon primitive as box body*
4,1,4,$2,$3,$4,$5,$6,$7,$8,$9,$2,$3,0*
0 Add four circle primitives for the rounded corners*
1,1,$1+$1,$2,$3*
1,1,$1+$1,$4,$5*
1,1,$1+$1,$6,$7*
1,1,$1+$1,$8,$9*
0 Add four rect primitives between the rounded corners*
20,1,$1+$1,$2,$3,$4,$5,0*
20,1,$1+$1,$4,$5,$6,$7,0*
20,1,$1+$1,$6,$7,$8,$9,0*
20,1,$1+$1,$8,$9,$2,$3,0*%
%AMRotRect*
0 Rectangle, with rotation*
0 The origin of the aperture is its center*
0 $1 length*
0 $2 width*
0 $3 Rotation angle, in degrees counterclockwise*
0 Add horizontal line*
21,1,$1,$2,0,0,$3*%
G04 Aperture macros list end*
%ADD10RoundRect,0.150000X-0.361003X0.767725X0.071225X-0.845371X0.361003X-0.767725X-0.071225X0.845371X0*%
%ADD11RoundRect,0.150000X0.361003X-0.767725X-0.071225X0.845371X-0.361003X0.767725X0.071225X-0.845371X0*%
%ADD12RoundRect,0.225000X-0.017678X0.335876X-0.335876X0.017678X0.017678X-0.335876X0.335876X-0.017678X0*%
%ADD13RoundRect,0.135000X-0.143756X0.178282X-0.213637X-0.082518X0.143756X-0.178282X0.213637X0.082518X0*%
%ADD14RotRect,0.330200X0.254000X135.000000*%
%ADD15RotRect,0.508000X0.254000X135.000000*%
%ADD16RotRect,0.355600X0.254000X135.000000*%
%ADD17RotRect,0.254000X0.431800X135.000000*%
%ADD18RotRect,0.254000X0.508000X135.000000*%
%ADD19RotRect,0.330200X0.254000X195.000000*%
%ADD20RotRect,0.508000X0.254000X195.000000*%
%ADD21RotRect,0.355600X0.254000X195.000000*%
%ADD22RotRect,0.254000X0.431800X195.000000*%
%ADD23RotRect,0.254000X0.508000X195.000000*%
%ADD24RoundRect,0.225000X-0.183247X0.282038X-0.299716X-0.152629X0.183247X-0.282038X0.299716X0.152629X0*%
%ADD25RoundRect,0.150000X-0.484368X-0.696500X0.696500X0.484368X0.484368X0.696500X-0.696500X-0.484368X0*%
%ADD26RoundRect,0.135000X0.226274X0.035355X0.035355X0.226274X-0.226274X-0.035355X-0.035355X-0.226274X0*%
%ADD27RoundRect,0.135000X0.213637X-0.082518X0.143756X0.178282X-0.213637X0.082518X-0.143756X-0.178282X0*%
%ADD28RoundRect,0.225000X-0.152629X-0.299716X0.282038X-0.183247X0.152629X0.299716X-0.282038X0.183247X0*%
%ADD29RoundRect,0.225000X-0.299716X0.152629X-0.183247X-0.282038X0.299716X-0.152629X0.183247X0.282038X0*%
%ADD30RoundRect,0.135000X-0.035355X0.226274X-0.226274X0.035355X0.035355X-0.226274X0.226274X-0.035355X0*%
%ADD31RoundRect,0.225000X0.152629X0.299716X-0.282038X0.183247X-0.152629X-0.299716X0.282038X-0.183247X0*%
%ADD32RoundRect,0.225000X0.017678X-0.335876X0.335876X-0.017678X-0.017678X0.335876X-0.335876X0.017678X0*%
%ADD33RoundRect,0.135000X0.143756X-0.178282X0.213637X0.082518X-0.143756X0.178282X-0.213637X-0.082518X0*%
%ADD34RoundRect,0.225000X0.299716X-0.152629X0.183247X0.282038X-0.299716X0.152629X-0.183247X-0.282038X0*%
%ADD35RoundRect,0.150000X0.696500X-0.484368X-0.484368X0.696500X-0.696500X0.484368X0.484368X-0.696500X0*%
%ADD36RoundRect,0.135000X-0.213637X0.082518X-0.143756X-0.178282X0.213637X-0.082518X0.143756X0.178282X0*%
%ADD37RoundRect,0.150000X-0.845371X0.071225X0.767725X-0.361003X0.845371X-0.071225X-0.767725X0.361003X0*%
%ADD38RotRect,0.330200X0.254000X75.000000*%
%ADD39RotRect,0.508000X0.254000X75.000000*%
%ADD40RotRect,0.355600X0.254000X75.000000*%
%ADD41RotRect,0.254000X0.431800X75.000000*%
%ADD42RotRect,0.254000X0.508000X75.000000*%
%ADD43RotRect,0.330200X0.254000X45.000000*%
%ADD44RotRect,0.508000X0.254000X45.000000*%
%ADD45RotRect,0.355600X0.254000X45.000000*%
%ADD46RotRect,0.254000X0.431800X45.000000*%
%ADD47RotRect,0.254000X0.508000X45.000000*%
%ADD48RoundRect,0.225000X0.183247X-0.282038X0.299716X0.152629X-0.183247X0.282038X-0.299716X-0.152629X0*%
%ADD49RoundRect,0.225000X0.282038X0.183247X-0.152629X0.299716X-0.282038X-0.183247X0.152629X-0.299716X0*%
%ADD50RoundRect,0.135000X0.082518X0.213637X-0.178282X0.143756X-0.082518X-0.213637X0.178282X-0.143756X0*%
%ADD51RoundRect,0.150000X0.767725X0.361003X-0.845371X-0.071225X-0.767725X-0.361003X0.845371X0.071225X0*%
%ADD52RoundRect,0.225000X0.335876X0.017678X0.017678X0.335876X-0.335876X-0.017678X-0.017678X-0.335876X0*%
%ADD53RoundRect,0.225000X-0.282038X-0.183247X0.152629X-0.299716X0.282038X0.183247X-0.152629X0.299716X0*%
%ADD54RoundRect,0.250000X-1.500000X-0.550000X1.500000X-0.550000X1.500000X0.550000X-1.500000X0.550000X0*%
%ADD55RotRect,0.330200X0.254000X345.000000*%
%ADD56RotRect,0.508000X0.254000X345.000000*%
%ADD57RotRect,0.355600X0.254000X345.000000*%
%ADD58RotRect,0.254000X0.431800X345.000000*%
%ADD59RotRect,0.254000X0.508000X345.000000*%
%ADD60RoundRect,0.135000X-0.082518X-0.213637X0.178282X-0.143756X0.082518X0.213637X-0.178282X0.143756X0*%
%ADD61RoundRect,0.135000X0.035355X-0.226274X0.226274X-0.035355X-0.035355X0.226274X-0.226274X0.035355X0*%
%ADD62RoundRect,0.225000X-0.335876X-0.017678X-0.017678X-0.335876X0.335876X0.017678X0.017678X0.335876X0*%
%ADD63RoundRect,0.150000X0.845371X-0.071225X-0.767725X0.361003X-0.845371X0.071225X0.767725X-0.361003X0*%
%ADD64RotRect,0.330200X0.254000X315.000000*%
%ADD65RotRect,0.508000X0.254000X315.000000*%
%ADD66RotRect,0.355600X0.254000X315.000000*%
%ADD67RotRect,0.254000X0.431800X315.000000*%
%ADD68RotRect,0.254000X0.508000X315.000000*%
%ADD69RoundRect,0.135000X-0.135000X-0.185000X0.135000X-0.185000X0.135000X0.185000X-0.135000X0.185000X0*%
%ADD70RoundRect,0.150000X-0.071225X-0.845371X0.361003X0.767725X0.071225X0.845371X-0.361003X-0.767725X0*%
%ADD71RoundRect,0.150000X0.071225X0.845371X-0.361003X-0.767725X-0.071225X-0.845371X0.361003X0.767725X0*%
%ADD72RotRect,0.330200X0.254000X15.000000*%
%ADD73RotRect,0.508000X0.254000X15.000000*%
%ADD74RotRect,0.355600X0.254000X15.000000*%
%ADD75RotRect,0.254000X0.431800X15.000000*%
%ADD76RotRect,0.254000X0.508000X15.000000*%
%ADD77RotRect,0.330200X0.254000X285.000000*%
%ADD78RotRect,0.508000X0.254000X285.000000*%
%ADD79RotRect,0.355600X0.254000X285.000000*%
%ADD80RotRect,0.254000X0.431800X285.000000*%
%ADD81RotRect,0.254000X0.508000X285.000000*%
%ADD82RoundRect,0.135000X-0.178282X-0.143756X0.082518X-0.213637X0.178282X0.143756X-0.082518X0.213637X0*%
%ADD83RoundRect,0.135000X0.178282X0.143756X-0.082518X0.213637X-0.178282X-0.143756X0.082518X-0.213637X0*%
%ADD84RotRect,0.330200X0.254000X165.000000*%
%ADD85RotRect,0.508000X0.254000X165.000000*%
%ADD86RotRect,0.355600X0.254000X165.000000*%
%ADD87RotRect,0.254000X0.431800X165.000000*%
%ADD88RotRect,0.254000X0.508000X165.000000*%
%ADD89RotRect,0.330200X0.254000X225.000000*%
%ADD90RotRect,0.508000X0.254000X225.000000*%
%ADD91RotRect,0.355600X0.254000X225.000000*%
%ADD92RotRect,0.254000X0.431800X225.000000*%
%ADD93RotRect,0.254000X0.508000X225.000000*%
%ADD94RoundRect,0.150000X0.484368X0.696500X-0.696500X-0.484368X-0.484368X-0.696500X0.696500X0.484368X0*%
%ADD95RoundRect,0.150000X-0.696500X0.484368X0.484368X-0.696500X0.696500X-0.484368X-0.484368X0.696500X0*%
%ADD96RotRect,0.330200X0.254000X105.000000*%
%ADD97RotRect,0.508000X0.254000X105.000000*%
%ADD98RotRect,0.355600X0.254000X105.000000*%
%ADD99RotRect,0.254000X0.431800X105.000000*%
%ADD100RotRect,0.254000X0.508000X105.000000*%
%ADD101RoundRect,0.150000X-0.767725X-0.361003X0.845371X0.071225X0.767725X0.361003X-0.845371X-0.071225X0*%
%ADD102RoundRect,0.135000X-0.226274X-0.035355X-0.035355X-0.226274X0.226274X0.035355X0.035355X0.226274X0*%
%ADD103RotRect,0.330200X0.254000X255.000000*%
%ADD104RotRect,0.508000X0.254000X255.000000*%
%ADD105RotRect,0.355600X0.254000X255.000000*%
%ADD106RotRect,0.254000X0.431800X255.000000*%
%ADD107RotRect,0.254000X0.508000X255.000000*%
%ADD108RoundRect,0.100000X0.637500X0.100000X-0.637500X0.100000X-0.637500X-0.100000X0.637500X-0.100000X0*%
G04 APERTURE END LIST*
D10*
X41025525Y43213904D03*
X39798799Y42885204D03*
X38572074Y42556504D03*
X37345348Y42227803D03*
X36118622Y41899103D03*
X34891896Y41570403D03*
X33665170Y41241703D03*
X34946325Y36460370D03*
X36173051Y36789070D03*
X37399776Y37117770D03*
X38626502Y37446471D03*
X39853228Y37775171D03*
X41079954Y38103871D03*
X42306680Y38432571D03*
D11*
X58974475Y-53213904D03*
X60201201Y-52885204D03*
X61427926Y-52556504D03*
X62654652Y-52227803D03*
X63881378Y-51899103D03*
X65108104Y-51570403D03*
X66334830Y-51241703D03*
X65053675Y-46460370D03*
X63826949Y-46789070D03*
X62600224Y-47117770D03*
X61373498Y-47446471D03*
X60146772Y-47775171D03*
X58920046Y-48103871D03*
X57693320Y-48432571D03*
D12*
X12648008Y-42551992D03*
X11551992Y-43648008D03*
D13*
X54431997Y40192622D03*
X54168003Y39207378D03*
D14*
X78176920Y-34584809D03*
D15*
X78392446Y-34261520D03*
D16*
X78733696Y-34028033D03*
X79021064Y-33740665D03*
X79308432Y-33453297D03*
D14*
X79577840Y-33183889D03*
D17*
X79559875Y-32591191D03*
D18*
X79254547Y-32357704D03*
X78967178Y-32070336D03*
X78679810Y-31782968D03*
X78392442Y-31495600D03*
D17*
X78158955Y-31190271D03*
D14*
X77566263Y-31172312D03*
D16*
X77296855Y-31441720D03*
X77009487Y-31729088D03*
X76722119Y-32016456D03*
X76434750Y-32303824D03*
D14*
X76165343Y-32573232D03*
D17*
X76183299Y-33165927D03*
D18*
X76488628Y-33399414D03*
X76775996Y-33686782D03*
X77063364Y-33974150D03*
X77350732Y-34261519D03*
D17*
X77584219Y-34566847D03*
D19*
X89709657Y4609525D03*
D20*
X89537442Y4957820D03*
D21*
X89505862Y5370094D03*
X89400677Y5762648D03*
X89295493Y6155199D03*
D19*
X89196883Y6523218D03*
D22*
X88674609Y6804008D03*
D23*
X88319740Y6656329D03*
X87927187Y6551145D03*
X87534635Y6445961D03*
X87142083Y6340776D03*
D22*
X86760917Y6291235D03*
D19*
X86449018Y5786928D03*
D21*
X86547628Y5418910D03*
X86652812Y5026358D03*
X86757996Y4633806D03*
X86863180Y4241254D03*
D19*
X86961790Y3873236D03*
D22*
X87484057Y3592439D03*
D23*
X87838927Y3740118D03*
X88231479Y3845302D03*
X88624032Y3950486D03*
X89016585Y4055670D03*
D22*
X89397750Y4105211D03*
D24*
X36300585Y-56351407D03*
X35899415Y-57848593D03*
D25*
X12732772Y-36879074D03*
X13630797Y-37777100D03*
X14528823Y-38675126D03*
X15426849Y-39573151D03*
X16324874Y-40471177D03*
X17222900Y-41369203D03*
X18120926Y-42267228D03*
X21621104Y-38767050D03*
X20723079Y-37869024D03*
X19825053Y-36970998D03*
X18927027Y-36072973D03*
X18029002Y-35174947D03*
X17130976Y-34276921D03*
X16232950Y-33378896D03*
D26*
X87121248Y-31321248D03*
X86400000Y-30600000D03*
D27*
X69263994Y-46285244D03*
X69000000Y-45300000D03*
D28*
X16451407Y-15100585D03*
X17948593Y-14699415D03*
D29*
X40099415Y28348593D03*
X40500585Y26851407D03*
D30*
X76511685Y31711687D03*
X75790437Y30990439D03*
D31*
X91848593Y12300585D03*
X90351407Y11899415D03*
D32*
X87161992Y32171992D03*
X88258008Y33268008D03*
D33*
X45768003Y-50192622D03*
X46031997Y-49207378D03*
D34*
X36300585Y46051407D03*
X35899415Y47548593D03*
D35*
X81879074Y-42267228D03*
X82777100Y-41369203D03*
X83675126Y-40471177D03*
X84573151Y-39573151D03*
X85471177Y-38675126D03*
X86369203Y-37777100D03*
X87267228Y-36879074D03*
X83767050Y-33378896D03*
X82869024Y-34276921D03*
X81970998Y-35174947D03*
X81072973Y-36072973D03*
X80174947Y-36970998D03*
X79276921Y-37869024D03*
X78378896Y-38767050D03*
D31*
X83848593Y5100585D03*
X82351407Y4699415D03*
D33*
X46768003Y-46492622D03*
X47031997Y-45507378D03*
D28*
X8051407Y-22100585D03*
X9548593Y-21699415D03*
D36*
X32168003Y32992622D03*
X32431997Y32007378D03*
D37*
X3758297Y11334830D03*
X3429597Y10108104D03*
X3100897Y8881378D03*
X2772197Y7654652D03*
X2443496Y6427926D03*
X2114796Y5201201D03*
X1786096Y3974475D03*
X6567429Y2693320D03*
X6896129Y3920046D03*
X7224829Y5146772D03*
X7553529Y6373498D03*
X7882230Y7600224D03*
X8210930Y8826949D03*
X8539630Y10053675D03*
D38*
X38467263Y-44194333D03*
D39*
X38855003Y-44219339D03*
D40*
X39227833Y-44398127D03*
X39620385Y-44503313D03*
X40012938Y-44608495D03*
D38*
X40380957Y-44707105D03*
D41*
X40885265Y-44395198D03*
D42*
X40934806Y-44014033D03*
X41039990Y-43621480D03*
X41145174Y-43228927D03*
X41250357Y-42836375D03*
D41*
X41398037Y-42481505D03*
D38*
X41117244Y-41959239D03*
D40*
X40749226Y-41860629D03*
X40356674Y-41755445D03*
X39964122Y-41650261D03*
X39571569Y-41545077D03*
D38*
X39203552Y-41446467D03*
D41*
X38699241Y-41758365D03*
D42*
X38649699Y-42139531D03*
X38544515Y-42532083D03*
X38439331Y-42924635D03*
X38334147Y-43317189D03*
D41*
X38186468Y-43672057D03*
D43*
X20415191Y-33176920D03*
D44*
X20738480Y-33392446D03*
D45*
X20971967Y-33733696D03*
X21259335Y-34021064D03*
X21546703Y-34308432D03*
D43*
X21816111Y-34577840D03*
D46*
X22408809Y-34559875D03*
D47*
X22642296Y-34254547D03*
X22929664Y-33967178D03*
X23217032Y-33679810D03*
X23504400Y-33392442D03*
D46*
X23809729Y-33158955D03*
D43*
X23827688Y-32566263D03*
D45*
X23558280Y-32296855D03*
X23270912Y-32009487D03*
X22983544Y-31722119D03*
X22696176Y-31434750D03*
D43*
X22426768Y-31165343D03*
D46*
X21834073Y-31183299D03*
D47*
X21600586Y-31488628D03*
X21313218Y-31775996D03*
X21025850Y-32063364D03*
X20738481Y-32350732D03*
D46*
X20433153Y-32584219D03*
D48*
X44099415Y-49948593D03*
X44500585Y-48451407D03*
D49*
X94997186Y-10901170D03*
X93500000Y-10500000D03*
D50*
X87200000Y12731997D03*
X86214756Y12468003D03*
D51*
X98213904Y3974475D03*
X97885204Y5201201D03*
X97556504Y6427926D03*
X97227803Y7654652D03*
X96899103Y8881378D03*
X96570403Y10108104D03*
X96241703Y11334830D03*
X91460370Y10053675D03*
X91789070Y8826949D03*
X92117770Y7600224D03*
X92446471Y6373498D03*
X92775171Y5146772D03*
X93103871Y3920046D03*
X93432571Y2693320D03*
D52*
X85948008Y-32648008D03*
X84851992Y-31551992D03*
D53*
X101251407Y-18799415D03*
X102748593Y-19200585D03*
D54*
X1600000Y-64500000D03*
X7000000Y-64500000D03*
D29*
X63599415Y-56251407D03*
X64000585Y-57748593D03*
D24*
X58200585Y29048593D03*
X57799415Y27551407D03*
D52*
X75748008Y-29248008D03*
X74651992Y-28151992D03*
D12*
X77749069Y30849071D03*
X76653053Y29753055D03*
D49*
X-1051407Y8599415D03*
X-2548593Y9000585D03*
D55*
X10805667Y6532737D03*
D56*
X10780661Y6144997D03*
D57*
X10601873Y5772167D03*
X10496687Y5379615D03*
X10391505Y4987062D03*
D55*
X10292895Y4619043D03*
D58*
X10604802Y4114735D03*
D59*
X10985967Y4065194D03*
X11378520Y3960010D03*
X11771073Y3854826D03*
X12163625Y3749643D03*
D58*
X12518495Y3601963D03*
D55*
X13040761Y3882756D03*
D57*
X13139371Y4250774D03*
X13244555Y4643326D03*
X13349739Y5035878D03*
X13454923Y5428431D03*
D55*
X13553533Y5796448D03*
D58*
X13241635Y6300759D03*
D59*
X12860469Y6350301D03*
X12467917Y6455485D03*
X12075365Y6560669D03*
X11682811Y6665853D03*
D58*
X11327943Y6813532D03*
D34*
X60000585Y-38397186D03*
X59599415Y-36900000D03*
D60*
X8707378Y-23831997D03*
X9692622Y-23568003D03*
D61*
X26739376Y-39260624D03*
X27460624Y-38539376D03*
D34*
X67500585Y-46848593D03*
X67099415Y-45351407D03*
D13*
X53500000Y36192622D03*
X53236006Y35207378D03*
D30*
X73861685Y29011687D03*
X73140437Y28290439D03*
D61*
X23800000Y-42100000D03*
X24521248Y-41378752D03*
D31*
X-1351407Y-18699415D03*
X-2848593Y-19100585D03*
D62*
X24251992Y19348008D03*
X25348008Y18251992D03*
D28*
X101251407Y8799415D03*
X102748593Y9200585D03*
D63*
X96241703Y-21334830D03*
X96570403Y-20108104D03*
X96899103Y-18881378D03*
X97227803Y-17654652D03*
X97556504Y-16427926D03*
X97885204Y-15201201D03*
X98213904Y-13974475D03*
X93432571Y-12693320D03*
X93103871Y-13920046D03*
X92775171Y-15146772D03*
X92446471Y-16373498D03*
X92117770Y-17600224D03*
X91789070Y-18826949D03*
X91460370Y-20053675D03*
D64*
X21823080Y24584809D03*
D65*
X21607554Y24261520D03*
D66*
X21266304Y24028033D03*
X20978936Y23740665D03*
X20691568Y23453297D03*
D64*
X20422160Y23183889D03*
D67*
X20440125Y22591191D03*
D68*
X20745453Y22357704D03*
X21032822Y22070336D03*
X21320190Y21782968D03*
X21607558Y21495600D03*
D67*
X21841045Y21190271D03*
D64*
X22433737Y21172312D03*
D66*
X22703145Y21441720D03*
X22990513Y21729088D03*
X23277881Y22016456D03*
X23565250Y22303824D03*
D64*
X23834657Y22573232D03*
D67*
X23816701Y23165927D03*
D68*
X23511372Y23399414D03*
X23224004Y23686782D03*
X22936636Y23974150D03*
X22649268Y24261519D03*
D67*
X22415781Y24566847D03*
D69*
X44280000Y-7050000D03*
X45300000Y-7050000D03*
D50*
X91200000Y13800000D03*
X90214756Y13536006D03*
D32*
X22451992Y-41048008D03*
X23548008Y-39951992D03*
D70*
X33665170Y-51241703D03*
X34891896Y-51570403D03*
X36118622Y-51899103D03*
X37345348Y-52227803D03*
X38572074Y-52556504D03*
X39798799Y-52885204D03*
X41025525Y-53213904D03*
X42306680Y-48432571D03*
X41079954Y-48103871D03*
X39853228Y-47775171D03*
X38626502Y-47446471D03*
X37399776Y-47117770D03*
X36173051Y-46789070D03*
X34946325Y-46460370D03*
D52*
X12648008Y32351992D03*
X11551992Y33448008D03*
D62*
X14051992Y22748008D03*
X15148008Y21651992D03*
D71*
X66334830Y41241703D03*
X65108104Y41570403D03*
X63881378Y41899103D03*
X62654652Y42227803D03*
X61427926Y42556504D03*
X60201201Y42885204D03*
X58974475Y43213904D03*
X57693320Y38432571D03*
X58920046Y38103871D03*
X60146772Y37775171D03*
X61373498Y37446471D03*
X62600224Y37117770D03*
X63826949Y36789070D03*
X65053675Y36460370D03*
D72*
X10290343Y-14609525D03*
D73*
X10462558Y-14957820D03*
D74*
X10494138Y-15370094D03*
X10599323Y-15762648D03*
X10704507Y-16155199D03*
D72*
X10803117Y-16523218D03*
D75*
X11325391Y-16804008D03*
D76*
X11680260Y-16656329D03*
X12072813Y-16551145D03*
X12465365Y-16445961D03*
X12857917Y-16340776D03*
D75*
X13239083Y-16291235D03*
D72*
X13550982Y-15786928D03*
D74*
X13452372Y-15418910D03*
X13347188Y-15026358D03*
X13242004Y-14633806D03*
X13136820Y-14241254D03*
D72*
X13038210Y-13873236D03*
D75*
X12515943Y-13592439D03*
D76*
X12161073Y-13740118D03*
X11768521Y-13845302D03*
X11375968Y-13950486D03*
X10983415Y-14055670D03*
D75*
X10602250Y-14105211D03*
D77*
X40390475Y34709657D03*
D78*
X40042180Y34537442D03*
D79*
X39629906Y34505862D03*
X39237352Y34400677D03*
X38844801Y34295493D03*
D77*
X38476782Y34196883D03*
D80*
X38195992Y33674609D03*
D81*
X38343671Y33319740D03*
X38448855Y32927187D03*
X38554039Y32534635D03*
X38659224Y32142083D03*
D80*
X38708765Y31760917D03*
D77*
X39213072Y31449018D03*
D79*
X39581090Y31547628D03*
X39973642Y31652812D03*
X40366194Y31757996D03*
X40758746Y31863180D03*
D77*
X41126764Y31961790D03*
D80*
X41407561Y32484057D03*
D81*
X41259882Y32838927D03*
X41154698Y33231479D03*
X41049514Y33624032D03*
X40944330Y34016585D03*
D80*
X40894789Y34397750D03*
D48*
X63699415Y46151407D03*
X64100585Y47648593D03*
D82*
X4807378Y-868003D03*
X5792622Y-1131997D03*
D83*
X91392622Y-8131997D03*
X90407378Y-7868003D03*
D84*
X89194333Y-16532737D03*
D85*
X89219339Y-16144997D03*
D86*
X89398127Y-15772167D03*
X89503313Y-15379615D03*
X89608495Y-14987062D03*
D84*
X89707105Y-14619043D03*
D87*
X89395198Y-14114735D03*
D88*
X89014033Y-14065194D03*
X88621480Y-13960010D03*
X88228927Y-13854826D03*
X87836375Y-13749643D03*
D87*
X87481505Y-13601963D03*
D84*
X86959239Y-13882756D03*
D86*
X86860629Y-14250774D03*
X86755445Y-14643326D03*
X86650261Y-15035878D03*
X86545077Y-15428431D03*
D84*
X86446467Y-15796448D03*
D87*
X86758365Y-16300759D03*
D88*
X87139531Y-16350301D03*
X87532083Y-16455485D03*
X87924635Y-16560669D03*
X88317189Y-16665853D03*
D87*
X88672057Y-16813532D03*
D27*
X68231997Y-42492622D03*
X67968003Y-41507378D03*
D83*
X95392622Y-9231997D03*
X94407378Y-8968003D03*
D89*
X79585268Y23177381D03*
D90*
X79261979Y23392907D03*
D91*
X79028492Y23734157D03*
X78741124Y24021525D03*
X78453756Y24308893D03*
D89*
X78184348Y24578301D03*
D92*
X77591650Y24560336D03*
D93*
X77358163Y24255008D03*
X77070795Y23967639D03*
X76783427Y23680271D03*
X76496059Y23392903D03*
D92*
X76190730Y23159416D03*
D89*
X76172771Y22566724D03*
D91*
X76442179Y22297316D03*
X76729547Y22009948D03*
X77016915Y21722580D03*
X77304283Y21435211D03*
D89*
X77573691Y21165804D03*
D92*
X78166386Y21183760D03*
D93*
X78399873Y21489089D03*
X78687241Y21776457D03*
X78974609Y22063825D03*
X79261978Y22351193D03*
D92*
X79567306Y22584680D03*
D60*
X12307378Y-22831997D03*
X13292622Y-22568003D03*
D48*
X41999415Y-39148593D03*
X42400585Y-37651407D03*
D53*
X15602814Y3301170D03*
X17100000Y2900000D03*
D94*
X87268063Y26879911D03*
X86370038Y27777937D03*
X85472012Y28675963D03*
X84573986Y29573988D03*
X83675961Y30472014D03*
X82777935Y31370040D03*
X81879909Y32268065D03*
X78379731Y28767887D03*
X79277756Y27869861D03*
X80175782Y26971835D03*
X81073808Y26073810D03*
X81971833Y25175784D03*
X82869859Y24277758D03*
X83767885Y23379733D03*
D69*
X44270000Y-8200000D03*
X45290000Y-8200000D03*
D24*
X56000585Y39948593D03*
X55599415Y38451407D03*
D26*
X84521248Y-28621248D03*
X83800000Y-27900000D03*
D95*
X18120926Y32267228D03*
X17222900Y31369203D03*
X16324874Y30471177D03*
X15426849Y29573151D03*
X14528823Y28675126D03*
X13630797Y27777100D03*
X12732772Y26879074D03*
X16232950Y23378896D03*
X17130976Y24276921D03*
X18029002Y25174947D03*
X18927027Y26072973D03*
X19825053Y26970998D03*
X20723079Y27869024D03*
X21621104Y28767050D03*
D36*
X31219995Y36344614D03*
X31483989Y35359370D03*
D82*
X8107378Y-1868003D03*
X9092622Y-2131997D03*
D96*
X59609525Y-44709657D03*
D97*
X59957820Y-44537442D03*
D98*
X60370094Y-44505862D03*
X60762648Y-44400677D03*
X61155199Y-44295493D03*
D96*
X61523218Y-44196883D03*
D99*
X61804008Y-43674609D03*
D100*
X61656329Y-43319740D03*
X61551145Y-42927187D03*
X61445961Y-42534635D03*
X61340776Y-42142083D03*
D99*
X61291235Y-41760917D03*
D96*
X60786928Y-41449018D03*
D98*
X60418910Y-41547628D03*
X60026358Y-41652812D03*
X59633806Y-41757996D03*
X59241254Y-41863180D03*
D96*
X58873236Y-41961790D03*
D99*
X58592439Y-42484057D03*
D100*
X58740118Y-42838927D03*
X58845302Y-43231479D03*
X58950486Y-43624032D03*
X59055670Y-44016585D03*
D99*
X59105211Y-44397750D03*
D101*
X1786096Y-13974475D03*
X2114796Y-15201201D03*
X2443496Y-16427926D03*
X2772197Y-17654652D03*
X3100897Y-18881378D03*
X3429597Y-20108104D03*
X3758297Y-21334830D03*
X8539630Y-20053675D03*
X8210930Y-18826949D03*
X7882230Y-17600224D03*
X7553529Y-16373498D03*
X7224829Y-15146772D03*
X6896129Y-13920046D03*
X6567429Y-12693320D03*
D12*
X74588008Y20998008D03*
X73491992Y19901992D03*
D29*
X32800000Y36900000D03*
X33201170Y35402814D03*
D49*
X83948593Y-13100585D03*
X82451407Y-12699415D03*
D102*
X15500000Y18700000D03*
X16221248Y17978752D03*
D103*
X61532737Y34194333D03*
D104*
X61144997Y34219339D03*
D105*
X60772167Y34398127D03*
X60379615Y34503313D03*
X59987062Y34608495D03*
D103*
X59619043Y34707105D03*
D106*
X59114735Y34395198D03*
D107*
X59065194Y34014033D03*
X58960010Y33621480D03*
X58854826Y33228927D03*
X58749643Y32836375D03*
D106*
X58601963Y32481505D03*
D103*
X58882756Y31959239D03*
D105*
X59250774Y31860629D03*
X59643326Y31755445D03*
X60035878Y31650261D03*
X60428431Y31545077D03*
D103*
X60796448Y31446467D03*
D106*
X61300759Y31758365D03*
D107*
X61350301Y32139531D03*
X61455485Y32532083D03*
X61560669Y32924635D03*
X61665853Y33317189D03*
D106*
X61813532Y33672057D03*
D102*
X12891368Y21508632D03*
X13612616Y20787384D03*
D108*
X52862500Y-8575000D03*
X52862500Y-7925000D03*
X52862500Y-7275000D03*
X52862500Y-6625000D03*
X52862500Y-5975000D03*
X52862500Y-5325000D03*
X52862500Y-4675000D03*
X52862500Y-4025000D03*
X52862500Y-3375000D03*
X52862500Y-2725000D03*
X52862500Y-2075000D03*
X52862500Y-1425000D03*
X47137500Y-1425000D03*
X47137500Y-2075000D03*
X47137500Y-2725000D03*
X47137500Y-3375000D03*
X47137500Y-4025000D03*
X47137500Y-4675000D03*
X47137500Y-5325000D03*
X47137500Y-5975000D03*
X47137500Y-6625000D03*
X47137500Y-7275000D03*
X47137500Y-7925000D03*
X47137500Y-8575000D03*
D62*
X87151992Y-42251992D03*
X88248008Y-43348008D03*
D53*
X5051407Y1000585D03*
X6548593Y599415D03*
D32*
X25800000Y-30700000D03*
X26896016Y-29603984D03*
M02*
