M48
; DRILL file {KiCad 9.0.7} date 2026-04-04T13:25:15+0200
; FORMAT={-:-/ absolute / metric / decimal}
; #@! TF.CreationDate,2026-04-04T13:25:15+02:00
; #@! TF.GenerationSoftware,Kicad,Pcbnew,9.0.7
; #@! TF.FileFunction,Plated,1,4,PTH
FMAT,2
METRIC
; #@! TA.AperFunction,Plated,PTH,ViaDrill
T1C0.300
; #@! TA.AperFunction,Plated,PTH,ComponentDrill
T2C0.760
; #@! TA.AperFunction,Plated,PTH,ComponentDrill
T3C1.000
%
G90
G05
T1
X84.0Y-133.1
X85.0Y-77.3
X93.933Y-78.533
X95.6Y-119.5
X95.7Y-90.5
X99.3Y-135.8
X100.0Y-136.8
X100.6Y-118.2
X100.7Y-91.8
X101.6Y-134.4
X101.6Y-164.5
X102.3Y-135.3
X103.8Y-100.6
X105.1Y-117.1
X105.2Y-93.0
X105.4Y-115.0
X106.7Y-91.5
X107.0Y-164.5
X107.3Y-124.1
X107.554Y-93.627
X107.554Y-116.373
X108.4Y-98.7
X109.0Y-96.6
X109.0Y-114.7
X109.5Y-110.8
X109.6Y-92.9
X109.6Y-115.3
X109.8Y-93.8
X110.1Y-103.5
X110.2Y-118.3
X110.3Y-65.3
X110.4Y-144.8
X110.6Y-120.3
X111.2Y-98.4
X111.9Y-94.8
X111.9Y-115.2
X112.0Y-77.6
X112.3Y-89.8
X112.9Y-97.3
X113.0Y-119.0
X113.9Y-96.3
X113.9Y-141.2
X114.0Y-69.0
X114.1Y-117.0
X114.507Y-122.8
X114.6Y-115.5
X116.2Y-83.5
X116.6Y-135.8
X117.1Y-72.2
X117.1Y-78.6
X117.2Y-137.8
X117.9Y-130.4
X118.3Y-77.3
X118.6Y-97.5
X118.927Y-73.927
X118.927Y-136.073
X119.1Y-71.5
X119.2Y-99.2
X119.2Y-100.1
X119.3Y-79.6
X119.4Y-114.3
X119.4Y-134.0
X120.2Y-134.2
X120.7Y-115.9
X120.8Y-75.3
X120.9Y-116.7
X121.0Y-74.3
X121.8Y-79.7
X122.1Y-77.1
X122.1Y-132.9
X122.6Y-136.5
X122.9Y-114.4
X122.9Y-121.2
X122.9Y-143.0
X123.1Y-79.5
X123.6Y-122.3
X123.8Y-137.7
X124.5Y-131.9
X124.7Y-84.9
X124.7Y-135.6
X124.8Y-72.9
X124.9Y-133.5
X125.5Y-84.2
X126.3Y-120.3
X126.6Y-82.9
X128.0Y-128.5
X129.0Y-138.2
X130.1Y-129.3
X130.8Y-129.9
X130.9Y-62.4
X131.9Y-69.4
X132.7Y-126.8
X134.5Y-65.6
X134.8Y-143.4
X135.4Y-159.6
X135.5Y-50.9
X135.9Y-67.7
X136.4Y-148.5
X136.5Y-65.0
X136.8Y-55.7
X136.8Y-154.3
X137.9Y-60.1
X137.9Y-145.4
X138.0Y-149.8
X138.3Y-69.1
X138.4Y-75.8
X138.627Y-62.554
X138.627Y-147.446
X138.8Y-78.9
X138.8Y-145.2
X139.3Y-75.4
X139.5Y-69.6
X139.7Y-64.5
X139.8Y-143.1
X139.9Y-60.0
X139.9Y-66.8
X140.3Y-63.9
X140.9Y-74.7
X141.5Y-140.9
X141.9Y-146.1
X142.3Y-141.9
X142.6Y-99.2
X142.6Y-108.8
X142.8Y-136.2
X143.3Y-144.3
X143.6Y-102.5
X143.7Y-146.6
X144.1Y-103.5
X144.4Y-99.0
X144.5Y-64.5
X145.0Y-136.4
X145.5Y-151.4
X146.1Y-136.6
X146.2Y-133.0
X147.13Y-109.65
X147.7Y-144.6
X152.1Y-65.7
X152.87Y-100.3
X154.61Y-107.74
X154.8Y-58.8
X154.824Y-100.9
X154.9Y-74.3
X155.67Y-101.16
X155.69Y-77.59
X155.8Y-74.5
X155.9Y-145.9
X156.1Y-63.3
X156.25Y-105.34
X156.4Y-110.7
X156.7Y-65.5
X156.79Y-102.82
X156.82Y-104.69
X156.97Y-103.71
X157.4Y-74.0
X157.9Y-68.2
X158.1Y-63.9
X158.6Y-69.1
X159.199Y-135.3
X159.8Y-146.2
X160.0Y-149.6
X160.2Y-66.9
X160.2Y-143.1
X160.3Y-145.5
X160.5Y-140.2
X161.3Y-62.5
X161.3Y-64.8
X161.373Y-147.446
X161.5Y-134.4
X161.68Y-130.48
X162.0Y-60.1
X162.0Y-140.9
X162.1Y-149.8
X162.2Y-64.6
X162.5Y-134.0
X163.2Y-55.6
X163.2Y-154.4
X163.4Y-144.6
X163.6Y-61.5
X164.0Y-142.0
X164.4Y-159.4
X164.5Y-50.7
X165.2Y-67.1
X165.4Y-144.1
X168.3Y-139.9
X168.896Y-80.396
X169.5Y-81.0
X169.6Y-147.5
X171.9Y-72.1
X172.43Y-81.15
X173.5Y-127.1
X173.7Y-125.4
X174.3Y-124.7
X175.19Y-77.23
X175.2Y-74.43
X175.3Y-137.3
X175.65Y-77.95
X176.351Y-72.049
X176.8Y-130.4
X177.351Y-67.399
X177.49Y-108.6
X177.89Y-77.13
X177.9Y-132.9
X178.4Y-130.2
X178.751Y-74.449
X178.9Y-135.1
X179.0Y-135.9
X179.8Y-93.5
X179.84Y-75.91
X180.0Y-94.4
X180.6Y-130.4
X180.71Y-75.97
X180.9Y-95.6
X181.0Y-110.5
X181.0Y-112.3
X181.073Y-136.073
X181.1Y-138.8
X181.101Y-73.899
X181.2Y-109.5
X181.6Y-132.6
X182.45Y-79.45
X182.8Y-72.2
X183.0Y-131.2
X183.0Y-137.7
X183.4Y-126.5
X183.7Y-74.0
X185.1Y-87.2
X185.4Y-94.5
X185.8Y-113.6
X185.9Y-93.2
X185.98Y-69.01
X186.0Y-141.0
X186.9Y-91.3
X187.0Y-112.6
X187.9Y-120.2
X188.0Y-132.2
X188.1Y-94.8
X188.1Y-115.2
X189.1Y-111.6
X189.16Y-65.79
X189.2Y-89.7
X189.5Y-144.5
X189.6Y-91.3
X189.7Y-106.9
X190.2Y-116.3
X190.4Y-94.6
X190.4Y-117.1
X190.5Y-99.2
X191.1Y-95.2
X191.3Y-113.0
X191.7Y-111.4
X192.3Y-85.9
X192.446Y-93.627
X192.446Y-116.373
X193.6Y-118.7
X194.5Y-95.0
X194.8Y-92.9
X195.0Y-116.9
X196.9Y-109.6
X199.3Y-91.7
X199.3Y-118.3
X204.2Y-90.4
X204.3Y-119.5
T3
X29.45Y-82.337
X29.45Y-84.877
X29.45Y-92.497
X29.45Y-95.037
X29.45Y-97.577
X29.45Y-100.117
X29.45Y-102.657
X29.45Y-105.197
X29.45Y-107.737
X29.45Y-110.277
X29.45Y-115.357
X29.45Y-117.897
X29.45Y-120.437
X29.45Y-122.977
X29.45Y-125.517
X29.45Y-128.057
X29.45Y-130.597
X29.45Y-133.137
X29.45Y-137.201
X29.45Y-139.741
X29.45Y-142.281
X29.45Y-144.821
X29.45Y-147.361
X29.45Y-149.901
X29.45Y-152.441
X29.45Y-154.981
X29.45Y-157.521
X29.45Y-160.061
X31.99Y-82.337
X31.99Y-84.877
X34.53Y-82.337
X34.53Y-84.877
X37.07Y-82.337
X37.07Y-84.877
X39.61Y-82.337
X39.61Y-84.877
X42.15Y-82.337
X42.15Y-84.877
X44.69Y-82.337
X44.69Y-84.877
X47.23Y-82.337
X47.23Y-84.877
X49.77Y-82.337
X49.77Y-84.877
X52.31Y-82.337
X52.31Y-84.877
X54.85Y-82.337
X54.85Y-84.877
X57.39Y-82.337
X57.39Y-84.877
X59.93Y-82.337
X59.93Y-84.877
X62.47Y-82.337
X62.47Y-84.877
X65.01Y-82.337
X65.01Y-84.877
X67.55Y-82.337
X67.55Y-84.877
X70.09Y-82.337
X70.09Y-84.877
X72.63Y-82.337
X72.63Y-84.877
X77.71Y-87.417
X77.71Y-89.957
X77.71Y-92.497
X77.71Y-95.037
X77.71Y-97.577
X77.71Y-100.117
X77.71Y-102.657
X77.71Y-105.197
X77.71Y-110.277
X77.71Y-112.817
X77.71Y-115.357
X77.71Y-117.897
X77.71Y-120.437
X77.71Y-122.977
X77.71Y-125.517
X77.71Y-128.057
X77.71Y-133.137
X77.71Y-135.677
X77.71Y-138.217
X77.71Y-140.757
X77.71Y-143.297
X77.71Y-145.837
X77.71Y-148.377
X77.71Y-150.917
X96.65Y-115.125
X174.875Y-102.425
T2
X90.625Y-161.9G85X92.915Y-161.9
G05
X90.625Y-167.83G85X92.915Y-167.83
G05
X96.5Y-164.355G85X96.5Y-166.645
G05
M30
